STARTFONT 2.1
COMMENT
COMMENT Converted from OpenType font "TimesNewRomanPS-ItalicMT.otf" by "otf2bdf 3.0".
COMMENT
FONT -FreeType-Times New Roman-Medium-I-Normal--21-150-100-100-P-106-ISO10646-1
SIZE 15 100 100
FONTBOUNDINGBOX 33 27 -10 -6
STARTPROPERTIES 19
FOUNDRY "FreeType"
FAMILY_NAME "Times New Roman"
WEIGHT_NAME "Medium"
SLANT "I"
SETWIDTH_NAME "Normal"
ADD_STYLE_NAME ""
PIXEL_SIZE 21
POINT_SIZE 150
RESOLUTION_X 100
RESOLUTION_Y 100
SPACING "P"
AVERAGE_WIDTH 106
CHARSET_REGISTRY "ISO10646"
CHARSET_ENCODING "1"
FONT_ASCENT 18
FONT_DESCENT 4
COPYRIGHT "© 2006 The Monotype Corporation. All Rights Reserved."
_OTF_FONTFILE "TimesNewRomanPS-ItalicMT.otf"
_OTF_PSNAME "TimesNewRomanPS-ItalicMT"
ENDPROPERTIES
CHARS 943
STARTCHAR 0020
ENCODING 32
SWIDTH 240 0
DWIDTH 5 0
BBX 0 0 0 0
BITMAP
ENDCHAR
STARTCHAR 0021
ENCODING 33
SWIDTH 336 0
DWIDTH 7 0
BBX 5 14 2 0
BITMAP
18
10
30
30
20
20
20
40
40
40
00
00
80
C0
ENDCHAR
STARTCHAR 0022
ENCODING 34
SWIDTH 432 0
DWIDTH 9 0
BBX 6 6 3 8
BITMAP
64
CC
CC
C8
88
80
ENDCHAR
STARTCHAR 0023
ENCODING 35
SWIDTH 480 0
DWIDTH 10 0
BBX 10 14 1 0
BITMAP
0880
0880
0880
1080
1100
7FC0
1100
1100
2100
FFC0
2200
2200
2200
4200
ENDCHAR
STARTCHAR 0024
ENCODING 36
SWIDTH 480 0
DWIDTH 10 0
BBX 9 15 1 0
BITMAP
0F00
1280
3480
3480
3400
1C00
1C00
0E00
0B00
1300
1100
9100
9200
6400
3800
ENDCHAR
STARTCHAR 0025
ENCODING 37
SWIDTH 816 0
DWIDTH 17 0
BBX 15 15 2 -1
BITMAP
3806
4408
C410
8C20
8C40
9880
9100
621C
0422
0862
1046
2046
4044
8048
0030
ENDCHAR
STARTCHAR 0026
ENCODING 38
SWIDTH 768 0
DWIDTH 16 0
BBX 14 14 1 0
BITMAP
01E0
0220
0220
0220
0240
0380
0F00
331C
6310
C1A0
C1C0
C1C0
E1C0
7E7C
ENDCHAR
STARTCHAR 0027
ENCODING 39
SWIDTH 192 0
DWIDTH 4 0
BBX 2 5 3 8
BITMAP
40
C0
C0
80
80
ENDCHAR
STARTCHAR 0028
ENCODING 40
SWIDTH 336 0
DWIDTH 7 0
BBX 8 18 1 -4
BITMAP
03
04
0C
08
10
30
20
60
60
40
C0
C0
C0
40
40
40
40
20
ENDCHAR
STARTCHAR 0029
ENCODING 41
SWIDTH 336 0
DWIDTH 7 0
BBX 8 18 -2 -4
BITMAP
04
04
02
02
02
02
03
02
02
06
06
04
0C
08
10
20
40
80
ENDCHAR
STARTCHAR 002A
ENCODING 42
SWIDTH 480 0
DWIDTH 10 0
BBX 7 8 3 6
BITMAP
18
92
D6
38
7E
D6
10
10
ENDCHAR
STARTCHAR 002B
ENCODING 43
SWIDTH 672 0
DWIDTH 14 0
BBX 11 11 2 1
BITMAP
0400
0400
0400
0400
0400
FFE0
0400
0400
0400
0400
0400
ENDCHAR
STARTCHAR 002C
ENCODING 44
SWIDTH 240 0
DWIDTH 5 0
BBX 3 5 0 -3
BITMAP
40
60
40
40
80
ENDCHAR
STARTCHAR 002D
ENCODING 45
SWIDTH 336 0
DWIDTH 7 0
BBX 5 1 1 4
BITMAP
F8
ENDCHAR
STARTCHAR 002E
ENCODING 46
SWIDTH 240 0
DWIDTH 5 0
BBX 2 2 1 0
BITMAP
80
C0
ENDCHAR
STARTCHAR 002F
ENCODING 47
SWIDTH 288 0
DWIDTH 6 0
BBX 7 14 0 0
BITMAP
02
02
04
04
08
08
10
10
20
20
40
40
80
80
ENDCHAR
STARTCHAR 0030
ENCODING 48
SWIDTH 480 0
DWIDTH 10 0
BBX 9 14 1 0
BITMAP
0F00
1080
3080
2080
6080
6180
6180
C180
C180
C300
C300
C200
4600
7800
ENDCHAR
STARTCHAR 0031
ENCODING 49
SWIDTH 480 0
DWIDTH 10 0
BBX 7 14 2 0
BITMAP
0E
0C
0C
0C
08
08
18
18
10
30
30
20
60
F0
ENDCHAR
STARTCHAR 0032
ENCODING 50
SWIDTH 480 0
DWIDTH 10 0
BBX 10 14 0 0
BITMAP
0700
0B80
10C0
00C0
00C0
0080
0100
0200
0200
0400
0800
3000
4300
FE00
ENDCHAR
STARTCHAR 0033
ENCODING 51
SWIDTH 480 0
DWIDTH 10 0
BBX 8 14 1 0
BITMAP
0F
13
01
01
03
04
3C
06
06
02
02
06
C4
F8
ENDCHAR
STARTCHAR 0034
ENCODING 52
SWIDTH 480 0
DWIDTH 10 0
BBX 9 14 1 0
BITMAP
0080
0180
0300
0500
0B00
1300
1200
2200
4600
FF00
FF00
0C00
0C00
0800
ENDCHAR
STARTCHAR 0035
ENCODING 53
SWIDTH 480 0
DWIDTH 10 0
BBX 9 14 1 0
BITMAP
0F80
0F80
1000
1000
3C00
0E00
0600
0300
0300
0200
0200
0200
C400
F800
ENDCHAR
STARTCHAR 0036
ENCODING 54
SWIDTH 480 0
DWIDTH 10 0
BBX 9 14 1 0
BITMAP
0180
0600
0C00
1800
3000
3E00
6300
6180
C180
C180
C300
C300
4600
3C00
ENDCHAR
STARTCHAR 0037
ENCODING 55
SWIDTH 480 0
DWIDTH 10 0
BBX 9 14 2 0
BITMAP
3F80
7F00
8100
0200
0200
0400
0400
0800
1000
1000
2000
2000
4000
4000
ENDCHAR
STARTCHAR 0038
ENCODING 56
SWIDTH 480 0
DWIDTH 10 0
BBX 9 14 1 0
BITMAP
0F00
1080
3080
3080
1980
1B00
0C00
3600
4300
C300
8300
8300
8200
7C00
ENDCHAR
STARTCHAR 0039
ENCODING 57
SWIDTH 480 0
DWIDTH 10 0
BBX 8 14 2 0
BITMAP
1E
21
61
C1
C1
C3
C3
C3
6E
1C
0C
18
20
C0
ENDCHAR
STARTCHAR 003A
ENCODING 58
SWIDTH 336 0
DWIDTH 7 0
BBX 4 9 1 0
BITMAP
30
10
00
00
00
00
00
C0
C0
ENDCHAR
STARTCHAR 003B
ENCODING 59
SWIDTH 336 0
DWIDTH 7 0
BBX 5 12 0 -3
BITMAP
18
08
00
00
00
00
00
20
60
20
40
80
ENDCHAR
STARTCHAR 003C
ENCODING 60
SWIDTH 672 0
DWIDTH 14 0
BBX 10 10 2 2
BITMAP
0040
0180
0600
1800
E000
C000
3000
0E00
0180
0040
ENDCHAR
STARTCHAR 003D
ENCODING 61
SWIDTH 672 0
DWIDTH 14 0
BBX 11 4 2 5
BITMAP
FFE0
0000
0000
FFE0
ENDCHAR
STARTCHAR 003E
ENCODING 62
SWIDTH 672 0
DWIDTH 14 0
BBX 10 9 2 3
BITMAP
E000
1800
0600
01C0
00C0
0300
0C00
7000
8000
ENDCHAR
STARTCHAR 003F
ENCODING 63
SWIDTH 480 0
DWIDTH 10 0
BBX 8 14 2 0
BITMAP
3C
42
63
02
06
0C
18
20
20
40
40
00
C0
C0
ENDCHAR
STARTCHAR 0040
ENCODING 64
SWIDTH 912 0
DWIDTH 19 0
BBX 18 18 1 -4
BITMAP
07FC00
080200
100100
200100
40E880
411880
821880
861080
841080
8C3100
8C3100
8CE200
8F2440
463880
400080
200100
100200
0FFC00
ENDCHAR
STARTCHAR 0041
ENCODING 65
SWIDTH 624 0
DWIDTH 13 0
BBX 11 14 0 0
BITMAP
0020
0060
00C0
00C0
0140
0240
04C0
04C0
08C0
17C0
20C0
20C0
40C0
C1C0
ENDCHAR
STARTCHAR 0042
ENCODING 66
SWIDTH 624 0
DWIDTH 13 0
BBX 11 14 1 0
BITMAP
3F80
0C60
0860
1860
1860
10C0
3F00
3180
20C0
60C0
60C0
61C0
4380
FE00
ENDCHAR
STARTCHAR 0043
ENCODING 67
SWIDTH 672 0
DWIDTH 14 0
BBX 14 14 1 0
BITMAP
03F4
0C08
1808
3008
3000
6000
6000
6000
E000
E000
6000
6020
3020
1FC0
ENDCHAR
STARTCHAR 0044
ENCODING 68
SWIDTH 720 0
DWIDTH 15 0
BBX 15 14 0 0
BITMAP
1FE0
0618
0C0C
0C0C
0C0E
0806
180E
180C
100C
300C
3018
3030
6060
FF80
ENDCHAR
STARTCHAR 0045
ENCODING 69
SWIDTH 624 0
DWIDTH 13 0
BBX 12 14 1 0
BITMAP
3FF0
0C30
0810
1800
1800
1080
3F00
3100
3100
6000
6000
6040
40C0
FF80
ENDCHAR
STARTCHAR 0046
ENCODING 70
SWIDTH 624 0
DWIDTH 13 0
BBX 14 14 0 0
BITMAP
1FFC
060C
0C08
0C00
0C00
0840
1FC0
18C0
1880
3000
3000
3000
2000
F000
ENDCHAR
STARTCHAR 0047
ENCODING 71
SWIDTH 720 0
DWIDTH 15 0
BBX 14 14 1 0
BITMAP
03F4
0C0C
1808
3000
3000
6000
6000
607C
E030
6030
6020
6060
3060
1FC0
ENDCHAR
STARTCHAR 0048
ENCODING 72
SWIDTH 720 0
DWIDTH 15 0
BBX 17 14 0 0
BITMAP
1F9F80
060600
0C0400
0C0C00
0C0C00
080C00
1FF800
181800
181800
301000
303000
303000
603000
F07000
ENDCHAR
STARTCHAR 0049
ENCODING 73
SWIDTH 336 0
DWIDTH 7 0
BBX 8 14 0 0
BITMAP
1F
06
04
0C
0C
08
18
18
18
30
30
30
20
F0
ENDCHAR
STARTCHAR 004A
ENCODING 74
SWIDTH 432 0
DWIDTH 9 0
BBX 12 14 -1 0
BITMAP
01F0
00C0
00C0
00C0
0080
0180
0180
0180
0100
0300
0300
4200
C600
7800
ENDCHAR
STARTCHAR 004B
ENCODING 75
SWIDTH 672 0
DWIDTH 14 0
BBX 15 14 0 0
BITMAP
1F1E
0618
0C20
0C40
0C80
0B00
1E00
1B00
1B00
3180
3180
30C0
6060
F0F0
ENDCHAR
STARTCHAR 004C
ENCODING 76
SWIDTH 576 0
DWIDTH 12 0
BBX 11 14 0 0
BITMAP
1F80
0600
0C00
0C00
0C00
0800
1800
1800
1000
3000
3020
3040
6040
FFC0
ENDCHAR
STARTCHAR 004D
ENCODING 77
SWIDTH 816 0
DWIDTH 17 0
BBX 19 14 0 0
BITMAP
1E00E0
060180
0E0380
0E0580
0E0700
160B00
121300
121200
232600
234600
238400
238C00
430C00
E21E00
ENDCHAR
STARTCHAR 004E
ENCODING 78
SWIDTH 672 0
DWIDTH 14 0
BBX 16 14 0 0
BITMAP
3C1F
0404
0E08
0E08
0B08
1308
1110
1190
2190
20E0
20E0
2060
4060
E040
ENDCHAR
STARTCHAR 004F
ENCODING 79
SWIDTH 720 0
DWIDTH 15 0
BBX 14 14 1 0
BITMAP
03F0
0418
1808
100C
300C
600C
600C
E018
C018
C038
C030
6060
60C0
3F00
ENDCHAR
STARTCHAR 0050
ENCODING 80
SWIDTH 624 0
DWIDTH 13 0
BBX 12 14 1 0
BITMAP
3FC0
0C60
0830
1830
1830
1060
30C0
3F00
3000
2000
6000
6000
6000
E000
ENDCHAR
STARTCHAR 0051
ENCODING 81
SWIDTH 720 0
DWIDTH 15 0
BBX 14 18 1 -4
BITMAP
03F0
0418
1808
300C
300C
600C
600C
E018
C018
C038
C030
6060
60C0
3300
0C00
1008
7810
FFE0
ENDCHAR
STARTCHAR 0052
ENCODING 82
SWIDTH 624 0
DWIDTH 13 0
BBX 11 14 1 0
BITMAP
3F80
0CC0
1860
1860
1860
10C0
3380
3E00
2300
6300
6300
6180
4180
E1C0
ENDCHAR
STARTCHAR 0053
ENCODING 83
SWIDTH 480 0
DWIDTH 10 0
BBX 11 14 0 0
BITMAP
0FA0
1860
1820
1840
1800
0C00
0E00
0700
0380
4180
4180
4180
4180
FF00
ENDCHAR
STARTCHAR 0054
ENCODING 84
SWIDTH 576 0
DWIDTH 12 0
BBX 11 14 2 0
BITMAP
7FE0
4620
8420
8C20
0C00
0C00
0800
1800
1800
1000
3000
3000
3000
F800
ENDCHAR
STARTCHAR 0055
ENCODING 85
SWIDTH 720 0
DWIDTH 15 0
BBX 15 14 2 0
BITMAP
7C3E
3008
3008
3010
2010
6010
6020
6020
C020
C020
C040
C040
6080
3F00
ENDCHAR
STARTCHAR 0056
ENCODING 86
SWIDTH 624 0
DWIDTH 13 0
BBX 12 14 3 0
BITMAP
F8F0
6040
6080
6100
6100
6200
6400
6400
4800
5000
6000
E000
C000
8000
ENDCHAR
STARTCHAR 0057
ENCODING 87
SWIDTH 816 0
DWIDTH 17 0
BBX 17 14 3 0
BITMAP
FFE780
618200
618400
638800
638800
459000
49A000
492000
D14000
E38000
E38000
C30000
830000
820000
ENDCHAR
STARTCHAR 0058
ENCODING 88
SWIDTH 624 0
DWIDTH 13 0
BBX 16 14 -1 0
BITMAP
0F8F
0304
0308
0310
0120
01C0
0180
0180
02C0
04C0
08C0
1040
2060
F0F0
ENDCHAR
STARTCHAR 0059
ENCODING 89
SWIDTH 576 0
DWIDTH 12 0
BBX 12 14 2 0
BITMAP
F9F0
3040
3080
1100
1900
1A00
0C00
0C00
1800
1800
1800
3000
3000
7800
ENDCHAR
STARTCHAR 005A
ENCODING 90
SWIDTH 576 0
DWIDTH 12 0
BBX 13 14 0 0
BITMAP
1FF8
1030
2060
00C0
01C0
0180
0300
0600
0C00
1C00
1800
3020
6040
FFC0
ENDCHAR
STARTCHAR 005B
ENCODING 91
SWIDTH 384 0
DWIDTH 8 0
BBX 10 18 0 -4
BITMAP
07C0
0400
0400
0C00
0C00
0800
0800
1800
1000
1000
3000
3000
2000
6000
6000
4000
4000
F800
ENDCHAR
STARTCHAR 005C
ENCODING 92
SWIDTH 288 0
DWIDTH 6 0
BBX 3 14 2 0
BITMAP
80
80
80
80
40
40
40
40
40
40
40
40
20
20
ENDCHAR
STARTCHAR 005D
ENCODING 93
SWIDTH 384 0
DWIDTH 8 0
BBX 9 18 -2 -4
BITMAP
0780
0080
0180
0180
0100
0300
0300
0200
0200
0600
0400
0400
0C00
0C00
0800
0800
1800
F000
ENDCHAR
STARTCHAR 005E
ENCODING 94
SWIDTH 432 0
DWIDTH 9 0
BBX 8 7 1 7
BITMAP
08
18
24
24
42
41
81
ENDCHAR
STARTCHAR 005F
ENCODING 95
SWIDTH 480 0
DWIDTH 10 0
BBX 11 1 0 -4
BITMAP
FFE0
ENDCHAR
STARTCHAR 0060
ENCODING 96
SWIDTH 336 0
DWIDTH 7 0
BBX 3 3 4 11
BITMAP
C0
40
20
ENDCHAR
STARTCHAR 0061
ENCODING 97
SWIDTH 480 0
DWIDTH 10 0
BBX 9 9 1 0
BITMAP
1D80
2300
4300
C300
C200
8600
8600
9F00
E600
ENDCHAR
STARTCHAR 0062
ENCODING 98
SWIDTH 480 0
DWIDTH 10 0
BBX 9 14 1 0
BITMAP
3800
1000
1000
3000
3000
2F00
7180
6180
4180
4100
C100
C200
8600
F800
ENDCHAR
STARTCHAR 0063
ENCODING 99
SWIDTH 432 0
DWIDTH 9 0
BBX 8 9 1 0
BITMAP
1F
23
42
C0
80
80
80
C6
F8
ENDCHAR
STARTCHAR 0064
ENCODING 100
SWIDTH 480 0
DWIDTH 10 0
BBX 11 14 0 0
BITMAP
0060
0060
0040
0040
00C0
0FC0
1180
2180
6180
4100
4300
C700
CB80
7300
ENDCHAR
STARTCHAR 0065
ENCODING 101
SWIDTH 432 0
DWIDTH 9 0
BBX 8 9 1 0
BITMAP
1F
23
43
C6
D8
A0
80
C2
7C
ENDCHAR
STARTCHAR 0066
ENCODING 102
SWIDTH 288 0
DWIDTH 6 0
BBX 14 18 -4 -4
BITMAP
003C
0040
00C0
0080
0180
07C0
0100
0300
0300
0300
0200
0600
0600
0400
0400
0800
0800
F000
ENDCHAR
STARTCHAR 0067
ENCODING 103
SWIDTH 480 0
DWIDTH 10 0
BBX 12 13 -1 -4
BITMAP
0FF0
18C0
30C0
30C0
3080
1B00
0C00
1000
1F00
2780
40C0
C080
7F80
ENDCHAR
STARTCHAR 0068
ENCODING 104
SWIDTH 480 0
DWIDTH 10 0
BBX 8 14 1 0
BITMAP
18
18
10
30
30
27
29
73
63
62
C2
C6
87
86
ENDCHAR
STARTCHAR 0069
ENCODING 105
SWIDTH 288 0
DWIDTH 6 0
BBX 5 13 1 0
BITMAP
18
10
00
00
F0
20
60
60
40
40
C0
E0
C0
ENDCHAR
STARTCHAR 006A
ENCODING 106
SWIDTH 288 0
DWIDTH 6 0
BBX 10 17 -4 -4
BITMAP
00C0
00C0
0000
0000
0780
0100
0100
0300
0300
0200
0600
0600
0400
0400
0C00
0800
F000
ENDCHAR
STARTCHAR 006B
ENCODING 107
SWIDTH 432 0
DWIDTH 9 0
BBX 9 14 0 0
BITMAP
1C00
0800
0800
1800
1800
1180
3200
3400
2C00
3C00
6400
6400
4680
C700
ENDCHAR
STARTCHAR 006C
ENCODING 108
SWIDTH 288 0
DWIDTH 6 0
BBX 5 14 1 0
BITMAP
18
18
10
10
30
20
20
60
60
40
40
C0
A0
C0
ENDCHAR
STARTCHAR 006D
ENCODING 109
SWIDTH 720 0
DWIDTH 15 0
BBX 14 9 0 0
BITMAP
739C
35AC
39CC
3188
3398
6318
6310
4214
C638
ENDCHAR
STARTCHAR 006E
ENCODING 110
SWIDTH 480 0
DWIDTH 10 0
BBX 8 9 1 0
BITMAP
E7
29
73
63
62
C2
C6
87
86
ENDCHAR
STARTCHAR 006F
ENCODING 111
SWIDTH 480 0
DWIDTH 10 0
BBX 9 9 1 0
BITMAP
1F00
2100
6180
C180
C100
8300
8300
8600
7800
ENDCHAR
STARTCHAR 0070
ENCODING 112
SWIDTH 480 0
DWIDTH 10 0
BBX 11 13 -1 -4
BITMAP
39C0
0E60
1860
1860
1040
30C0
3080
2180
3200
6C00
6000
4000
E000
ENDCHAR
STARTCHAR 0071
ENCODING 113
SWIDTH 480 0
DWIDTH 10 0
BBX 10 13 0 -4
BITMAP
0FC0
1080
3180
6180
6180
4300
C300
4F00
7200
0200
0600
0400
0E00
ENDCHAR
STARTCHAR 0072
ENCODING 114
SWIDTH 384 0
DWIDTH 8 0
BBX 7 9 1 0
BITMAP
E6
2A
70
60
60
C0
C0
80
80
ENDCHAR
STARTCHAR 0073
ENCODING 115
SWIDTH 384 0
DWIDTH 8 0
BBX 7 9 0 0
BITMAP
1E
22
30
38
18
0C
84
84
F8
ENDCHAR
STARTCHAR 0074
ENCODING 116
SWIDTH 288 0
DWIDTH 6 0
BBX 5 11 1 1
BITMAP
10
30
F8
20
60
60
40
C0
C0
A0
C0
ENDCHAR
STARTCHAR 0075
ENCODING 117
SWIDTH 480 0
DWIDTH 10 0
BBX 9 9 1 0
BITMAP
6180
A100
6300
6300
4200
CE00
CE00
D700
E600
ENDCHAR
STARTCHAR 0076
ENCODING 118
SWIDTH 432 0
DWIDTH 9 0
BBX 9 9 0 0
BITMAP
F180
3080
3080
1100
1100
1200
1C00
1800
1000
ENDCHAR
STARTCHAR 0077
ENCODING 119
SWIDTH 672 0
DWIDTH 14 0
BBX 14 9 0 0
BITMAP
E08C
3184
3188
1288
1490
1490
18A0
10C0
1080
ENDCHAR
STARTCHAR 0078
ENCODING 120
SWIDTH 432 0
DWIDTH 9 0
BBX 10 9 -1 0
BITMAP
38C0
0D00
0E00
0400
0400
0E00
1600
1280
E300
ENDCHAR
STARTCHAR 0079
ENCODING 121
SWIDTH 432 0
DWIDTH 9 0
BBX 11 13 -2 -4
BITMAP
3C60
0C20
0420
0440
0440
0480
0500
0600
0600
0400
0800
1000
E000
ENDCHAR
STARTCHAR 007A
ENCODING 122
SWIDTH 384 0
DWIDTH 8 0
BBX 8 9 0 0
BITMAP
3F
42
04
08
10
20
42
82
FC
ENDCHAR
STARTCHAR 007B
ENCODING 123
SWIDTH 384 0
DWIDTH 8 0
BBX 7 18 2 -4
BITMAP
06
08
18
18
18
10
10
20
40
80
40
40
40
C0
80
80
80
C0
ENDCHAR
STARTCHAR 007C
ENCODING 124
SWIDTH 288 0
DWIDTH 6 0
BBX 1 18 2 -4
BITMAP
80
80
80
80
80
80
80
80
80
80
80
80
80
80
80
80
80
80
ENDCHAR
STARTCHAR 007D
ENCODING 125
SWIDTH 384 0
DWIDTH 8 0
BBX 8 18 -1 -4
BITMAP
02
03
03
03
06
06
04
04
02
02
0C
18
18
18
10
10
20
C0
ENDCHAR
STARTCHAR 007E
ENCODING 126
SWIDTH 528 0
DWIDTH 11 0
BBX 11 3 0 4
BITMAP
7000
8E20
81C0
ENDCHAR
STARTCHAR 00A0
ENCODING 160
SWIDTH 240 0
DWIDTH 5 0
BBX 0 0 0 0
BITMAP
ENDCHAR
STARTCHAR 00A1
ENCODING 161
SWIDTH 384 0
DWIDTH 8 0
BBX 5 14 1 -4
BITMAP
08
18
00
00
00
10
20
20
20
20
60
60
40
C0
ENDCHAR
STARTCHAR 00A2
ENCODING 162
SWIDTH 480 0
DWIDTH 10 0
BBX 8 16 1 -4
BITMAP
02
02
02
04
0F
35
69
48
C8
D0
D0
D2
7C
20
20
20
ENDCHAR
STARTCHAR 00A3
ENCODING 163
SWIDTH 480 0
DWIDTH 10 0
BBX 11 14 0 0
BITMAP
01C0
0260
0600
0600
0C00
0C00
3F80
0C00
0800
0800
1800
3000
DC00
EF80
ENDCHAR
STARTCHAR 00A4
ENCODING 164
SWIDTH 480 0
DWIDTH 10 0
BBX 10 10 1 2
BITMAP
8000
7F80
4180
4080
8080
8080
8080
4080
6380
9C40
ENDCHAR
STARTCHAR 00A5
ENCODING 165
SWIDTH 480 0
DWIDTH 10 0
BBX 13 14 0 0
BITMAP
3E78
1820
0840
0C40
0C80
0500
0700
7EE0
0400
FFE0
0C00
0C00
0800
1C00
ENDCHAR
STARTCHAR 00A6
ENCODING 166
SWIDTH 288 0
DWIDTH 6 0
BBX 1 18 2 -4
BITMAP
80
80
80
80
80
80
80
00
00
00
00
80
80
80
80
80
80
80
ENDCHAR
STARTCHAR 00A7
ENCODING 167
SWIDTH 480 0
DWIDTH 10 0
BBX 11 18 0 -4
BITMAP
07C0
0460
0840
0800
0400
0600
1F00
2100
2180
2080
1080
1D00
0E00
0400
0600
8400
C400
7800
ENDCHAR
STARTCHAR 00A8
ENCODING 168
SWIDTH 336 0
DWIDTH 7 0
BBX 6 3 3 11
BITMAP
88
DC
88
ENDCHAR
STARTCHAR 00A9
ENCODING 169
SWIDTH 768 0
DWIDTH 16 0
BBX 15 14 1 0
BITMAP
07C0
1830
2188
4664
4824
9802
9802
9802
9802
8804
4C24
23C8
1010
0FE0
ENDCHAR
STARTCHAR 00AA
ENCODING 170
SWIDTH 288 0
DWIDTH 6 0
BBX 6 6 2 8
BITMAP
34
48
88
98
B4
48
ENDCHAR
STARTCHAR 00AB
ENCODING 171
SWIDTH 480 0
DWIDTH 10 0
BBX 9 9 1 0
BITMAP
0980
1100
2200
4400
CC00
CC00
4400
4400
2200
ENDCHAR
STARTCHAR 00AC
ENCODING 172
SWIDTH 672 0
DWIDTH 14 0
BBX 11 4 2 5
BITMAP
FFE0
0020
0020
0020
ENDCHAR
STARTCHAR 00AD
ENCODING 173
SWIDTH 336 0
DWIDTH 7 0
BBX 5 1 1 4
BITMAP
F8
ENDCHAR
STARTCHAR 00AE
ENCODING 174
SWIDTH 768 0
DWIDTH 16 0
BBX 15 14 1 0
BITMAP
07C0
1830
2008
4FC4
4464
8462
84C2
8782
8482
84C4
4464
2808
1010
0FE0
ENDCHAR
STARTCHAR 00AF
ENCODING 175
SWIDTH 480 0
DWIDTH 10 0
BBX 11 1 2 14
BITMAP
FFE0
ENDCHAR
STARTCHAR 00B0
ENCODING 176
SWIDTH 384 0
DWIDTH 8 0
BBX 6 6 2 8
BITMAP
78
44
84
84
44
78
ENDCHAR
STARTCHAR 00B1
ENCODING 177
SWIDTH 528 0
DWIDTH 11 0
BBX 11 11 1 1
BITMAP
0800
0800
0800
0800
0800
FFE0
0800
0800
0800
0800
FFE0
ENDCHAR
STARTCHAR 00B2
ENCODING 178
SWIDTH 288 0
DWIDTH 6 0
BBX 5 7 2 7
BITMAP
70
08
08
10
20
40
F0
ENDCHAR
STARTCHAR 00B3
ENCODING 179
SWIDTH 288 0
DWIDTH 6 0
BBX 6 7 1 7
BITMAP
18
0C
08
18
08
08
F0
ENDCHAR
STARTCHAR 00B4
ENCODING 180
SWIDTH 336 0
DWIDTH 7 0
BBX 3 3 4 11
BITMAP
60
40
80
ENDCHAR
STARTCHAR 00B5
ENCODING 181
SWIDTH 576 0
DWIDTH 12 0
BBX 10 13 0 -4
BITMAP
0840
1840
18C0
1080
3080
3180
2180
2300
7DC0
4000
C000
8000
8000
ENDCHAR
STARTCHAR 00B6
ENCODING 182
SWIDTH 528 0
DWIDTH 11 0
BBX 10 18 1 -4
BITMAP
1FC0
7D00
FD00
FD00
FD00
FD00
7D00
3D00
0500
0500
0500
0500
0500
0500
0500
0500
0500
0400
ENDCHAR
STARTCHAR 00B7
ENCODING 183
SWIDTH 240 0
DWIDTH 5 0
BBX 2 2 2 6
BITMAP
C0
C0
ENDCHAR
STARTCHAR 00B8
ENCODING 184
SWIDTH 336 0
DWIDTH 7 0
BBX 3 4 0 -4
BITMAP
40
60
20
C0
ENDCHAR
STARTCHAR 00B9
ENCODING 185
SWIDTH 288 0
DWIDTH 6 0
BBX 3 7 3 7
BITMAP
60
20
40
40
40
C0
80
ENDCHAR
STARTCHAR 00BA
ENCODING 186
SWIDTH 288 0
DWIDTH 6 0
BBX 6 6 2 8
BITMAP
3C
44
44
84
88
70
ENDCHAR
STARTCHAR 00BB
ENCODING 187
SWIDTH 480 0
DWIDTH 10 0
BBX 9 9 1 0
BITMAP
2400
2200
3300
1300
1980
3300
6600
4400
8800
ENDCHAR
STARTCHAR 00BC
ENCODING 188
SWIDTH 768 0
DWIDTH 16 0
BBX 11 15 3 -1
BITMAP
6040
2080
4080
4100
4100
8200
8400
0400
0820
10E0
1140
2240
43E0
4080
8080
ENDCHAR
STARTCHAR 00BD
ENCODING 189
SWIDTH 768 0
DWIDTH 16 0
BBX 11 15 3 -1
BITMAP
6040
2080
4100
4100
4200
8400
8400
08E0
1120
1020
2020
4040
4180
8240
8180
ENDCHAR
STARTCHAR 00BE
ENCODING 190
SWIDTH 768 0
DWIDTH 16 0
BBX 13 15 1 -1
BITMAP
1810
2C20
0820
1840
0880
0880
D100
2200
0208
0438
0450
0890
10F8
1020
2020
ENDCHAR
STARTCHAR 00BF
ENCODING 191
SWIDTH 480 0
DWIDTH 10 0
BBX 7 14 1 -4
BITMAP
06
06
00
00
04
04
08
10
20
60
C0
84
84
7C
ENDCHAR
STARTCHAR 00C0
ENCODING 192
SWIDTH 624 0
DWIDTH 13 0
BBX 12 18 0 0
BITMAP
0060
0030
0010
0000
0020
0060
00C0
00C0
0140
0240
04C0
04C0
08C0
17C0
20C0
20C0
40C0
C1C0
ENDCHAR
STARTCHAR 00C1
ENCODING 193
SWIDTH 624 0
DWIDTH 13 0
BBX 12 18 0 0
BITMAP
0030
0020
0040
0000
0020
0060
00C0
00C0
0140
0240
04C0
04C0
08C0
17C0
20C0
20C0
40C0
C1C0
ENDCHAR
STARTCHAR 00C2
ENCODING 194
SWIDTH 624 0
DWIDTH 13 0
BBX 13 18 0 0
BITMAP
0030
0058
0088
0000
0020
0060
00C0
00C0
0140
0240
04C0
04C0
08C0
17C0
20C0
20C0
40C0
C1C0
ENDCHAR
STARTCHAR 00C3
ENCODING 195
SWIDTH 624 0
DWIDTH 13 0
BBX 14 18 0 0
BITMAP
0040
00F4
0138
0000
0020
0060
00C0
00C0
0140
0240
04C0
04C0
08C0
17C0
20C0
20C0
40C0
C1C0
ENDCHAR
STARTCHAR 00C4
ENCODING 196
SWIDTH 624 0
DWIDTH 13 0
BBX 14 17 0 0
BITMAP
00CC
004C
0000
0020
0060
00C0
00C0
0140
0240
04C0
04C0
08C0
17C0
20C0
20C0
40C0
C1C0
ENDCHAR
STARTCHAR 00C5
ENCODING 197
SWIDTH 624 0
DWIDTH 13 0
BBX 13 18 0 0
BITMAP
0020
0050
0088
0050
0020
0060
00C0
00C0
0140
0240
04C0
04C0
08C0
17C0
20C0
20C0
40C0
C1C0
ENDCHAR
STARTCHAR 00C6
ENCODING 198
SWIDTH 912 0
DWIDTH 19 0
BBX 19 14 0 0
BITMAP
007FE0
003860
005040
00B000
013100
023100
023E00
046200
0FE200
104000
20C000
20C080
40C100
C1FF00
ENDCHAR
STARTCHAR 00C7
ENCODING 199
SWIDTH 672 0
DWIDTH 14 0
BBX 14 18 1 -4
BITMAP
03F4
0C08
1808
3008
3000
6000
6000
6000
E000
E000
6000
6020
3020
1FC0
0400
0600
0200
0C00
ENDCHAR
STARTCHAR 00C8
ENCODING 200
SWIDTH 624 0
DWIDTH 13 0
BBX 12 18 1 0
BITMAP
0300
0180
0080
0000
3FF0
0C30
0810
1800
1800
1080
3F00
3100
3100
6000
6000
6040
40C0
FF80
ENDCHAR
STARTCHAR 00C9
ENCODING 201
SWIDTH 624 0
DWIDTH 13 0
BBX 12 18 1 0
BITMAP
0180
0100
0200
0000
3FF0
0C30
0810
1800
1800
1080
3F00
3100
3100
6000
6000
6040
40C0
FF80
ENDCHAR
STARTCHAR 00CA
ENCODING 202
SWIDTH 624 0
DWIDTH 13 0
BBX 12 18 1 0
BITMAP
00C0
0140
0640
0000
3FF0
0C30
0810
1800
1800
1080
3F00
3100
3100
6000
6000
6040
40C0
FF80
ENDCHAR
STARTCHAR 00CB
ENCODING 203
SWIDTH 624 0
DWIDTH 13 0
BBX 12 17 1 0
BITMAP
0660
0260
0000
3FF0
0C30
0810
1800
1800
1080
3F00
3100
3100
6000
6000
6040
40C0
FF80
ENDCHAR
STARTCHAR 00CC
ENCODING 204
SWIDTH 336 0
DWIDTH 7 0
BBX 8 18 0 0
BITMAP
06
02
01
00
1F
06
04
0C
0C
08
18
18
18
30
30
30
20
F0
ENDCHAR
STARTCHAR 00CD
ENCODING 205
SWIDTH 336 0
DWIDTH 7 0
BBX 8 18 0 0
BITMAP
03
02
04
00
1F
06
04
0C
0C
08
18
18
18
30
30
30
20
F0
ENDCHAR
STARTCHAR 00CE
ENCODING 206
SWIDTH 336 0
DWIDTH 7 0
BBX 9 18 0 0
BITMAP
0300
0500
0880
0000
1F00
0600
0400
0C00
0C00
0800
1800
1800
1800
3000
3000
3000
2000
F000
ENDCHAR
STARTCHAR 00CF
ENCODING 207
SWIDTH 336 0
DWIDTH 7 0
BBX 9 17 0 0
BITMAP
0D80
0980
0000
1F00
0600
0400
0C00
0C00
0800
1800
1800
1800
3000
3000
3000
2000
F000
ENDCHAR
STARTCHAR 00D0
ENCODING 208
SWIDTH 720 0
DWIDTH 15 0
BBX 14 14 1 0
BITMAP
3FC0
0C30
1818
1818
180C
100C
7F0C
301C
3018
6018
6030
6060
40C0
FF00
ENDCHAR
STARTCHAR 00D1
ENCODING 209
SWIDTH 672 0
DWIDTH 14 0
BBX 16 18 0 0
BITMAP
0080
01E8
0030
0000
3C1F
0404
0E08
0E08
0B08
1308
1110
1190
2190
20E0
20E0
2060
4060
E040
ENDCHAR
STARTCHAR 00D2
ENCODING 210
SWIDTH 720 0
DWIDTH 15 0
BBX 14 18 1 0
BITMAP
0060
0020
0020
0000
03F0
0418
1808
100C
300C
600C
600C
E018
C018
C038
C030
6060
60C0
3F00
ENDCHAR
STARTCHAR 00D3
ENCODING 211
SWIDTH 720 0
DWIDTH 15 0
BBX 14 18 1 0
BITMAP
0030
0060
0040
0000
03F0
0418
1808
100C
300C
600C
600C
E018
C018
C038
C030
6060
60C0
3F00
ENDCHAR
STARTCHAR 00D4
ENCODING 212
SWIDTH 720 0
DWIDTH 15 0
BBX 14 18 1 0
BITMAP
0070
00F0
0110
0000
03F0
0418
1808
100C
300C
600C
600C
E018
C018
C038
C030
6060
60C0
3F00
ENDCHAR
STARTCHAR 00D5
ENCODING 213
SWIDTH 720 0
DWIDTH 15 0
BBX 14 18 1 0
BITMAP
0080
01E8
0270
0000
03F0
0418
1808
100C
300C
600C
600C
E018
C018
C038
C030
6060
60C0
3F00
ENDCHAR
STARTCHAR 00D6
ENCODING 214
SWIDTH 720 0
DWIDTH 15 0
BBX 14 17 1 0
BITMAP
0198
0198
0000
03F0
0418
1808
100C
300C
600C
600C
E018
C018
C038
C030
6060
60C0
3F00
ENDCHAR
STARTCHAR 00D7
ENCODING 215
SWIDTH 672 0
DWIDTH 14 0
BBX 8 8 4 3
BITMAP
81
42
24
18
18
24
42
81
ENDCHAR
STARTCHAR 00D8
ENCODING 216
SWIDTH 720 0
DWIDTH 15 0
BBX 14 15 1 -1
BITMAP
03F4
0418
1818
302C
304C
608C
610C
6218
C418
C838
D030
6060
60C0
F300
8C00
ENDCHAR
STARTCHAR 00D9
ENCODING 217
SWIDTH 720 0
DWIDTH 15 0
BBX 15 18 2 0
BITMAP
00C0
0040
0040
0000
7C3E
3008
3008
3010
2010
6010
6020
6020
C020
C020
C040
C040
6080
3F00
ENDCHAR
STARTCHAR 00DA
ENCODING 218
SWIDTH 720 0
DWIDTH 15 0
BBX 15 18 2 0
BITMAP
00C0
0080
0100
0000
7C3E
3008
3008
3010
2010
6010
6020
6020
C020
C020
C040
C040
6080
3F00
ENDCHAR
STARTCHAR 00DB
ENCODING 219
SWIDTH 720 0
DWIDTH 15 0
BBX 15 18 2 0
BITMAP
00C0
0140
0220
0000
7C3E
3008
3008
3010
2010
6010
6020
6020
C020
C020
C040
C040
6080
3F00
ENDCHAR
STARTCHAR 00DC
ENCODING 220
SWIDTH 720 0
DWIDTH 15 0
BBX 15 17 2 0
BITMAP
0360
0220
0000
7C3E
3008
3008
3010
2010
6010
6020
6020
C020
C020
C040
C040
6080
3F00
ENDCHAR
STARTCHAR 00DD
ENCODING 221
SWIDTH 576 0
DWIDTH 12 0
BBX 12 18 2 0
BITMAP
0180
0300
0200
0000
F9F0
3040
3080
1100
1900
1A00
0C00
0C00
1800
1800
1800
3000
3000
7800
ENDCHAR
STARTCHAR 00DE
ENCODING 222
SWIDTH 624 0
DWIDTH 13 0
BBX 12 14 1 0
BITMAP
3F00
0C00
0800
1F80
1860
1060
3070
3060
3060
60C0
7F80
6000
4000
E000
ENDCHAR
STARTCHAR 00DF
ENCODING 223
SWIDTH 480 0
DWIDTH 10 0
BBX 13 18 -3 -4
BITMAP
00F8
0108
0108
0308
0210
0260
0620
0630
0410
0C30
0C30
0930
0B20
1940
1080
1000
3000
E000
ENDCHAR
STARTCHAR 00E0
ENCODING 224
SWIDTH 480 0
DWIDTH 10 0
BBX 9 14 1 0
BITMAP
0600
0200
0200
0000
0000
1D80
2300
4300
C300
C200
8600
8600
9F00
E600
ENDCHAR
STARTCHAR 00E1
ENCODING 225
SWIDTH 480 0
DWIDTH 10 0
BBX 9 14 1 0
BITMAP
0300
0600
0400
0000
0000
1D80
2300
4300
C300
C200
8600
8600
9F00
E600
ENDCHAR
STARTCHAR 00E2
ENCODING 226
SWIDTH 480 0
DWIDTH 10 0
BBX 9 14 1 0
BITMAP
0300
0500
0880
0000
0000
1D80
2300
4300
C300
C200
8600
8600
9F00
E600
ENDCHAR
STARTCHAR 00E3
ENCODING 227
SWIDTH 480 0
DWIDTH 10 0
BBX 9 14 1 0
BITMAP
0C00
1780
0300
0000
0000
1D80
2300
4300
C300
C200
8600
8600
9F00
E600
ENDCHAR
STARTCHAR 00E4
ENCODING 228
SWIDTH 480 0
DWIDTH 10 0
BBX 9 14 1 0
BITMAP
0880
1D80
0880
0000
0000
1D80
2300
4300
C300
C200
8600
8600
9F00
E600
ENDCHAR
STARTCHAR 00E5
ENCODING 229
SWIDTH 480 0
DWIDTH 10 0
BBX 9 14 1 0
BITMAP
0700
0900
0500
0200
0000
1D80
2300
4300
C300
C200
8600
8600
9F00
E600
ENDCHAR
STARTCHAR 00E6
ENCODING 230
SWIDTH 672 0
DWIDTH 14 0
BBX 14 9 0 0
BITMAP
0EB8
11CC
3188
6110
6160
4380
C700
CB10
71E0
ENDCHAR
STARTCHAR 00E7
ENCODING 231
SWIDTH 432 0
DWIDTH 9 0
BBX 8 13 1 -4
BITMAP
1F
23
42
C0
80
80
80
C6
F8
20
30
10
60
ENDCHAR
STARTCHAR 00E8
ENCODING 232
SWIDTH 432 0
DWIDTH 9 0
BBX 8 14 1 0
BITMAP
0C
04
02
00
00
1F
23
43
C6
D8
A0
80
C2
7C
ENDCHAR
STARTCHAR 00E9
ENCODING 233
SWIDTH 432 0
DWIDTH 9 0
BBX 8 14 1 0
BITMAP
06
04
08
00
00
1F
23
43
C6
D8
A0
80
C2
7C
ENDCHAR
STARTCHAR 00EA
ENCODING 234
SWIDTH 432 0
DWIDTH 9 0
BBX 8 14 1 0
BITMAP
07
0D
11
00
00
1F
23
43
C6
D8
A0
80
C2
7C
ENDCHAR
STARTCHAR 00EB
ENCODING 235
SWIDTH 432 0
DWIDTH 9 0
BBX 9 14 1 0
BITMAP
0900
1980
0100
0000
0000
1F00
2300
4300
C600
D800
A000
8000
C200
7C00
ENDCHAR
STARTCHAR 00EC
ENCODING 236
SWIDTH 288 0
DWIDTH 6 0
BBX 5 14 1 0
BITMAP
30
10
08
00
00
F0
20
60
60
40
40
C0
E0
C0
ENDCHAR
STARTCHAR 00ED
ENCODING 237
SWIDTH 288 0
DWIDTH 6 0
BBX 5 14 1 0
BITMAP
18
10
10
00
00
F0
20
60
60
40
40
C0
E0
C0
ENDCHAR
STARTCHAR 00EE
ENCODING 238
SWIDTH 288 0
DWIDTH 6 0
BBX 6 14 1 0
BITMAP
1C
24
44
00
00
F0
20
60
60
40
40
C0
E0
C0
ENDCHAR
STARTCHAR 00EF
ENCODING 239
SWIDTH 288 0
DWIDTH 6 0
BBX 7 14 1 0
BITMAP
44
6E
04
00
00
F0
20
60
60
40
40
C0
E0
C0
ENDCHAR
STARTCHAR 00F0
ENCODING 240
SWIDTH 480 0
DWIDTH 10 0
BBX 9 14 1 0
BITMAP
0480
0300
0E00
0100
0100
1F80
2180
4180
C180
C100
8300
8200
8600
7800
ENDCHAR
STARTCHAR 00F1
ENCODING 241
SWIDTH 480 0
DWIDTH 10 0
BBX 9 14 1 0
BITMAP
0C00
1780
0300
0000
0000
E700
2900
7300
6300
6200
C200
C600
8700
8600
ENDCHAR
STARTCHAR 00F2
ENCODING 242
SWIDTH 480 0
DWIDTH 10 0
BBX 9 14 1 0
BITMAP
0600
0200
0100
0000
0000
1F00
2100
6180
C180
C100
8300
8300
8600
7800
ENDCHAR
STARTCHAR 00F3
ENCODING 243
SWIDTH 480 0
DWIDTH 10 0
BBX 9 14 1 0
BITMAP
0300
0600
0400
0000
0000
1F00
2100
6180
C180
C100
8300
8300
8600
7800
ENDCHAR
STARTCHAR 00F4
ENCODING 244
SWIDTH 480 0
DWIDTH 10 0
BBX 9 14 1 0
BITMAP
0300
0500
0880
0000
0000
1F00
2100
6180
C180
C100
8300
8300
8600
7800
ENDCHAR
STARTCHAR 00F5
ENCODING 245
SWIDTH 480 0
DWIDTH 10 0
BBX 9 14 1 0
BITMAP
0C00
1780
0300
0000
0000
1F00
2100
6180
C180
C100
8300
8300
8600
7800
ENDCHAR
STARTCHAR 00F6
ENCODING 246
SWIDTH 480 0
DWIDTH 10 0
BBX 9 14 1 0
BITMAP
0880
1D80
0880
0000
0000
1F00
2100
6180
C180
C100
8300
8300
8600
7800
ENDCHAR
STARTCHAR 00F7
ENCODING 247
SWIDTH 528 0
DWIDTH 11 0
BBX 11 8 1 3
BITMAP
0C00
0C00
0000
0000
FFE0
0000
0000
0C00
ENDCHAR
STARTCHAR 00F8
ENCODING 248
SWIDTH 480 0
DWIDTH 10 0
BBX 10 11 0 -1
BITMAP
0040
0F80
1080
33C0
64C0
6480
4980
5180
6300
6400
9800
ENDCHAR
STARTCHAR 00F9
ENCODING 249
SWIDTH 480 0
DWIDTH 10 0
BBX 9 14 1 0
BITMAP
0C00
0400
0400
0000
0000
6180
A100
6300
6300
4200
CE00
CE00
D700
E600
ENDCHAR
STARTCHAR 00FA
ENCODING 250
SWIDTH 480 0
DWIDTH 10 0
BBX 9 14 1 0
BITMAP
0300
0600
0400
0000
0000
6180
A100
6300
6300
4200
CE00
CE00
D700
E600
ENDCHAR
STARTCHAR 00FB
ENCODING 251
SWIDTH 480 0
DWIDTH 10 0
BBX 9 14 1 0
BITMAP
0700
0D00
1100
0000
0000
6180
A100
6300
6300
4200
CE00
CE00
D700
E600
ENDCHAR
STARTCHAR 00FC
ENCODING 252
SWIDTH 480 0
DWIDTH 10 0
BBX 9 14 1 0
BITMAP
0900
1980
0800
0000
0000
6180
A100
6300
6300
4200
CE00
CE00
D700
E600
ENDCHAR
STARTCHAR 00FD
ENCODING 253
SWIDTH 432 0
DWIDTH 9 0
BBX 11 18 -2 -4
BITMAP
00C0
0080
0100
0000
0000
3C60
0C20
0420
0440
0440
0480
0500
0600
0600
0400
0800
1000
E000
ENDCHAR
STARTCHAR 00FE
ENCODING 254
SWIDTH 480 0
DWIDTH 10 0
BBX 11 18 -1 -4
BITMAP
0600
0600
0400
0C00
0C00
09C0
0E60
1860
1860
1040
30C0
3080
2180
3200
6C00
6000
4000
C000
ENDCHAR
STARTCHAR 00FF
ENCODING 255
SWIDTH 432 0
DWIDTH 9 0
BBX 11 18 -2 -4
BITMAP
0220
0360
0220
0000
0000
3C60
0C20
0420
0440
0440
0480
0500
0600
0600
0400
0800
1000
E000
ENDCHAR
STARTCHAR 0100
ENCODING 256
SWIDTH 624 0
DWIDTH 13 0
BBX 14 17 0 0
BITMAP
00FC
00FC
0000
0020
0060
00C0
00C0
0140
0240
04C0
04C0
08C0
17C0
20C0
20C0
40C0
C1C0
ENDCHAR
STARTCHAR 0101
ENCODING 257
SWIDTH 480 0
DWIDTH 10 0
BBX 9 13 1 0
BITMAP
1F80
1F80
0000
0000
1D80
2300
4300
C300
C200
8600
8600
9F00
E600
ENDCHAR
STARTCHAR 0102
ENCODING 258
SWIDTH 624 0
DWIDTH 13 0
BBX 14 18 0 0
BITMAP
0004
0058
0070
0000
0020
0060
00C0
00C0
0140
0240
04C0
04C0
08C0
17C0
20C0
20C0
40C0
C1C0
ENDCHAR
STARTCHAR 0103
ENCODING 259
SWIDTH 480 0
DWIDTH 10 0
BBX 9 14 1 0
BITMAP
1080
0F00
0400
0000
0000
1D80
2300
4300
C300
C200
8600
8600
9F00
E600
ENDCHAR
STARTCHAR 0104
ENCODING 260
SWIDTH 624 0
DWIDTH 13 0
BBX 11 18 0 -4
BITMAP
0020
0060
00C0
00C0
0140
0240
04C0
04C0
08C0
17C0
20C0
20C0
40C0
C1C0
0100
0100
0180
00E0
ENDCHAR
STARTCHAR 0105
ENCODING 261
SWIDTH 480 0
DWIDTH 10 0
BBX 9 13 1 -4
BITMAP
1D80
2300
4300
C300
C200
8600
8600
9F00
E600
0400
0400
0400
0780
ENDCHAR
STARTCHAR 0106
ENCODING 262
SWIDTH 672 0
DWIDTH 14 0
BBX 14 18 1 0
BITMAP
0060
0040
0080
0000
03F4
0C08
1808
3008
3000
6000
6000
6000
E000
E000
6000
6020
3020
1FC0
ENDCHAR
STARTCHAR 0107
ENCODING 263
SWIDTH 432 0
DWIDTH 9 0
BBX 8 14 1 0
BITMAP
06
04
04
00
00
1F
23
42
C0
80
80
80
C6
F8
ENDCHAR
STARTCHAR 0108
ENCODING 264
SWIDTH 672 0
DWIDTH 14 0
BBX 14 18 1 0
BITMAP
0060
00A0
0110
0000
03F4
0C08
1808
3008
3000
6000
6000
6000
E000
E000
6000
6020
3020
1FC0
ENDCHAR
STARTCHAR 0109
ENCODING 265
SWIDTH 432 0
DWIDTH 9 0
BBX 8 14 1 0
BITMAP
07
0D
11
00
00
1F
23
42
C0
80
80
80
C6
F8
ENDCHAR
STARTCHAR 010A
ENCODING 266
SWIDTH 672 0
DWIDTH 14 0
BBX 14 18 1 0
BITMAP
0040
00E0
0040
0000
03F4
0C08
1808
3008
3000
6000
6000
6000
E000
E000
6000
6020
3020
1FC0
ENDCHAR
STARTCHAR 010B
ENCODING 267
SWIDTH 432 0
DWIDTH 9 0
BBX 8 13 1 0
BITMAP
04
06
00
00
1F
23
42
C0
80
80
80
C6
F8
ENDCHAR
STARTCHAR 010C
ENCODING 268
SWIDTH 672 0
DWIDTH 14 0
BBX 14 18 1 0
BITMAP
0008
0090
00E0
0000
03F4
0C08
1808
3008
3000
6000
6000
6000
E000
E000
6000
6020
3020
1FC0
ENDCHAR
STARTCHAR 010D
ENCODING 269
SWIDTH 432 0
DWIDTH 9 0
BBX 9 14 1 0
BITMAP
0880
0500
0600
0000
0000
1F00
2300
4200
C000
8000
8000
8000
C600
F800
ENDCHAR
STARTCHAR 010E
ENCODING 270
SWIDTH 720 0
DWIDTH 15 0
BBX 15 18 0 0
BITMAP
0010
0120
01C0
0000
1FE0
0618
0C0C
0C0C
0C0E
0806
180E
180C
100C
300C
3018
3030
6060
FF80
ENDCHAR
STARTCHAR 010F
ENCODING 271
SWIDTH 624 0
DWIDTH 13 0
BBX 14 14 0 0
BITMAP
006C
0064
0044
0048
00C0
0FC0
1180
2180
6180
4100
4300
C700
CB80
7300
ENDCHAR
STARTCHAR 0110
ENCODING 272
SWIDTH 720 0
DWIDTH 15 0
BBX 14 14 1 0
BITMAP
3FC0
0C30
1818
1818
180C
100C
7F0C
301C
3018
6018
6030
6060
40C0
FF00
ENDCHAR
STARTCHAR 0111
ENCODING 273
SWIDTH 480 0
DWIDTH 10 0
BBX 12 14 0 0
BITMAP
0060
0060
07F0
0040
00C0
0FC0
1180
2180
6180
4100
4300
C700
CB80
7300
ENDCHAR
STARTCHAR 0112
ENCODING 274
SWIDTH 624 0
DWIDTH 13 0
BBX 12 17 1 0
BITMAP
07E0
07E0
0000
3FF0
0C30
0810
1800
1800
1080
3F00
3100
3100
6000
6000
6040
40C0
FF80
ENDCHAR
STARTCHAR 0113
ENCODING 275
SWIDTH 432 0
DWIDTH 9 0
BBX 9 13 1 0
BITMAP
1F80
3F80
0000
0000
1F00
2300
4300
C600
D800
A000
8000
C200
7C00
ENDCHAR
STARTCHAR 0114
ENCODING 276
SWIDTH 624 0
DWIDTH 13 0
BBX 12 18 1 0
BITMAP
0420
03E0
0180
0000
3FF0
0C30
0810
1800
1800
1080
3F00
3100
3100
6000
6000
6040
40C0
FF80
ENDCHAR
STARTCHAR 0115
ENCODING 277
SWIDTH 432 0
DWIDTH 9 0
BBX 9 14 1 0
BITMAP
1080
0F00
0600
0000
0000
1F00
2300
4300
C600
D800
A000
8000
C200
7C00
ENDCHAR
STARTCHAR 0116
ENCODING 278
SWIDTH 624 0
DWIDTH 13 0
BBX 12 17 1 1
BITMAP
0180
0100
0000
3FF0
0C30
0810
1800
1800
1080
3F00
3100
3100
6000
6000
6040
40C0
FF80
ENDCHAR
STARTCHAR 0117
ENCODING 279
SWIDTH 432 0
DWIDTH 9 0
BBX 8 14 1 0
BITMAP
04
06
00
00
00
1F
23
43
C6
D8
A0
80
C2
7C
ENDCHAR
STARTCHAR 0118
ENCODING 280
SWIDTH 624 0
DWIDTH 13 0
BBX 12 18 1 -4
BITMAP
3FF0
0C30
0810
1800
1800
1080
3F00
3100
3100
6000
6000
6040
40C0
FF80
0200
0600
0600
03C0
ENDCHAR
STARTCHAR 0119
ENCODING 281
SWIDTH 432 0
DWIDTH 9 0
BBX 8 13 1 -4
BITMAP
1F
23
43
C6
D8
A0
80
C2
7C
20
20
30
1C
ENDCHAR
STARTCHAR 011A
ENCODING 282
SWIDTH 624 0
DWIDTH 13 0
BBX 12 18 1 0
BITMAP
0020
0240
0380
0000
3FF0
0C30
0810
1800
1800
1080
3F00
3100
3100
6000
6000
6040
40C0
FF80
ENDCHAR
STARTCHAR 011B
ENCODING 283
SWIDTH 432 0
DWIDTH 9 0
BBX 9 14 1 0
BITMAP
0880
0500
0600
0000
0000
1F00
2300
4300
C600
D800
A000
8000
C200
7C00
ENDCHAR
STARTCHAR 011C
ENCODING 284
SWIDTH 720 0
DWIDTH 15 0
BBX 14 18 1 0
BITMAP
0070
00D0
0110
0000
03F4
0C0C
1808
3000
3000
6000
6000
607C
E030
6030
6020
6060
3060
1FC0
ENDCHAR
STARTCHAR 011D
ENCODING 285
SWIDTH 480 0
DWIDTH 10 0
BBX 12 18 -1 -4
BITMAP
00C0
0140
0640
0000
0000
0FF0
18C0
30C0
30C0
3080
1B00
0C00
1000
1F00
2780
40C0
C080
7F80
ENDCHAR
STARTCHAR 011E
ENCODING 286
SWIDTH 720 0
DWIDTH 15 0
BBX 14 17 1 1
BITMAP
0098
00E0
0000
03F4
0C0C
1808
3000
3000
6000
6000
607C
E030
6030
6020
6060
3060
1FC0
ENDCHAR
STARTCHAR 011F
ENCODING 287
SWIDTH 480 0
DWIDTH 10 0
BBX 12 18 -1 -4
BITMAP
0420
03C0
0100
0000
0000
0FF0
18C0
30C0
30C0
3080
1B00
0C00
1000
1F00
2780
40C0
C080
7F80
ENDCHAR
STARTCHAR 0120
ENCODING 288
SWIDTH 720 0
DWIDTH 15 0
BBX 14 17 1 1
BITMAP
0060
0040
0000
03F4
0C0C
1808
3000
3000
6000
6000
607C
E030
6030
6020
6060
3060
1FC0
ENDCHAR
STARTCHAR 0121
ENCODING 289
SWIDTH 480 0
DWIDTH 10 0
BBX 12 18 -1 -4
BITMAP
0100
0180
0100
0000
0000
0FF0
18C0
30C0
30C0
3080
1B00
0C00
1000
1F00
2780
40C0
C080
7F80
ENDCHAR
STARTCHAR 0122
ENCODING 290
SWIDTH 720 0
DWIDTH 15 0
BBX 14 18 1 -4
BITMAP
03F4
0C0C
1808
3000
3000
6000
6000
607C
E030
6030
6020
6060
3060
1DC0
0600
0600
0200
1C00
ENDCHAR
STARTCHAR 0123
ENCODING 291
SWIDTH 480 0
DWIDTH 10 0
BBX 12 19 -1 -4
BITMAP
0100
0200
0300
0200
0000
0000
0FF0
18C0
30C0
30C0
3080
1B00
0C00
1000
1F00
2780
40C0
C080
7F80
ENDCHAR
STARTCHAR 0124
ENCODING 292
SWIDTH 720 0
DWIDTH 15 0
BBX 17 18 0 0
BITMAP
003000
007800
008800
000000
1F9F80
060600
0C0400
0C0C00
0C0C00
080C00
1FF800
181800
181800
301000
303000
303000
603000
F07000
ENDCHAR
STARTCHAR 0125
ENCODING 293
SWIDTH 480 0
DWIDTH 10 0
BBX 10 18 1 0
BITMAP
0180
0280
0440
0000
1800
1800
1000
3000
3000
2700
2900
7300
6300
6200
C200
C600
8700
8600
ENDCHAR
STARTCHAR 0126
ENCODING 294
SWIDTH 720 0
DWIDTH 15 0
BBX 17 14 0 0
BITMAP
1F9F80
060600
1FFF00
0C0C00
0C0C00
080C00
1FF800
181800
181800
301000
303000
303000
603000
F07000
ENDCHAR
STARTCHAR 0127
ENCODING 295
SWIDTH 480 0
DWIDTH 10 0
BBX 8 14 1 0
BITMAP
18
18
7E
30
30
27
29
73
63
62
C2
C6
87
86
ENDCHAR
STARTCHAR 0128
ENCODING 296
SWIDTH 336 0
DWIDTH 7 0
BBX 10 18 0 0
BITMAP
0C40
1740
1380
0000
1F00
0600
0400
0C00
0C00
0800
1800
1800
1800
3000
3000
3000
2000
F000
ENDCHAR
STARTCHAR 0129
ENCODING 297
SWIDTH 288 0
DWIDTH 6 0
BBX 7 14 1 0
BITMAP
70
BE
0C
00
00
F0
20
60
60
40
40
C0
E0
C0
ENDCHAR
STARTCHAR 012A
ENCODING 298
SWIDTH 336 0
DWIDTH 7 0
BBX 10 17 0 0
BITMAP
0FC0
1F80
0000
1F00
0600
0400
0C00
0C00
0800
1800
1800
1800
3000
3000
3000
2000
F000
ENDCHAR
STARTCHAR 012B
ENCODING 299
SWIDTH 288 0
DWIDTH 6 0
BBX 7 13 1 0
BITMAP
7E
FC
00
00
F0
20
60
60
40
40
C0
E0
C0
ENDCHAR
STARTCHAR 012C
ENCODING 300
SWIDTH 336 0
DWIDTH 7 0
BBX 10 18 0 0
BITMAP
0840
0780
0700
0000
1F00
0600
0400
0C00
0C00
0800
1800
1800
1800
3000
3000
3000
2000
F000
ENDCHAR
STARTCHAR 012D
ENCODING 301
SWIDTH 288 0
DWIDTH 6 0
BBX 7 14 1 0
BITMAP
42
3C
10
00
00
F0
20
60
60
40
40
C0
E0
C0
ENDCHAR
STARTCHAR 012E
ENCODING 302
SWIDTH 336 0
DWIDTH 7 0
BBX 8 18 0 -4
BITMAP
1F
06
04
0C
0C
08
18
18
18
30
30
30
20
70
C0
40
60
38
ENDCHAR
STARTCHAR 012F
ENCODING 303
SWIDTH 288 0
DWIDTH 6 0
BBX 5 17 1 -4
BITMAP
18
10
00
00
F0
20
60
60
40
40
C0
E0
C0
80
80
80
F0
ENDCHAR
STARTCHAR 0130
ENCODING 304
SWIDTH 336 0
DWIDTH 7 0
BBX 8 17 0 1
BITMAP
03
03
00
1F
06
04
0C
0C
08
18
18
18
30
30
30
20
F0
ENDCHAR
STARTCHAR 0131
ENCODING 305
SWIDTH 288 0
DWIDTH 6 0
BBX 4 9 1 0
BITMAP
F0
20
60
60
40
40
C0
E0
C0
ENDCHAR
STARTCHAR 0132
ENCODING 306
SWIDTH 768 0
DWIDTH 16 0
BBX 17 14 0 0
BITMAP
1F0F80
060600
040600
0C0600
0C0400
080C00
180C00
180800
181800
301800
301800
363000
262000
F7C000
ENDCHAR
STARTCHAR 0133
ENCODING 307
SWIDTH 480 0
DWIDTH 10 0
BBX 9 17 1 -4
BITMAP
1180
1080
0000
0000
E700
2300
6300
6200
4200
C600
C600
A400
CC00
0C00
0800
1800
F000
ENDCHAR
STARTCHAR 0134
ENCODING 308
SWIDTH 432 0
DWIDTH 9 0
BBX 13 18 -1 0
BITMAP
0030
0050
0088
0000
01F0
00C0
00C0
00C0
0080
0180
0180
0180
0100
0300
0300
4200
C600
7800
ENDCHAR
STARTCHAR 0135
ENCODING 309
SWIDTH 288 0
DWIDTH 6 0
BBX 11 18 -4 -4
BITMAP
00C0
0160
0220
0000
0000
0780
0100
0100
0300
0300
0200
0600
0600
0400
0400
0C00
0800
F000
ENDCHAR
STARTCHAR 0136
ENCODING 310
SWIDTH 672 0
DWIDTH 14 0
BBX 15 18 0 -4
BITMAP
1F1E
0618
0C20
0C40
0C80
0B00
1E00
1B00
1B00
3180
3180
30C0
6060
70F0
8400
0600
0600
1C00
ENDCHAR
STARTCHAR 0137
ENCODING 311
SWIDTH 432 0
DWIDTH 9 0
BBX 9 18 0 -4
BITMAP
1C00
0800
0800
1800
1800
1180
3200
3400
2C00
3C00
6400
6400
4680
C700
2000
3800
1800
7000
ENDCHAR
STARTCHAR 0138
ENCODING 312
SWIDTH 432 0
DWIDTH 9 0
BBX 9 9 0 0
BITMAP
7180
3200
3400
2C00
7C00
6400
6400
4680
C700
ENDCHAR
STARTCHAR 0139
ENCODING 313
SWIDTH 576 0
DWIDTH 12 0
BBX 11 18 0 0
BITMAP
01C0
0100
0100
0000
1F80
0600
0C00
0C00
0C00
0800
1800
1800
1000
3000
3020
3040
6040
FFC0
ENDCHAR
STARTCHAR 013A
ENCODING 314
SWIDTH 288 0
DWIDTH 6 0
BBX 6 18 1 0
BITMAP
0C
08
10
00
18
18
10
10
30
20
20
60
60
40
40
C0
A0
C0
ENDCHAR
STARTCHAR 013B
ENCODING 315
SWIDTH 576 0
DWIDTH 12 0
BBX 11 18 0 -4
BITMAP
1F80
0600
0C00
0C00
0C00
0800
1800
1800
1000
3000
3020
3040
6040
7FC0
8800
1C00
0C00
3800
ENDCHAR
STARTCHAR 013C
ENCODING 316
SWIDTH 288 0
DWIDTH 6 0
BBX 7 18 -1 -4
BITMAP
06
06
04
04
0C
08
08
18
18
10
10
30
28
30
40
70
30
E0
ENDCHAR
STARTCHAR 013D
ENCODING 317
SWIDTH 576 0
DWIDTH 12 0
BBX 12 14 0 0
BITMAP
1F90
0610
0C10
0C20
0C00
0800
1800
1800
1000
3000
3020
3040
6040
FFC0
ENDCHAR
STARTCHAR 013E
ENCODING 318
SWIDTH 384 0
DWIDTH 8 0
BBX 8 14 1 0
BITMAP
1B
19
11
12
30
20
20
60
60
40
40
C0
A0
C0
ENDCHAR
STARTCHAR 013F
ENCODING 319
SWIDTH 576 0
DWIDTH 12 0
BBX 11 14 0 0
BITMAP
1F80
0600
0C00
0C00
0C00
0800
1980
1980
1000
3000
3020
3040
6040
FFC0
ENDCHAR
STARTCHAR 0140
ENCODING 320
SWIDTH 336 0
DWIDTH 7 0
BBX 7 14 1 0
BITMAP
18
18
10
10
30
20
26
66
60
40
40
C0
A0
C0
ENDCHAR
STARTCHAR 0141
ENCODING 321
SWIDTH 576 0
DWIDTH 12 0
BBX 11 14 0 0
BITMAP
1F80
0600
0C00
0C00
0D00
0A00
1C00
1800
7000
B000
3020
3040
6040
FFC0
ENDCHAR
STARTCHAR 0142
ENCODING 322
SWIDTH 288 0
DWIDTH 6 0
BBX 5 14 1 0
BITMAP
18
18
10
10
30
28
30
60
E0
40
40
C0
A0
C0
ENDCHAR
STARTCHAR 0143
ENCODING 323
SWIDTH 672 0
DWIDTH 14 0
BBX 16 18 0 0
BITMAP
0030
0060
0040
0000
3C1F
0404
0E08
0E08
0B08
1308
1110
1190
2190
20E0
20E0
2060
4060
E040
ENDCHAR
STARTCHAR 0144
ENCODING 324
SWIDTH 480 0
DWIDTH 10 0
BBX 8 14 1 0
BITMAP
03
06
04
00
00
E7
29
73
63
62
C2
C6
87
86
ENDCHAR
STARTCHAR 0145
ENCODING 325
SWIDTH 672 0
DWIDTH 14 0
BBX 16 18 0 -4
BITMAP
3C1F
0404
0E08
0E08
0B08
1308
1110
1190
2190
20E0
20E0
2060
4060
6040
8400
0600
0600
1C00
ENDCHAR
STARTCHAR 0146
ENCODING 326
SWIDTH 480 0
DWIDTH 10 0
BBX 8 13 1 -4
BITMAP
E7
29
73
63
62
C2
C6
87
86
20
30
10
E0
ENDCHAR
STARTCHAR 0147
ENCODING 327
SWIDTH 672 0
DWIDTH 14 0
BBX 16 18 0 0
BITMAP
0008
0090
00E0
0000
3C1F
0404
0E08
0E08
0B08
1308
1110
1190
2190
20E0
20E0
2060
4060
E040
ENDCHAR
STARTCHAR 0148
ENCODING 328
SWIDTH 480 0
DWIDTH 10 0
BBX 8 14 1 0
BITMAP
11
1A
0C
00
00
E7
29
73
63
62
C2
C6
87
86
ENDCHAR
STARTCHAR 0149
ENCODING 329
SWIDTH 576 0
DWIDTH 12 0
BBX 9 14 2 0
BITMAP
C000
4000
4000
8000
0000
7380
3580
2980
3100
6100
6300
4200
C280
C300
ENDCHAR
STARTCHAR 014A
ENCODING 330
SWIDTH 720 0
DWIDTH 15 0
BBX 14 14 0 0
BITMAP
1E78
068C
070C
0E0C
0C0C
0C0C
180C
180C
1808
3118
3398
3310
2220
F3C0
ENDCHAR
STARTCHAR 014B
ENCODING 331
SWIDTH 480 0
DWIDTH 10 0
BBX 8 13 1 -4
BITMAP
E7
29
73
63
62
C2
C6
86
84
0C
0C
08
F0
ENDCHAR
STARTCHAR 014C
ENCODING 332
SWIDTH 720 0
DWIDTH 15 0
BBX 14 17 1 0
BITMAP
01F8
01F8
0000
03F0
0418
1808
100C
300C
600C
600C
E018
C018
C038
C030
6060
60C0
3F00
ENDCHAR
STARTCHAR 014D
ENCODING 333
SWIDTH 480 0
DWIDTH 10 0
BBX 9 13 1 0
BITMAP
1F80
1F80
0000
0000
1F00
2100
6180
C180
C100
8300
8300
8600
7800
ENDCHAR
STARTCHAR 014E
ENCODING 334
SWIDTH 720 0
DWIDTH 15 0
BBX 14 18 1 0
BITMAP
0108
00F0
0060
0000
03F0
0418
1808
100C
300C
600C
600C
E018
C018
C038
C030
6060
60C0
3F00
ENDCHAR
STARTCHAR 014F
ENCODING 335
SWIDTH 480 0
DWIDTH 10 0
BBX 9 14 1 0
BITMAP
1080
0F00
0600
0000
0000
1F00
2100
6180
C180
C100
8300
8300
8600
7800
ENDCHAR
STARTCHAR 0150
ENCODING 336
SWIDTH 720 0
DWIDTH 15 0
BBX 14 18 1 0
BITMAP
007C
0090
0090
0000
03F0
0418
1808
100C
300C
600C
600C
E018
C018
C038
C030
6060
60C0
3F00
ENDCHAR
STARTCHAR 0151
ENCODING 337
SWIDTH 480 0
DWIDTH 10 0
BBX 10 14 1 0
BITMAP
06C0
0580
0900
0000
0000
1F00
2100
6180
C180
C100
8300
8300
8600
7800
ENDCHAR
STARTCHAR 0152
ENCODING 338
SWIDTH 960 0
DWIDTH 20 0
BBX 20 14 0 0
BITMAP
01FFF0
061C30
0C0810
181800
301800
701880
603F00
603100
603100
E02000
606000
606040
20E0C0
1FFF80
ENDCHAR
STARTCHAR 0153
ENCODING 339
SWIDTH 672 0
DWIDTH 14 0
BBX 12 9 1 0
BITMAP
1E70
2290
4310
C320
C2C0
8700
8600
8E30
FBC0
ENDCHAR
STARTCHAR 0154
ENCODING 340
SWIDTH 624 0
DWIDTH 13 0
BBX 11 18 1 0
BITMAP
0180
0100
0200
0000
3F80
0CC0
1860
1860
1860
10C0
3380
3E00
2300
6300
6300
6180
4180
E1C0
ENDCHAR
STARTCHAR 0155
ENCODING 341
SWIDTH 384 0
DWIDTH 8 0
BBX 7 14 1 0
BITMAP
06
0C
08
00
00
E6
2A
70
60
60
C0
C0
80
80
ENDCHAR
STARTCHAR 0156
ENCODING 342
SWIDTH 624 0
DWIDTH 13 0
BBX 11 18 1 -4
BITMAP
3F80
0CC0
1860
1860
1860
10C0
3380
3E00
2300
6300
6300
6180
4180
E1C0
1000
1800
0800
3000
ENDCHAR
STARTCHAR 0157
ENCODING 343
SWIDTH 384 0
DWIDTH 8 0
BBX 8 13 0 -4
BITMAP
73
15
38
30
30
60
60
40
40
20
70
30
E0
ENDCHAR
STARTCHAR 0158
ENCODING 344
SWIDTH 624 0
DWIDTH 13 0
BBX 11 18 1 0
BITMAP
0440
0480
0300
0000
3F80
0CC0
1860
1860
1860
10C0
3380
3E00
2300
6300
6300
6180
4180
E1C0
ENDCHAR
STARTCHAR 0159
ENCODING 345
SWIDTH 384 0
DWIDTH 8 0
BBX 7 14 1 0
BITMAP
22
14
18
00
00
E6
2A
70
60
60
C0
C0
80
80
ENDCHAR
STARTCHAR 015A
ENCODING 346
SWIDTH 480 0
DWIDTH 10 0
BBX 11 18 0 0
BITMAP
0180
0100
0200
0000
0FA0
1860
1820
1840
1800
0C00
0E00
0700
0380
4180
4180
4180
4180
FF00
ENDCHAR
STARTCHAR 015B
ENCODING 347
SWIDTH 384 0
DWIDTH 8 0
BBX 7 14 0 0
BITMAP
06
04
08
00
00
1E
22
30
38
18
0C
84
84
F8
ENDCHAR
STARTCHAR 015C
ENCODING 348
SWIDTH 480 0
DWIDTH 10 0
BBX 11 18 0 0
BITMAP
00C0
0140
0240
0000
0FA0
1860
1820
1840
1800
0C00
0E00
0700
0380
4180
4180
4180
4180
FF00
ENDCHAR
STARTCHAR 015D
ENCODING 349
SWIDTH 384 0
DWIDTH 8 0
BBX 8 14 0 0
BITMAP
07
0D
11
00
00
1E
22
30
38
18
0C
84
84
F8
ENDCHAR
STARTCHAR 015E
ENCODING 350
SWIDTH 480 0
DWIDTH 10 0
BBX 11 18 0 -4
BITMAP
0FA0
1860
1820
1840
1800
0C00
0E00
0700
0380
4180
4180
4180
4180
F300
0C00
0C00
0400
3800
ENDCHAR
STARTCHAR 015F
ENCODING 351
SWIDTH 384 0
DWIDTH 8 0
BBX 7 13 0 -4
BITMAP
1E
22
30
38
18
0C
84
84
C8
30
30
10
E0
ENDCHAR
STARTCHAR 0160
ENCODING 352
SWIDTH 480 0
DWIDTH 10 0
BBX 11 18 0 0
BITMAP
0220
0240
0180
0000
0FA0
1860
1820
1840
1800
0C00
0E00
0700
0380
4180
4180
4180
4180
FF00
ENDCHAR
STARTCHAR 0161
ENCODING 353
SWIDTH 384 0
DWIDTH 8 0
BBX 8 14 0 0
BITMAP
11
1A
0C
00
00
1E
22
30
38
18
0C
84
84
F8
ENDCHAR
STARTCHAR 0162
ENCODING 354
SWIDTH 576 0
DWIDTH 12 0
BBX 11 18 2 -5
BITMAP
7FE0
4620
8420
8C20
0C00
0C00
0800
1800
1800
1000
3000
3000
3000
7000
8800
6000
6000
4000
ENDCHAR
STARTCHAR 0163
ENCODING 355
SWIDTH 288 0
DWIDTH 6 0
BBX 5 15 1 -4
BITMAP
10
30
F8
20
60
60
40
40
C0
E0
E0
00
C0
80
80
ENDCHAR
STARTCHAR 0164
ENCODING 356
SWIDTH 576 0
DWIDTH 12 0
BBX 11 18 2 0
BITMAP
0440
0480
0300
0000
7FE0
4620
8420
8C20
0C00
0C00
0800
1800
1800
1000
3000
3000
3000
F800
ENDCHAR
STARTCHAR 0165
ENCODING 357
SWIDTH 384 0
DWIDTH 8 0
BBX 8 14 1 0
BITMAP
03
01
01
12
30
F8
20
60
60
40
C0
C0
E0
C0
ENDCHAR
STARTCHAR 0166
ENCODING 358
SWIDTH 576 0
DWIDTH 12 0
BBX 11 14 2 0
BITMAP
7FE0
4620
8420
8C20
0C00
0C00
FF80
1800
1800
1000
3000
3000
3000
F800
ENDCHAR
STARTCHAR 0167
ENCODING 359
SWIDTH 288 0
DWIDTH 6 0
BBX 5 11 1 1
BITMAP
10
30
F8
20
60
F0
40
C0
C0
A0
C0
ENDCHAR
STARTCHAR 0168
ENCODING 360
SWIDTH 720 0
DWIDTH 15 0
BBX 15 18 2 0
BITMAP
0180
03D0
0060
0000
7C3E
3008
3008
3010
2010
6010
6020
6020
C020
C020
C040
C040
6080
3F00
ENDCHAR
STARTCHAR 0169
ENCODING 361
SWIDTH 480 0
DWIDTH 10 0
BBX 9 14 1 0
BITMAP
0C00
1780
0300
0000
0000
6180
A100
6300
6300
4200
CE00
CE00
D700
E600
ENDCHAR
STARTCHAR 016A
ENCODING 362
SWIDTH 720 0
DWIDTH 15 0
BBX 15 17 2 0
BITMAP
03F0
03F0
0000
7C3E
3008
3008
3010
2010
6010
6020
6020
C020
C020
C040
C040
6080
3F00
ENDCHAR
STARTCHAR 016B
ENCODING 363
SWIDTH 480 0
DWIDTH 10 0
BBX 9 13 1 0
BITMAP
1F80
1F80
0000
0000
6180
A100
6300
6300
4200
CE00
CE00
D700
E600
ENDCHAR
STARTCHAR 016C
ENCODING 364
SWIDTH 720 0
DWIDTH 15 0
BBX 15 18 2 0
BITMAP
0210
01E0
00C0
0000
7C3E
3008
3008
3010
2010
6010
6020
6020
C020
C020
C040
C040
6080
3F00
ENDCHAR
STARTCHAR 016D
ENCODING 365
SWIDTH 480 0
DWIDTH 10 0
BBX 9 14 1 0
BITMAP
1080
0F00
0600
0000
0000
6180
A100
6300
6300
4200
CE00
CE00
D700
E600
ENDCHAR
STARTCHAR 016E
ENCODING 366
SWIDTH 720 0
DWIDTH 15 0
BBX 15 18 2 0
BITMAP
01C0
0120
0140
0080
7C3E
3008
3008
3010
2010
6010
6020
6020
C020
C020
C040
C040
6080
3F00
ENDCHAR
STARTCHAR 016F
ENCODING 367
SWIDTH 480 0
DWIDTH 10 0
BBX 9 14 1 0
BITMAP
0E00
1100
0A00
0400
0000
6180
A100
6300
6300
4200
CE00
CE00
D700
E600
ENDCHAR
STARTCHAR 0170
ENCODING 368
SWIDTH 720 0
DWIDTH 15 0
BBX 15 18 2 0
BITMAP
01B0
0120
0240
0000
7C3E
3008
3008
3010
2010
6010
6020
6020
C020
C020
C040
C040
6080
3F00
ENDCHAR
STARTCHAR 0171
ENCODING 369
SWIDTH 480 0
DWIDTH 10 0
BBX 9 14 1 0
BITMAP
0D80
0900
0900
0000
0000
6180
A100
6300
6300
4200
CE00
CE00
D700
E600
ENDCHAR
STARTCHAR 0172
ENCODING 370
SWIDTH 720 0
DWIDTH 15 0
BBX 15 18 2 -4
BITMAP
7C3E
3008
3008
3010
2010
6010
6020
6020
C020
C020
C040
C040
6080
3F00
0800
0800
0800
0700
ENDCHAR
STARTCHAR 0173
ENCODING 371
SWIDTH 480 0
DWIDTH 10 0
BBX 10 13 1 -4
BITMAP
6180
A100
6300
6300
4200
CE00
CE00
D700
E600
0200
0400
0600
03C0
ENDCHAR
STARTCHAR 0174
ENCODING 372
SWIDTH 816 0
DWIDTH 17 0
BBX 17 18 3 0
BITMAP
00E000
01A000
022000
000000
FFE780
618200
618400
638800
638800
459000
49A000
492000
D14000
E38000
E38000
C30000
830000
820000
ENDCHAR
STARTCHAR 0175
ENCODING 373
SWIDTH 672 0
DWIDTH 14 0
BBX 14 14 0 0
BITMAP
0060
00A0
0320
0000
0000
E08C
3184
3188
1288
1490
1490
18A0
10C0
1080
ENDCHAR
STARTCHAR 0176
ENCODING 374
SWIDTH 576 0
DWIDTH 12 0
BBX 12 18 2 0
BITMAP
0180
0280
0C80
0000
F9F0
3040
3080
1100
1900
1A00
0C00
0C00
1800
1800
1800
3000
3000
7800
ENDCHAR
STARTCHAR 0177
ENCODING 375
SWIDTH 432 0
DWIDTH 9 0
BBX 11 18 -2 -4
BITMAP
00C0
0160
0220
0000
0000
3C60
0C20
0420
0440
0440
0480
0500
0600
0600
0400
0800
1000
E000
ENDCHAR
STARTCHAR 0178
ENCODING 376
SWIDTH 576 0
DWIDTH 12 0
BBX 12 17 2 0
BITMAP
0DC0
0C80
0000
F9F0
3040
3080
1100
1900
1A00
0C00
0C00
1800
1800
1800
3000
3000
7800
ENDCHAR
STARTCHAR 0179
ENCODING 377
SWIDTH 576 0
DWIDTH 12 0
BBX 13 18 0 0
BITMAP
00C0
0080
0100
0000
1FF8
1030
2060
00C0
01C0
0180
0300
0600
0C00
1C00
1800
3020
6040
FFC0
ENDCHAR
STARTCHAR 017A
ENCODING 378
SWIDTH 384 0
DWIDTH 8 0
BBX 8 14 0 0
BITMAP
06
04
04
00
00
3F
42
04
08
10
20
42
82
FC
ENDCHAR
STARTCHAR 017B
ENCODING 379
SWIDTH 576 0
DWIDTH 12 0
BBX 13 17 0 0
BITMAP
0180
0080
0000
1FF8
1030
2060
00C0
01C0
0180
0300
0600
0C00
1C00
1800
3020
6040
FFC0
ENDCHAR
STARTCHAR 017C
ENCODING 380
SWIDTH 384 0
DWIDTH 8 0
BBX 8 14 0 0
BITMAP
04
0E
04
00
00
3F
42
04
08
10
20
42
82
FC
ENDCHAR
STARTCHAR 017D
ENCODING 381
SWIDTH 576 0
DWIDTH 12 0
BBX 13 18 0 0
BITMAP
0220
0240
0180
0000
1FF8
1030
2060
00C0
01C0
0180
0300
0600
0C00
1C00
1800
3020
6040
FFC0
ENDCHAR
STARTCHAR 017E
ENCODING 382
SWIDTH 384 0
DWIDTH 8 0
BBX 8 14 0 0
BITMAP
11
1A
0C
00
00
3F
42
04
08
10
20
42
82
FC
ENDCHAR
STARTCHAR 017F
ENCODING 383
SWIDTH 288 0
DWIDTH 6 0
BBX 14 18 -4 -4
BITMAP
003C
0040
00C0
0080
0180
0180
0100
0300
0300
0300
0200
0600
0600
0400
0400
0C00
0800
F000
ENDCHAR
STARTCHAR 018F
ENCODING 399
SWIDTH 672 0
DWIDTH 14 0
BBX 13 14 1 0
BITMAP
17E0
1830
1018
2018
0018
0018
0018
FFF8
C018
C018
C030
6060
60C0
3F80
ENDCHAR
STARTCHAR 0192
ENCODING 402
SWIDTH 480 0
DWIDTH 10 0
BBX 10 18 0 -4
BITMAP
01C0
0140
0200
0200
0600
1F80
0600
0400
0400
0C00
0C00
0800
0800
1800
1800
1000
9000
E000
ENDCHAR
STARTCHAR 01A0
ENCODING 416
SWIDTH 720 0
DWIDTH 15 0
BBX 16 14 1 0
BITMAP
03F3
0419
180E
100C
300C
600C
600C
E018
C018
C038
C030
6060
60C0
3F00
ENDCHAR
STARTCHAR 01A1
ENCODING 417
SWIDTH 528 0
DWIDTH 11 0
BBX 11 10 1 0
BITMAP
0060
1F60
21C0
6180
C180
C100
8300
8300
8600
7800
ENDCHAR
STARTCHAR 01AF
ENCODING 431
SWIDTH 768 0
DWIDTH 16 0
BBX 17 16 2 0
BITMAP
000180
000180
7C3E00
300800
300800
301000
201000
601000
602000
602000
C02000
C02000
C04000
C04000
608000
3F0000
ENDCHAR
STARTCHAR 01B0
ENCODING 432
SWIDTH 528 0
DWIDTH 11 0
BBX 11 9 1 0
BITMAP
61E0
A120
63C0
6300
4300
CE00
CE00
D700
E600
ENDCHAR
STARTCHAR 01CD
ENCODING 461
SWIDTH 624 0
DWIDTH 13 0
BBX 14 18 0 0
BITMAP
0044
0078
0030
0000
0020
0060
00C0
00C0
0140
0240
04C0
04C0
08C0
17C0
20C0
20C0
40C0
C1C0
ENDCHAR
STARTCHAR 01CE
ENCODING 462
SWIDTH 480 0
DWIDTH 10 0
BBX 9 14 1 0
BITMAP
0880
0500
0600
0000
0000
1D80
2300
4300
C300
C200
8600
8600
9F00
E600
ENDCHAR
STARTCHAR 01CF
ENCODING 463
SWIDTH 336 0
DWIDTH 7 0
BBX 9 18 0 0
BITMAP
0480
0500
0600
0000
1F00
0600
0400
0C00
0C00
0800
1800
1800
1800
3000
3000
3000
2000
F000
ENDCHAR
STARTCHAR 01D0
ENCODING 464
SWIDTH 288 0
DWIDTH 6 0
BBX 7 14 1 0
BITMAP
42
2C
38
00
00
F0
20
60
60
40
40
C0
E0
C0
ENDCHAR
STARTCHAR 01D1
ENCODING 465
SWIDTH 720 0
DWIDTH 15 0
BBX 14 18 1 0
BITMAP
0088
00F0
0060
0000
03F0
0418
1808
100C
300C
600C
600C
E018
C018
C038
C030
6060
60C0
3F00
ENDCHAR
STARTCHAR 01D2
ENCODING 466
SWIDTH 480 0
DWIDTH 10 0
BBX 9 14 1 0
BITMAP
0880
0500
0600
0000
0000
1F00
2100
6180
C180
C100
8300
8300
8600
7800
ENDCHAR
STARTCHAR 01D3
ENCODING 467
SWIDTH 720 0
DWIDTH 15 0
BBX 15 18 2 0
BITMAP
0220
0140
0180
0000
7C3E
3008
3008
3010
2010
6010
6020
6020
C020
C020
C040
C040
6080
3F00
ENDCHAR
STARTCHAR 01D4
ENCODING 468
SWIDTH 480 0
DWIDTH 10 0
BBX 9 14 1 0
BITMAP
0880
0900
0E00
0000
0000
6180
A100
6300
6300
4200
CE00
CE00
D700
E600
ENDCHAR
STARTCHAR 01D5
ENCODING 469
SWIDTH 720 0
DWIDTH 15 0
BBX 15 19 2 0
BITMAP
01F0
01F0
0000
0360
0000
7C3E
3008
3008
3010
2010
6010
6020
6020
C020
C020
C040
C040
6080
3F00
ENDCHAR
STARTCHAR 01D6
ENCODING 470
SWIDTH 480 0
DWIDTH 10 0
BBX 10 16 1 0
BITMAP
0FC0
1FC0
0000
1980
1980
0000
0000
6180
A100
6300
6300
4200
CE00
CE00
D700
E600
ENDCHAR
STARTCHAR 01D7
ENCODING 471
SWIDTH 720 0
DWIDTH 15 0
BBX 15 19 2 0
BITMAP
0060
0080
0000
0360
0000
7C3E
3008
3008
3010
2010
6010
6020
6020
C020
C020
C040
C040
6080
3F00
ENDCHAR
STARTCHAR 01D8
ENCODING 472
SWIDTH 480 0
DWIDTH 10 0
BBX 9 17 1 0
BITMAP
0300
0300
0200
0000
1980
1980
0000
0000
6180
A100
6300
6300
4200
CE00
CE00
D700
E600
ENDCHAR
STARTCHAR 01D9
ENCODING 473
SWIDTH 720 0
DWIDTH 15 0
BBX 15 19 2 0
BITMAP
0100
00E0
0000
0360
0000
7C3E
3008
3008
3010
2010
6010
6020
6020
C020
C020
C040
C040
6080
3F00
ENDCHAR
STARTCHAR 01DA
ENCODING 474
SWIDTH 480 0
DWIDTH 10 0
BBX 10 17 1 0
BITMAP
0040
0480
0700
0000
1980
1980
0000
0000
6180
A100
6300
6300
4200
CE00
CE00
D700
E600
ENDCHAR
STARTCHAR 01DB
ENCODING 475
SWIDTH 720 0
DWIDTH 15 0
BBX 15 19 2 0
BITMAP
0180
0080
0000
0360
0000
7C3E
3008
3008
3010
2010
6010
6020
6020
C020
C020
C040
C040
6080
3F00
ENDCHAR
STARTCHAR 01DC
ENCODING 476
SWIDTH 480 0
DWIDTH 10 0
BBX 9 17 1 0
BITMAP
0C00
0400
0200
0000
1980
1980
0000
0000
6180
A100
6300
6300
4200
CE00
CE00
D700
E600
ENDCHAR
STARTCHAR 01FA
ENCODING 506
SWIDTH 624 0
DWIDTH 13 0
BBX 14 21 0 0
BITMAP
000C
0018
0010
0020
0050
0088
0050
0020
0060
00C0
00C0
0140
0240
04C0
04C0
08C0
17C0
20C0
20C0
40C0
C1C0
ENDCHAR
STARTCHAR 01FB
ENCODING 507
SWIDTH 480 0
DWIDTH 10 0
BBX 10 19 1 0
BITMAP
01C0
0180
0100
0000
0000
0700
0900
0500
0200
0000
1D80
2300
4300
C300
C200
8600
8600
9F00
E600
ENDCHAR
STARTCHAR 01FC
ENCODING 508
SWIDTH 912 0
DWIDTH 19 0
BBX 19 18 0 0
BITMAP
000600
000400
000400
000000
007FE0
003860
005040
00B000
013100
023100
023E00
046200
0FE200
104000
20C000
20C080
40C100
C1FF00
ENDCHAR
STARTCHAR 01FD
ENCODING 509
SWIDTH 672 0
DWIDTH 14 0
BBX 14 14 0 0
BITMAP
0060
00C0
0080
0000
0000
0EB8
11CC
3188
6110
6160
4380
C700
CB10
71E0
ENDCHAR
STARTCHAR 01FE
ENCODING 510
SWIDTH 720 0
DWIDTH 15 0
BBX 14 19 1 -1
BITMAP
0060
0040
0040
0000
03F4
0418
1818
302C
304C
608C
610C
6218
C418
C838
D030
6060
60C0
F300
8C00
ENDCHAR
STARTCHAR 01FF
ENCODING 511
SWIDTH 480 0
DWIDTH 10 0
BBX 10 15 0 -1
BITMAP
0180
0300
0200
0000
0040
0F80
1080
33C0
64C0
6480
4980
5180
6300
6400
9800
ENDCHAR
STARTCHAR 0218
ENCODING 536
SWIDTH 480 0
DWIDTH 10 0
BBX 11 18 0 -5
BITMAP
0FA0
1860
1820
1840
1800
0C00
0E00
0700
0380
4180
4180
4180
4180
F300
0C00
0C00
0800
0800
ENDCHAR
STARTCHAR 0219
ENCODING 537
SWIDTH 384 0
DWIDTH 8 0
BBX 7 13 0 -5
BITMAP
1E
22
30
38
18
0C
84
84
C8
30
30
30
20
ENDCHAR
STARTCHAR 021A
ENCODING 538
SWIDTH 576 0
DWIDTH 12 0
BBX 11 18 2 -5
BITMAP
7FE0
4620
8420
8C20
0C00
0C00
0800
1800
1800
1000
3000
3000
3000
7000
8800
6000
6000
4000
ENDCHAR
STARTCHAR 021B
ENCODING 539
SWIDTH 288 0
DWIDTH 6 0
BBX 6 15 0 -4
BITMAP
08
18
7C
10
30
30
20
60
60
50
60
00
C0
40
40
ENDCHAR
STARTCHAR 0259
ENCODING 601
SWIDTH 432 0
DWIDTH 9 0
BBX 9 9 0 0
BITMAP
1F00
2300
4180
0180
0F00
3300
4200
C400
F800
ENDCHAR
STARTCHAR 02C6
ENCODING 710
SWIDTH 336 0
DWIDTH 7 0
BBX 5 3 3 11
BITMAP
30
58
88
ENDCHAR
STARTCHAR 02C7
ENCODING 711
SWIDTH 336 0
DWIDTH 7 0
BBX 5 3 3 11
BITMAP
88
50
60
ENDCHAR
STARTCHAR 02C9
ENCODING 713
SWIDTH 336 0
DWIDTH 7 0
BBX 6 2 3 12
BITMAP
FC
FC
ENDCHAR
STARTCHAR 02D8
ENCODING 728
SWIDTH 336 0
DWIDTH 7 0
BBX 5 3 3 11
BITMAP
88
F8
60
ENDCHAR
STARTCHAR 02D9
ENCODING 729
SWIDTH 336 0
DWIDTH 7 0
BBX 2 3 5 11
BITMAP
80
C0
80
ENDCHAR
STARTCHAR 02DA
ENCODING 730
SWIDTH 336 0
DWIDTH 7 0
BBX 4 3 4 11
BITMAP
E0
90
E0
ENDCHAR
STARTCHAR 02DB
ENCODING 731
SWIDTH 336 0
DWIDTH 7 0
BBX 4 4 1 -4
BITMAP
80
80
C0
70
ENDCHAR
STARTCHAR 02DC
ENCODING 732
SWIDTH 336 0
DWIDTH 7 0
BBX 6 3 2 11
BITMAP
60
BC
1C
ENDCHAR
STARTCHAR 02DD
ENCODING 733
SWIDTH 336 0
DWIDTH 7 0
BBX 6 3 3 11
BITMAP
6C
48
90
ENDCHAR
STARTCHAR 0300
ENCODING 768
SWIDTH 0 0
DWIDTH 0 0
BBX 3 4 -2 15
BITMAP
C0
40
60
20
ENDCHAR
STARTCHAR 0301
ENCODING 769
SWIDTH 0 0
DWIDTH 0 0
BBX 3 4 -1 15
BITMAP
60
40
C0
80
ENDCHAR
STARTCHAR 0303
ENCODING 771
SWIDTH 0 0
DWIDTH 0 0
BBX 6 3 -5 15
BITMAP
60
F4
18
ENDCHAR
STARTCHAR 0309
ENCODING 777
SWIDTH 0 0
DWIDTH 0 0
BBX 3 4 -1 15
BITMAP
40
A0
40
80
ENDCHAR
STARTCHAR 0323
ENCODING 803
SWIDTH 0 0
DWIDTH 0 0
BBX 2 2 -10 -3
BITMAP
40
C0
ENDCHAR
STARTCHAR 037E
ENCODING 894
SWIDTH 336 0
DWIDTH 7 0
BBX 5 12 0 -3
BITMAP
18
08
00
00
00
00
00
20
60
20
40
80
ENDCHAR
STARTCHAR 0384
ENCODING 900
SWIDTH 336 0
DWIDTH 7 0
BBX 3 3 4 11
BITMAP
60
40
80
ENDCHAR
STARTCHAR 0385
ENCODING 901
SWIDTH 336 0
DWIDTH 7 0
BBX 7 3 2 11
BITMAP
18
D6
E6
ENDCHAR
STARTCHAR 0386
ENCODING 902
SWIDTH 624 0
DWIDTH 13 0
BBX 11 14 0 0
BITMAP
0620
0460
08C0
00C0
0140
0240
04C0
04C0
08C0
17C0
20C0
20C0
40C0
C1C0
ENDCHAR
STARTCHAR 0387
ENCODING 903
SWIDTH 336 0
DWIDTH 7 0
BBX 2 2 3 7
BITMAP
C0
40
ENDCHAR
STARTCHAR 0388
ENCODING 904
SWIDTH 672 0
DWIDTH 14 0
BBX 14 14 1 0
BITMAP
6FFC
C608
8608
0408
0C00
0C40
0FC0
1880
1800
1800
1010
3020
3020
7FE0
ENDCHAR
STARTCHAR 0389
ENCODING 905
SWIDTH 816 0
DWIDTH 17 0
BBX 17 14 1 0
BITMAP
6F8F80
C60600
860600
040600
0C0400
0C0C00
0FFC00
180800
181800
181800
101800
303000
303000
707800
ENDCHAR
STARTCHAR 038A
ENCODING 906
SWIDTH 384 0
DWIDTH 8 0
BBX 9 14 1 0
BITMAP
6F80
C600
8600
0400
0C00
0C00
0C00
1800
1800
1800
1000
3000
3000
7800
ENDCHAR
STARTCHAR 038C
ENCODING 908
SWIDTH 720 0
DWIDTH 15 0
BBX 14 14 1 0
BITMAP
63F0
4418
9808
100C
300C
600C
600C
E018
C018
C038
C030
6060
60C0
3F00
ENDCHAR
STARTCHAR 038E
ENCODING 910
SWIDTH 672 0
DWIDTH 14 0
BBX 15 14 1 0
BITMAP
6F9E
C608
8610
0210
0320
0340
0180
0180
0100
0300
0300
0200
0600
0F00
ENDCHAR
STARTCHAR 038F
ENCODING 911
SWIDTH 720 0
DWIDTH 15 0
BBX 15 14 0 0
BITMAP
31F8
660C
4C06
1806
1806
3006
3006
300C
300C
1818
0C60
0488
7CF8
FDF8
ENDCHAR
STARTCHAR 0390
ENCODING 912
SWIDTH 288 0
DWIDTH 6 0
BBX 7 14 1 0
BITMAP
18
D6
E6
00
00
F0
20
60
60
40
40
C0
E0
C0
ENDCHAR
STARTCHAR 0391
ENCODING 913
SWIDTH 624 0
DWIDTH 13 0
BBX 11 14 0 0
BITMAP
0020
0060
00C0
00C0
0140
0240
04C0
04C0
08C0
17C0
20C0
20C0
40C0
C1C0
ENDCHAR
STARTCHAR 0392
ENCODING 914
SWIDTH 624 0
DWIDTH 13 0
BBX 11 14 1 0
BITMAP
3F80
0C60
0860
1860
1860
10C0
3F00
3180
20C0
60C0
60C0
61C0
4380
FE00
ENDCHAR
STARTCHAR 0393
ENCODING 915
SWIDTH 576 0
DWIDTH 12 0
BBX 14 14 0 0
BITMAP
1FFC
0608
0408
0C08
0C00
0800
1800
1800
1800
3000
3000
3000
6000
F000
ENDCHAR
STARTCHAR 0394
ENCODING 916
SWIDTH 576 0
DWIDTH 12 0
BBX 12 14 -1 0
BITMAP
0010
0030
0060
00A0
00A0
0120
0260
0460
0860
0860
1060
2060
4060
FFE0
ENDCHAR
STARTCHAR 0395
ENCODING 917
SWIDTH 624 0
DWIDTH 13 0
BBX 12 14 1 0
BITMAP
3FF0
0C30
0810
1800
1800
1080
3F00
3100
3100
6000
6000
6040
40C0
FF80
ENDCHAR
STARTCHAR 0396
ENCODING 918
SWIDTH 576 0
DWIDTH 12 0
BBX 13 14 0 0
BITMAP
1FF8
1030
2060
00C0
01C0
0180
0300
0600
0C00
1C00
1800
3020
6040
FFC0
ENDCHAR
STARTCHAR 0397
ENCODING 919
SWIDTH 720 0
DWIDTH 15 0
BBX 17 14 0 0
BITMAP
1F9F80
060600
0C0400
0C0C00
0C0C00
080C00
1FF800
181800
181800
301000
303000
303000
603000
F07000
ENDCHAR
STARTCHAR 0398
ENCODING 920
SWIDTH 720 0
DWIDTH 15 0
BBX 14 14 1 0
BITMAP
03F0
0418
180C
100C
300C
640C
67CC
6FD8
C898
C018
C030
6060
60C0
3F80
ENDCHAR
STARTCHAR 0399
ENCODING 921
SWIDTH 336 0
DWIDTH 7 0
BBX 8 14 0 0
BITMAP
1F
06
04
0C
0C
08
18
18
18
30
30
30
20
F0
ENDCHAR
STARTCHAR 039A
ENCODING 922
SWIDTH 672 0
DWIDTH 14 0
BBX 15 14 0 0
BITMAP
1F1E
0618
0C20
0C40
0C80
0B00
1E00
1B00
1B00
3180
3180
30C0
6060
F0F0
ENDCHAR
STARTCHAR 039B
ENCODING 923
SWIDTH 624 0
DWIDTH 13 0
BBX 11 14 0 0
BITMAP
0020
0060
00C0
00C0
0140
02C0
04C0
04C0
08C0
10C0
20C0
20C0
40C0
C1C0
ENDCHAR
STARTCHAR 039C
ENCODING 924
SWIDTH 816 0
DWIDTH 17 0
BBX 19 14 0 0
BITMAP
1E00E0
060180
0E0380
0E0580
0E0700
160B00
121300
121200
232600
234600
238400
238C00
430C00
E21E00
ENDCHAR
STARTCHAR 039D
ENCODING 925
SWIDTH 672 0
DWIDTH 14 0
BBX 16 14 0 0
BITMAP
3C1F
0404
0E08
0E08
0B08
1308
1110
1190
2190
20E0
20E0
2060
4060
E040
ENDCHAR
STARTCHAR 039E
ENCODING 926
SWIDTH 624 0
DWIDTH 13 0
BBX 14 14 0 0
BITMAP
0FFC
0FFC
1004
1000
0000
0020
0FC0
0FC0
0040
0000
0010
8020
FFE0
FFE0
ENDCHAR
STARTCHAR 039F
ENCODING 927
SWIDTH 720 0
DWIDTH 15 0
BBX 14 14 1 0
BITMAP
03F0
0418
1808
100C
300C
600C
600C
E018
C018
C038
C030
6060
60C0
3F00
ENDCHAR
STARTCHAR 03A0
ENCODING 928
SWIDTH 720 0
DWIDTH 15 0
BBX 17 14 0 0
BITMAP
1FFF80
060600
040400
0C0C00
0C0C00
080C00
181800
181800
181800
301000
303000
303000
703000
F07000
ENDCHAR
STARTCHAR 03A1
ENCODING 929
SWIDTH 624 0
DWIDTH 13 0
BBX 12 14 1 0
BITMAP
3FC0
0C60
0830
1830
1830
1060
30C0
3F00
3000
2000
6000
6000
6000
E000
ENDCHAR
STARTCHAR 03A3
ENCODING 931
SWIDTH 576 0
DWIDTH 12 0
BBX 15 14 -1 0
BITMAP
0FFE
0604
0600
0300
0300
0180
0180
0100
0200
0400
0800
1010
7FE0
FFE0
ENDCHAR
STARTCHAR 03A4
ENCODING 932
SWIDTH 576 0
DWIDTH 12 0
BBX 11 14 2 0
BITMAP
7FE0
4620
8420
8C20
0C00
0C00
0800
1800
1800
1000
3000
3000
3000
F800
ENDCHAR
STARTCHAR 03A5
ENCODING 933
SWIDTH 576 0
DWIDTH 12 0
BBX 12 14 2 0
BITMAP
F9F0
3040
3080
1100
1900
1A00
0C00
0C00
1800
1800
1800
3000
3000
7800
ENDCHAR
STARTCHAR 03A6
ENCODING 934
SWIDTH 768 0
DWIDTH 16 0
BBX 14 14 2 0
BITMAP
03F0
0180
0180
1FF0
6318
C308
C30C
C618
C618
C630
6660
1F80
0C00
1E00
ENDCHAR
STARTCHAR 03A7
ENCODING 935
SWIDTH 624 0
DWIDTH 13 0
BBX 16 14 -1 0
BITMAP
0F8F
0304
0308
0310
0120
01C0
0180
0180
02C0
04C0
08C0
1040
2060
F0F0
ENDCHAR
STARTCHAR 03A8
ENCODING 936
SWIDTH 720 0
DWIDTH 15 0
BBX 13 14 3 0
BITMAP
CFC8
4610
4630
C630
C460
CC60
CC40
4D80
3E00
1800
1800
1000
3000
7800
ENDCHAR
STARTCHAR 03A9
ENCODING 937
SWIDTH 720 0
DWIDTH 15 0
BBX 15 14 0 0
BITMAP
01F8
060C
0C06
1806
3806
3006
3006
300C
300C
1818
0C60
0588
7CF8
F9F8
ENDCHAR
STARTCHAR 03AA
ENCODING 938
SWIDTH 336 0
DWIDTH 7 0
BBX 9 17 0 0
BITMAP
0D80
0980
0000
1F00
0600
0400
0C00
0C00
0800
1800
1800
1800
3000
3000
3000
2000
F000
ENDCHAR
STARTCHAR 03AB
ENCODING 939
SWIDTH 576 0
DWIDTH 12 0
BBX 12 17 2 0
BITMAP
0DC0
0C80
0000
F9F0
3040
3080
1100
1900
1A00
0C00
0C00
1800
1800
1800
3000
3000
7800
ENDCHAR
STARTCHAR 03AC
ENCODING 940
SWIDTH 528 0
DWIDTH 11 0
BBX 9 14 1 0
BITMAP
0300
0200
0400
0000
0000
1C80
6380
6300
C300
C200
8600
8600
8D80
7980
ENDCHAR
STARTCHAR 03AD
ENCODING 941
SWIDTH 384 0
DWIDTH 8 0
BBX 8 14 0 0
BITMAP
06
04
08
00
00
1E
21
20
20
3C
40
C2
C6
7C
ENDCHAR
STARTCHAR 03AE
ENCODING 942
SWIDTH 480 0
DWIDTH 10 0
BBX 8 18 1 -4
BITMAP
03
06
04
00
00
63
AD
71
73
63
42
C2
C6
86
04
0C
0C
0C
ENDCHAR
STARTCHAR 03AF
ENCODING 943
SWIDTH 288 0
DWIDTH 6 0
BBX 5 14 1 0
BITMAP
18
10
10
00
00
F0
20
60
60
40
40
C0
E0
C0
ENDCHAR
STARTCHAR 03B0
ENCODING 944
SWIDTH 480 0
DWIDTH 10 0
BBX 9 14 1 0
BITMAP
0600
3580
3980
0000
0000
6200
E200
6100
6100
4300
C200
C200
C400
7800
ENDCHAR
STARTCHAR 03B1
ENCODING 945
SWIDTH 528 0
DWIDTH 11 0
BBX 9 9 1 0
BITMAP
1C80
6380
6300
C300
C200
8600
8600
8D80
7980
ENDCHAR
STARTCHAR 03B2
ENCODING 946
SWIDTH 480 0
DWIDTH 10 0
BBX 12 18 -1 -4
BITMAP
03E0
0630
0430
0C20
0C60
0A80
1980
1840
1040
1040
30C0
30C0
2180
7300
6C00
4000
4000
C000
ENDCHAR
STARTCHAR 03B3
ENCODING 947
SWIDTH 384 0
DWIDTH 8 0
BBX 8 13 0 -4
BITMAP
63
93
93
12
12
14
18
18
10
10
20
60
60
ENDCHAR
STARTCHAR 03B4
ENCODING 948
SWIDTH 480 0
DWIDTH 10 0
BBX 9 14 0 0
BITMAP
0F80
0880
0400
0600
0300
0380
1D80
3180
6180
6180
4100
C300
4200
7C00
ENDCHAR
STARTCHAR 03B5
ENCODING 949
SWIDTH 384 0
DWIDTH 8 0
BBX 8 9 0 0
BITMAP
1E
21
20
20
3C
40
C2
C6
7C
ENDCHAR
STARTCHAR 03B6
ENCODING 950
SWIDTH 384 0
DWIDTH 8 0
BBX 11 17 0 -3
BITMAP
0860
09C0
0600
0800
1000
1000
2000
4000
4000
4000
4000
C000
6000
7E00
0200
0200
1C00
ENDCHAR
STARTCHAR 03B7
ENCODING 951
SWIDTH 480 0
DWIDTH 10 0
BBX 8 13 1 -4
BITMAP
63
AD
71
73
63
42
C2
C6
86
04
0C
0C
0C
ENDCHAR
STARTCHAR 03B8
ENCODING 952
SWIDTH 480 0
DWIDTH 10 0
BBX 10 14 1 0
BITMAP
0F80
1880
10C0
30C0
60C0
6080
7F80
C180
C100
C300
8300
8600
8400
7800
ENDCHAR
STARTCHAR 03B9
ENCODING 953
SWIDTH 288 0
DWIDTH 6 0
BBX 4 9 1 0
BITMAP
F0
20
60
60
40
40
C0
E0
C0
ENDCHAR
STARTCHAR 03BA
ENCODING 954
SWIDTH 480 0
DWIDTH 10 0
BBX 10 9 0 0
BITMAP
70C0
1100
3200
3C00
3C00
6400
6600
4680
C300
ENDCHAR
STARTCHAR 03BB
ENCODING 955
SWIDTH 432 0
DWIDTH 9 0
BBX 8 14 0 0
BITMAP
0C
14
04
04
04
04
04
0C
1C
34
34
64
C5
83
ENDCHAR
STARTCHAR 03BC
ENCODING 956
SWIDTH 480 0
DWIDTH 10 0
BBX 11 13 -1 -4
BITMAP
0860
0840
18C0
10C0
1080
3080
3180
23A0
7DC0
4000
4000
C000
C000
ENDCHAR
STARTCHAR 03BD
ENCODING 957
SWIDTH 432 0
DWIDTH 9 0
BBX 9 9 0 0
BITMAP
F180
3080
3080
1100
1100
1200
1C00
1800
1000
ENDCHAR
STARTCHAR 03BE
ENCODING 958
SWIDTH 432 0
DWIDTH 9 0
BBX 10 17 0 -3
BITMAP
08C0
0980
0600
0800
0980
0780
1800
2000
4000
4000
8000
C000
6000
7E00
0200
0200
1E00
ENDCHAR
STARTCHAR 03BF
ENCODING 959
SWIDTH 480 0
DWIDTH 10 0
BBX 9 9 1 0
BITMAP
1F00
2100
6180
C180
C100
8300
8300
8600
7800
ENDCHAR
STARTCHAR 03C0
ENCODING 960
SWIDTH 480 0
DWIDTH 10 0
BBX 10 9 1 0
BITMAP
7FC0
D200
1200
2600
2400
6400
4C00
CD00
C700
ENDCHAR
STARTCHAR 03C1
ENCODING 961
SWIDTH 480 0
DWIDTH 10 0
BBX 10 13 -1 -4
BITMAP
0780
08C0
1840
10C0
30C0
30C0
2180
2180
7200
6C00
4000
C000
C000
ENDCHAR
STARTCHAR 03C2
ENCODING 962
SWIDTH 384 0
DWIDTH 8 0
BBX 8 12 1 -3
BITMAP
3E
43
80
80
80
80
80
F0
7C
04
08
78
ENDCHAR
STARTCHAR 03C3
ENCODING 963
SWIDTH 480 0
DWIDTH 10 0
BBX 10 9 1 0
BITMAP
1FC0
3C00
6200
C300
C300
8300
8600
8400
F800
ENDCHAR
STARTCHAR 03C4
ENCODING 964
SWIDTH 336 0
DWIDTH 7 0
BBX 7 9 1 0
BITMAP
7E
D0
30
30
20
20
60
68
70
ENDCHAR
STARTCHAR 03C5
ENCODING 965
SWIDTH 480 0
DWIDTH 10 0
BBX 8 9 1 0
BITMAP
62
E2
61
61
43
C2
C2
C4
78
ENDCHAR
STARTCHAR 03C6
ENCODING 966
SWIDTH 576 0
DWIDTH 12 0
BBX 10 13 1 -4
BITMAP
1380
64C0
44C0
C4C0
C880
8880
8980
9100
5600
3800
2000
2000
2000
ENDCHAR
STARTCHAR 03C7
ENCODING 967
SWIDTH 432 0
DWIDTH 9 0
BBX 10 13 -1 -4
BITMAP
3840
08C0
0980
0B00
0A00
0600
0C00
1800
1400
3400
6400
4480
C300
ENDCHAR
STARTCHAR 03C8
ENCODING 968
SWIDTH 624 0
DWIDTH 13 0
BBX 12 13 1 -4
BITMAP
6230
6260
6460
6460
44C0
C4C0
C880
4980
2A00
1400
1000
1000
2000
ENDCHAR
STARTCHAR 03C9
ENCODING 969
SWIDTH 720 0
DWIDTH 15 0
BBX 13 9 1 0
BITMAP
1820
6110
6318
C218
C618
8410
8430
8C20
73C0
ENDCHAR
STARTCHAR 03CA
ENCODING 970
SWIDTH 288 0
DWIDTH 6 0
BBX 7 14 1 0
BITMAP
44
6E
04
00
00
F0
20
60
60
40
40
C0
E0
C0
ENDCHAR
STARTCHAR 03CB
ENCODING 971
SWIDTH 480 0
DWIDTH 10 0
BBX 8 14 1 0
BITMAP
22
37
02
00
00
62
E2
61
61
43
C2
C2
C4
78
ENDCHAR
STARTCHAR 03CC
ENCODING 972
SWIDTH 480 0
DWIDTH 10 0
BBX 9 14 1 0
BITMAP
0300
0600
0400
0000
0000
1F00
2100
6180
C180
C100
8300
8300
8600
7800
ENDCHAR
STARTCHAR 03CD
ENCODING 973
SWIDTH 480 0
DWIDTH 10 0
BBX 8 14 1 0
BITMAP
0E
08
08
00
00
62
E2
61
61
43
C2
C2
C4
78
ENDCHAR
STARTCHAR 03CE
ENCODING 974
SWIDTH 720 0
DWIDTH 15 0
BBX 13 14 1 0
BITMAP
00C0
0080
0100
0000
0000
1820
6110
6318
C218
C618
8410
8430
8C20
73C0
ENDCHAR
STARTCHAR 0401
ENCODING 1025
SWIDTH 624 0
DWIDTH 13 0
BBX 12 18 1 0
BITMAP
0320
0370
0000
0000
3FF0
0C30
0810
1800
1800
1080
3F00
3100
3100
6000
6000
6040
40C0
FF80
ENDCHAR
STARTCHAR 0402
ENCODING 1026
SWIDTH 816 0
DWIDTH 17 0
BBX 14 14 2 0
BITMAP
7FF0
4630
8610
0600
0400
0DF8
0E18
0C0C
180C
181C
1818
3018
3030
78E0
ENDCHAR
STARTCHAR 0403
ENCODING 1027
SWIDTH 576 0
DWIDTH 12 0
BBX 14 18 0 0
BITMAP
0060
00C0
0080
0000
1FFC
0608
0408
0C08
0C00
0800
1800
1800
1800
3000
3000
3000
6000
F000
ENDCHAR
STARTCHAR 0404
ENCODING 1028
SWIDTH 672 0
DWIDTH 14 0
BBX 14 14 1 0
BITMAP
03F4
0C08
1808
3008
3000
6000
6000
7E00
E000
E000
6000
6020
3020
1FC0
ENDCHAR
STARTCHAR 0405
ENCODING 1029
SWIDTH 480 0
DWIDTH 10 0
BBX 11 14 0 0
BITMAP
0FA0
1860
1820
1840
1800
0C00
0E00
0700
0380
4180
4180
4180
4180
FF00
ENDCHAR
STARTCHAR 0406
ENCODING 1030
SWIDTH 336 0
DWIDTH 7 0
BBX 8 14 0 0
BITMAP
1F
06
04
0C
0C
08
18
18
18
30
30
30
20
F0
ENDCHAR
STARTCHAR 0407
ENCODING 1031
SWIDTH 336 0
DWIDTH 7 0
BBX 9 17 0 0
BITMAP
0D80
0980
0000
1F00
0600
0400
0C00
0C00
0800
1800
1800
1800
3000
3000
3000
2000
F000
ENDCHAR
STARTCHAR 0408
ENCODING 1032
SWIDTH 432 0
DWIDTH 9 0
BBX 12 14 -1 0
BITMAP
01F0
00C0
00C0
00C0
0080
0180
0180
0180
0100
0300
0300
4200
C600
7800
ENDCHAR
STARTCHAR 0409
ENCODING 1033
SWIDTH 912 0
DWIDTH 19 0
BBX 19 14 -1 0
BITMAP
03FF80
010600
010400
010C00
020C00
020800
021F00
0418C0
041860
043060
083060
483060
D020C0
70FF80
ENDCHAR
STARTCHAR 040A
ENCODING 1034
SWIDTH 912 0
DWIDTH 19 0
BBX 18 14 0 0
BITMAP
1FBF00
060C00
0C1800
0C1800
0C1800
081000
1FFE00
183180
1820C0
3060C0
3060C0
3060C0
20C180
F1FF00
ENDCHAR
STARTCHAR 040B
ENCODING 1035
SWIDTH 816 0
DWIDTH 17 0
BBX 13 14 2 0
BITMAP
7FF0
4610
8610
0600
0400
0DF0
0E18
0C18
1818
1818
1810
1030
3030
7870
ENDCHAR
STARTCHAR 040C
ENCODING 1036
SWIDTH 672 0
DWIDTH 14 0
BBX 15 18 0 0
BITMAP
0030
0040
0040
0000
1F8E
0616
0C10
0C20
0C20
0840
1F80
1B00
1980
3080
30C0
30C0
2060
F070
ENDCHAR
STARTCHAR 040D
ENCODING 1037
SWIDTH 720 0
DWIDTH 15 0
BBX 17 18 0 0
BITMAP
00C000
004000
002000
000000
1F9F80
060600
0C0E00
0C1C00
0C2C00
084C00
188800
191800
1A1800
341000
383000
303000
203000
F07000
ENDCHAR
STARTCHAR 040E
ENCODING 1038
SWIDTH 672 0
DWIDTH 14 0
BBX 14 18 2 0
BITMAP
0420
0620
0240
0180
FC3C
3010
3010
1020
1840
1840
1880
0880
0D00
0E00
0E00
0400
C800
7800
ENDCHAR
STARTCHAR 040F
ENCODING 1039
SWIDTH 720 0
DWIDTH 15 0
BBX 17 17 0 -4
BITMAP
1F9F80
060600
040400
0C0C00
0C0C00
080C00
181800
181800
181800
301000
303000
303000
303000
7FF000
860000
040000
040000
ENDCHAR
STARTCHAR 0410
ENCODING 1040
SWIDTH 624 0
DWIDTH 13 0
BBX 11 14 0 0
BITMAP
0020
0060
00C0
00C0
0140
0240
04C0
04C0
08C0
17C0
20C0
20C0
40C0
C1C0
ENDCHAR
STARTCHAR 0411
ENCODING 1041
SWIDTH 576 0
DWIDTH 12 0
BBX 13 14 0 0
BITMAP
1FF8
0618
0C10
0C00
0C00
0800
1F00
18C0
1860
3060
3060
3060
20C0
FF80
ENDCHAR
STARTCHAR 0412
ENCODING 1042
SWIDTH 624 0
DWIDTH 13 0
BBX 11 14 1 0
BITMAP
3F80
0C60
0860
1860
1860
10C0
3F00
3180
20C0
60C0
60C0
61C0
4380
FE00
ENDCHAR
STARTCHAR 0413
ENCODING 1043
SWIDTH 576 0
DWIDTH 12 0
BBX 14 14 0 0
BITMAP
1FFC
0608
0408
0C08
0C00
0800
1800
1800
1800
3000
3000
3000
6000
F000
ENDCHAR
STARTCHAR 0414
ENCODING 1044
SWIDTH 624 0
DWIDTH 13 0
BBX 17 17 -2 -4
BITMAP
03FF80
010600
010600
010400
010C00
020C00
020C00
021800
041800
041800
081000
083000
103000
3FF800
601800
400800
800800
ENDCHAR
STARTCHAR 0415
ENCODING 1045
SWIDTH 624 0
DWIDTH 13 0
BBX 12 14 1 0
BITMAP
3FF0
0C30
0810
1800
1800
1080
3F00
3100
3100
6000
6000
6040
40C0
FF80
ENDCHAR
STARTCHAR 0416
ENCODING 1046
SWIDTH 912 0
DWIDTH 19 0
BBX 20 14 0 0
BITMAP
1C7E30
1C1870
021080
043080
043100
043200
03FE00
076C00
0E6600
1C4600
18C200
30C300
60C300
C1C180
ENDCHAR
STARTCHAR 0417
ENCODING 1047
SWIDTH 480 0
DWIDTH 10 0
BBX 10 14 0 0
BITMAP
1F80
10C0
20C0
20C0
00C0
0180
0E00
0300
0180
0180
0180
0180
0300
FE00
ENDCHAR
STARTCHAR 0418
ENCODING 1048
SWIDTH 720 0
DWIDTH 15 0
BBX 17 14 0 0
BITMAP
1F9F80
060600
0C0E00
0C1C00
0C2C00
084C00
188800
191800
1A1800
341000
383000
303000
203000
F07000
ENDCHAR
STARTCHAR 0419
ENCODING 1049
SWIDTH 720 0
DWIDTH 15 0
BBX 17 18 0 0
BITMAP
008400
00C400
004800
003000
1F9F80
060600
0C0E00
0C1C00
0C2C00
084C00
188800
191800
1A1800
341000
383000
303000
203000
F07000
ENDCHAR
STARTCHAR 041A
ENCODING 1050
SWIDTH 672 0
DWIDTH 14 0
BBX 15 14 0 0
BITMAP
1F8E
0616
0C10
0C20
0C20
0840
1F80
1B00
1980
3080
30C0
30C0
2060
F070
ENDCHAR
STARTCHAR 041B
ENCODING 1051
SWIDTH 672 0
DWIDTH 14 0
BBX 17 14 -1 0
BITMAP
03FF80
010600
010600
010C00
020C00
020C00
020800
021800
041800
041000
043000
483000
C83000
707000
ENDCHAR
STARTCHAR 041C
ENCODING 1052
SWIDTH 816 0
DWIDTH 17 0
BBX 19 14 0 0
BITMAP
1E00E0
060180
0E0380
0E0580
0E0700
160B00
121300
121200
232600
234600
238400
238C00
430C00
E21E00
ENDCHAR
STARTCHAR 041D
ENCODING 1053
SWIDTH 720 0
DWIDTH 15 0
BBX 17 14 0 0
BITMAP
1F9F80
060600
0C0400
0C0C00
0C0C00
080C00
1FF800
181800
181800
301000
303000
303000
603000
F07000
ENDCHAR
STARTCHAR 041E
ENCODING 1054
SWIDTH 720 0
DWIDTH 15 0
BBX 14 14 1 0
BITMAP
03F0
0418
1808
100C
300C
600C
600C
E018
C018
C038
C030
6060
60C0
3F00
ENDCHAR
STARTCHAR 041F
ENCODING 1055
SWIDTH 720 0
DWIDTH 15 0
BBX 17 14 0 0
BITMAP
1FFF80
060600
040400
0C0C00
0C0C00
080C00
181800
181800
181800
301000
303000
303000
703000
F07000
ENDCHAR
STARTCHAR 0420
ENCODING 1056
SWIDTH 624 0
DWIDTH 13 0
BBX 12 14 1 0
BITMAP
3FC0
0C60
0830
1830
1830
1060
30C0
3F00
3000
2000
6000
6000
6000
E000
ENDCHAR
STARTCHAR 0421
ENCODING 1057
SWIDTH 672 0
DWIDTH 14 0
BBX 14 14 1 0
BITMAP
03F4
0C08
1808
3008
3000
6000
6000
6000
E000
E000
6000
6020
3020
1FC0
ENDCHAR
STARTCHAR 0422
ENCODING 1058
SWIDTH 576 0
DWIDTH 12 0
BBX 11 14 2 0
BITMAP
7FE0
4620
8420
8C20
0C00
0C00
0800
1800
1800
1000
3000
3000
3000
F800
ENDCHAR
STARTCHAR 0423
ENCODING 1059
SWIDTH 672 0
DWIDTH 14 0
BBX 14 14 2 0
BITMAP
FC3C
3010
3010
1020
1840
1840
1880
0880
0D00
0E00
0E00
0400
C800
7800
ENDCHAR
STARTCHAR 0424
ENCODING 1060
SWIDTH 816 0
DWIDTH 17 0
BBX 14 14 2 0
BITMAP
03F0
00C0
07E0
3998
618C
C104
C304
830C
830C
C618
C630
3FC0
0C00
1E00
ENDCHAR
STARTCHAR 0425
ENCODING 1061
SWIDTH 624 0
DWIDTH 13 0
BBX 16 14 -1 0
BITMAP
0F8F
0304
0308
0310
0120
01C0
0180
0180
02C0
04C0
08C0
1040
2060
F0F0
ENDCHAR
STARTCHAR 0426
ENCODING 1062
SWIDTH 720 0
DWIDTH 15 0
BBX 17 17 0 -4
BITMAP
1F9F80
060600
040600
0C0C00
0C0C00
080C00
181800
181800
181800
301000
303000
303000
303000
7FF000
801800
000800
000800
ENDCHAR
STARTCHAR 0427
ENCODING 1063
SWIDTH 672 0
DWIDTH 14 0
BBX 14 14 2 0
BITMAP
FCFC
3030
3030
2020
6060
6060
6060
71C0
1EC0
00C0
0080
0180
0180
03C0
ENDCHAR
STARTCHAR 0428
ENCODING 1064
SWIDTH 1056 0
DWIDTH 22 0
BBX 22 14 1 0
BITMAP
3E3E3C
0C1838
081830
181030
183030
103060
303060
306060
306040
6060C0
6040C0
60C0C0
E0C180
FFFFC0
ENDCHAR
STARTCHAR 0429
ENCODING 1065
SWIDTH 1056 0
DWIDTH 22 0
BBX 22 18 1 -4
BITMAP
3E3E3C
0C1838
081830
181030
183030
103060
303060
306060
306040
6060C0
6040C0
60C0C0
E0C180
FFFFC0
000060
000040
000040
000040
ENDCHAR
STARTCHAR 042A
ENCODING 1066
SWIDTH 672 0
DWIDTH 14 0
BBX 11 14 2 0
BITMAP
7F00
4600
8C00
8C00
0C00
1800
1F00
18C0
1060
3060
3060
20E0
60C0
FF80
ENDCHAR
STARTCHAR 042B
ENCODING 1067
SWIDTH 864 0
DWIDTH 18 0
BBX 20 14 0 0
BITMAP
1F81F0
0600C0
0C00C0
0C0080
0C0180
080180
1F0180
18C300
186300
306300
306200
306600
20C600
FF8F00
ENDCHAR
STARTCHAR 042C
ENCODING 1068
SWIDTH 576 0
DWIDTH 12 0
BBX 11 14 0 0
BITMAP
1F80
0600
0C00
0C00
0C00
0800
1F00
18C0
1860
3060
3060
3060
20C0
FF80
ENDCHAR
STARTCHAR 042D
ENCODING 1069
SWIDTH 672 0
DWIDTH 14 0
BBX 13 14 0 0
BITMAP
17E0
1830
1018
2018
0018
0018
0018
01F8
0018
0030
0030
8060
60C0
1F80
ENDCHAR
STARTCHAR 042E
ENCODING 1070
SWIDTH 1056 0
DWIDTH 22 0
BBX 21 14 0 0
BITMAP
1F03E0
060C10
0C1818
0C3018
0C6018
086018
18C018
1FC018
18C038
30C030
30C060
30C060
2060C0
F03F00
ENDCHAR
STARTCHAR 042F
ENCODING 1071
SWIDTH 672 0
DWIDTH 14 0
BBX 16 14 -1 0
BITMAP
00FF
0306
060C
060C
060C
0618
0318
03F8
0710
0630
0C30
1830
3060
E0F0
ENDCHAR
STARTCHAR 0430
ENCODING 1072
SWIDTH 480 0
DWIDTH 10 0
BBX 9 9 1 0
BITMAP
1D80
2300
4300
C300
C200
8600
8600
9F00
E600
ENDCHAR
STARTCHAR 0431
ENCODING 1073
SWIDTH 480 0
DWIDTH 10 0
BBX 9 14 1 0
BITMAP
0380
0F00
1000
2000
4000
5F00
A100
E180
C180
C180
8300
8300
8600
7C00
ENDCHAR
STARTCHAR 0432
ENCODING 1074
SWIDTH 432 0
DWIDTH 9 0
BBX 8 9 1 0
BITMAP
1E
23
62
CC
FC
86
86
84
78
ENDCHAR
STARTCHAR 0433
ENCODING 1075
SWIDTH 384 0
DWIDTH 8 0
BBX 8 9 0 0
BITMAP
1F
23
03
06
18
60
C0
C2
FC
ENDCHAR
STARTCHAR 0434
ENCODING 1076
SWIDTH 528 0
DWIDTH 11 0
BBX 9 14 1 0
BITMAP
0C00
0200
0300
0100
0100
1F80
2180
6180
C180
C100
8300
8200
8600
7800
ENDCHAR
STARTCHAR 0435
ENCODING 1077
SWIDTH 432 0
DWIDTH 9 0
BBX 8 9 1 0
BITMAP
1F
23
43
C6
D8
A0
80
C2
7C
ENDCHAR
STARTCHAR 0436
ENCODING 1078
SWIDTH 912 0
DWIDTH 19 0
BBX 19 9 0 0
BITMAP
1E31E0
622220
036420
036C00
03FC00
064800
C4C800
CCCC40
F08780
ENDCHAR
STARTCHAR 0437
ENCODING 1079
SWIDTH 384 0
DWIDTH 8 0
BBX 8 9 0 0
BITMAP
3E
43
03
06
18
04
06
0C
F8
ENDCHAR
STARTCHAR 0438
ENCODING 1080
SWIDTH 480 0
DWIDTH 10 0
BBX 9 9 1 0
BITMAP
6180
A100
6300
6300
4200
CE00
CE00
D700
E600
ENDCHAR
STARTCHAR 0439
ENCODING 1081
SWIDTH 480 0
DWIDTH 10 0
BBX 9 14 1 0
BITMAP
1880
0D00
0600
0000
0000
6180
A100
6300
6300
4200
CE00
CE00
D700
E600
ENDCHAR
STARTCHAR 043A
ENCODING 1082
SWIDTH 480 0
DWIDTH 10 0
BBX 9 9 1 0
BITMAP
E380
2580
6400
6800
7000
D800
CC00
8400
8600
ENDCHAR
STARTCHAR 043B
ENCODING 1083
SWIDTH 432 0
DWIDTH 9 0
BBX 9 9 -1 0
BITMAP
0F80
0980
0980
1100
1100
1300
2300
2280
C300
ENDCHAR
STARTCHAR 043C
ENCODING 1084
SWIDTH 624 0
DWIDTH 13 0
BBX 13 9 -1 0
BITMAP
1E08
0618
0E38
0A58
1250
12B0
2330
2330
C238
ENDCHAR
STARTCHAR 043D
ENCODING 1085
SWIDTH 480 0
DWIDTH 10 0
BBX 8 9 1 0
BITMAP
E1
21
63
63
7E
C6
C6
85
86
ENDCHAR
STARTCHAR 043E
ENCODING 1086
SWIDTH 480 0
DWIDTH 10 0
BBX 9 9 1 0
BITMAP
1F00
2100
6180
C180
C100
8300
8300
8600
7800
ENDCHAR
STARTCHAR 043F
ENCODING 1087
SWIDTH 480 0
DWIDTH 10 0
BBX 8 9 1 0
BITMAP
E7
29
73
63
62
C2
C6
87
86
ENDCHAR
STARTCHAR 0440
ENCODING 1088
SWIDTH 480 0
DWIDTH 10 0
BBX 11 13 -1 -4
BITMAP
39C0
0E60
1860
1860
1040
30C0
3080
2180
3200
6C00
6000
4000
E000
ENDCHAR
STARTCHAR 0441
ENCODING 1089
SWIDTH 432 0
DWIDTH 9 0
BBX 8 9 1 0
BITMAP
1F
23
42
C0
80
80
80
C6
F8
ENDCHAR
STARTCHAR 0442
ENCODING 1090
SWIDTH 720 0
DWIDTH 15 0
BBX 14 9 0 0
BITMAP
739C
35AC
39CC
3188
3398
6318
6310
4214
C638
ENDCHAR
STARTCHAR 0443
ENCODING 1091
SWIDTH 432 0
DWIDTH 9 0
BBX 11 13 -2 -4
BITMAP
3C60
0C20
0420
0440
0440
0480
0500
0600
0600
0400
0800
1000
E000
ENDCHAR
STARTCHAR 0444
ENCODING 1092
SWIDTH 720 0
DWIDTH 15 0
BBX 13 18 1 -4
BITMAP
03C0
0080
0080
0180
0180
1DF0
2318
6318
C218
C218
8618
8630
8E20
DE40
2D80
0800
0800
3800
ENDCHAR
STARTCHAR 0445
ENCODING 1093
SWIDTH 432 0
DWIDTH 9 0
BBX 10 9 -1 0
BITMAP
38C0
0D00
0E00
0400
0400
0E00
1600
1280
E300
ENDCHAR
STARTCHAR 0446
ENCODING 1094
SWIDTH 480 0
DWIDTH 10 0
BBX 9 13 1 -4
BITMAP
6180
A100
6300
6300
4200
CE00
CE00
D700
E700
0200
0600
0600
0400
ENDCHAR
STARTCHAR 0447
ENCODING 1095
SWIDTH 480 0
DWIDTH 10 0
BBX 8 9 1 0
BITMAP
E1
63
43
42
46
7E
04
05
0E
ENDCHAR
STARTCHAR 0448
ENCODING 1096
SWIDTH 768 0
DWIDTH 16 0
BBX 14 9 1 0
BITMAP
618C
A10C
6108
6318
4318
4E38
CA50
D6B4
E738
ENDCHAR
STARTCHAR 0449
ENCODING 1097
SWIDTH 768 0
DWIDTH 16 0
BBX 14 13 1 -4
BITMAP
618C
A10C
6108
6318
4318
4E38
CA50
D6B4
E738
0010
0010
0010
0020
ENDCHAR
STARTCHAR 044A
ENCODING 1098
SWIDTH 528 0
DWIDTH 11 0
BBX 9 9 1 0
BITMAP
F800
9000
1000
3700
3980
2180
6180
6300
3E00
ENDCHAR
STARTCHAR 044B
ENCODING 1099
SWIDTH 672 0
DWIDTH 14 0
BBX 12 9 1 0
BITMAP
E070
6030
6020
4E60
7660
C240
C240
C6D0
7CE0
ENDCHAR
STARTCHAR 044C
ENCODING 1100
SWIDTH 432 0
DWIDTH 9 0
BBX 7 9 1 0
BITMAP
E0
60
60
4E
76
C2
C2
C6
7C
ENDCHAR
STARTCHAR 044D
ENCODING 1101
SWIDTH 432 0
DWIDTH 9 0
BBX 8 9 0 0
BITMAP
3E
43
41
01
1F
03
02
86
7C
ENDCHAR
STARTCHAR 044E
ENCODING 1102
SWIDTH 720 0
DWIDTH 15 0
BBX 13 9 1 0
BITMAP
E1F0
2218
6618
6C18
7C18
CC10
CC30
8C60
87C0
ENDCHAR
STARTCHAR 044F
ENCODING 1103
SWIDTH 480 0
DWIDTH 10 0
BBX 10 9 -1 0
BITMAP
0FC0
18C0
1080
1980
0F80
1900
1100
2340
E380
ENDCHAR
STARTCHAR 0451
ENCODING 1105
SWIDTH 432 0
DWIDTH 9 0
BBX 9 14 1 0
BITMAP
0900
1980
0100
0000
0000
1F00
2300
4300
C600
D800
A000
8000
C200
7C00
ENDCHAR
STARTCHAR 0452
ENCODING 1106
SWIDTH 480 0
DWIDTH 10 0
BBX 8 18 1 -4
BITMAP
18
18
7E
30
30
27
2B
73
63
63
C2
C6
86
84
0C
08
10
20
ENDCHAR
STARTCHAR 0453
ENCODING 1107
SWIDTH 384 0
DWIDTH 8 0
BBX 8 14 0 0
BITMAP
03
02
04
00
00
3F
11
30
30
20
60
60
40
E0
ENDCHAR
STARTCHAR 0454
ENCODING 1108
SWIDTH 432 0
DWIDTH 9 0
BBX 8 9 1 0
BITMAP
1F
21
41
C0
F8
80
80
C6
F8
ENDCHAR
STARTCHAR 0455
ENCODING 1109
SWIDTH 384 0
DWIDTH 8 0
BBX 7 9 0 0
BITMAP
1E
22
30
38
18
0C
84
84
F8
ENDCHAR
STARTCHAR 0456
ENCODING 1110
SWIDTH 288 0
DWIDTH 6 0
BBX 5 13 1 0
BITMAP
18
10
00
00
F0
20
60
60
40
40
C0
E0
C0
ENDCHAR
STARTCHAR 0457
ENCODING 1111
SWIDTH 288 0
DWIDTH 6 0
BBX 7 14 1 0
BITMAP
44
6E
04
00
00
F0
20
60
60
40
40
C0
E0
C0
ENDCHAR
STARTCHAR 0458
ENCODING 1112
SWIDTH 288 0
DWIDTH 6 0
BBX 10 17 -4 -4
BITMAP
00C0
00C0
0000
0000
0780
0100
0100
0300
0300
0200
0600
0600
0400
0400
0C00
0800
F000
ENDCHAR
STARTCHAR 0459
ENCODING 1113
SWIDTH 672 0
DWIDTH 14 0
BBX 14 9 -1 0
BITMAP
03C0
04C0
0880
08B8
11CC
118C
110C
2108
E1F0
ENDCHAR
STARTCHAR 045A
ENCODING 1114
SWIDTH 720 0
DWIDTH 15 0
BBX 13 9 1 0
BITMAP
E780
2100
6100
6370
7F98
C218
C618
8610
83E0
ENDCHAR
STARTCHAR 045B
ENCODING 1115
SWIDTH 480 0
DWIDTH 10 0
BBX 8 14 1 0
BITMAP
18
18
7E
30
30
27
29
73
63
62
C2
C6
87
86
ENDCHAR
STARTCHAR 045C
ENCODING 1116
SWIDTH 480 0
DWIDTH 10 0
BBX 9 14 1 0
BITMAP
0600
0400
0400
0000
0000
E380
2580
6400
6800
7000
D800
CC00
8400
8600
ENDCHAR
STARTCHAR 045D
ENCODING 1117
SWIDTH 480 0
DWIDTH 10 0
BBX 9 14 1 0
BITMAP
0C00
0400
0400
0000
0000
6180
A100
6300
6300
4200
CE00
CE00
D700
E600
ENDCHAR
STARTCHAR 045E
ENCODING 1118
SWIDTH 432 0
DWIDTH 9 0
BBX 11 18 -2 -4
BITMAP
0220
0340
0180
0000
0000
3C60
0C20
0420
0440
0440
0480
0500
0600
0600
0400
0800
1000
E000
ENDCHAR
STARTCHAR 045F
ENCODING 1119
SWIDTH 480 0
DWIDTH 10 0
BBX 9 13 1 -4
BITMAP
6180
A100
6300
6300
4200
CE00
CE00
D700
E600
4000
C000
C000
8000
ENDCHAR
STARTCHAR 0490
ENCODING 1168
SWIDTH 432 0
DWIDTH 9 0
BBX 12 16 0 1
BITMAP
0010
0010
1FE0
0600
0C00
0C00
0C00
0800
1800
1800
1800
3000
3000
3000
2000
F000
ENDCHAR
STARTCHAR 0491
ENCODING 1169
SWIDTH 336 0
DWIDTH 7 0
BBX 7 11 1 0
BITMAP
02
02
7C
20
60
60
40
40
C0
E0
C0
ENDCHAR
STARTCHAR 0492
ENCODING 1170
SWIDTH 576 0
DWIDTH 12 0
BBX 14 14 0 0
BITMAP
1FFC
0608
0C08
0C08
0C00
0800
3F80
1800
1800
3000
3000
3000
6000
F000
ENDCHAR
STARTCHAR 0493
ENCODING 1171
SWIDTH 384 0
DWIDTH 8 0
BBX 8 9 0 0
BITMAP
1F
23
03
16
18
68
C0
C2
FC
ENDCHAR
STARTCHAR 0496
ENCODING 1174
SWIDTH 912 0
DWIDTH 19 0
BBX 20 17 0 -4
BITMAP
1C7E30
1C1870
021080
043080
043100
023100
03FE00
076C00
0E6600
1C4600
18C200
30C300
60C300
C1C180
0000C0
000040
000080
ENDCHAR
STARTCHAR 0497
ENCODING 1175
SWIDTH 912 0
DWIDTH 19 0
BBX 19 13 0 -4
BITMAP
1E31E0
622220
036420
036C00
03FC00
064800
C4C800
CCCC40
908780
600080
000100
000100
000200
ENDCHAR
STARTCHAR 049A
ENCODING 1178
SWIDTH 672 0
DWIDTH 14 0
BBX 15 18 0 -4
BITMAP
1F8E
0616
0C10
0C20
0C20
0840
1F80
1B00
1980
3080
30C0
30C0
2060
7070
8018
0010
0010
0010
ENDCHAR
STARTCHAR 049B
ENCODING 1179
SWIDTH 480 0
DWIDTH 10 0
BBX 9 13 1 -4
BITMAP
E380
2580
6400
6800
7000
C800
CC00
8500
8700
0200
0600
0600
0400
ENDCHAR
STARTCHAR 049C
ENCODING 1180
SWIDTH 672 0
DWIDTH 14 0
BBX 15 14 0 0
BITMAP
1F8E
0616
0C10
0CA0
0D20
0940
1F80
1B00
1B80
3280
34C0
34C0
2060
F070
ENDCHAR
STARTCHAR 049D
ENCODING 1181
SWIDTH 480 0
DWIDTH 10 0
BBX 9 9 1 0
BITMAP
E380
2D80
6C00
7800
7000
D800
EC00
A400
8600
ENDCHAR
STARTCHAR 04A2
ENCODING 1186
SWIDTH 720 0
DWIDTH 15 0
BBX 17 17 0 -4
BITMAP
1F9F80
060600
0C0400
0C0C00
0C0C00
080C00
1FF800
181800
181800
301000
303000
303000
603000
707000
801800
000800
001000
ENDCHAR
STARTCHAR 04A3
ENCODING 1187
SWIDTH 480 0
DWIDTH 10 0
BBX 8 13 1 -4
BITMAP
E1
21
63
63
7E
C6
C6
85
86
02
04
04
0C
ENDCHAR
STARTCHAR 04AE
ENCODING 1198
SWIDTH 576 0
DWIDTH 12 0
BBX 12 14 2 0
BITMAP
F9F0
3040
3080
1100
1900
1A00
0C00
0C00
1800
1800
1800
3000
3000
7800
ENDCHAR
STARTCHAR 04AF
ENCODING 1199
SWIDTH 480 0
DWIDTH 10 0
BBX 10 13 1 -4
BITMAP
70C0
2100
2100
2200
3400
3400
3800
3000
3000
2000
2000
6000
E000
ENDCHAR
STARTCHAR 04B0
ENCODING 1200
SWIDTH 576 0
DWIDTH 12 0
BBX 12 14 2 0
BITMAP
F9F0
3040
3080
1100
1900
1A00
0C00
0C00
FB80
1800
1800
3000
3000
7800
ENDCHAR
STARTCHAR 04B1
ENCODING 1201
SWIDTH 480 0
DWIDTH 10 0
BBX 11 13 0 -4
BITMAP
3860
1080
1080
1100
1A00
1A00
1C00
1800
FF00
1000
1000
3000
7000
ENDCHAR
STARTCHAR 04B2
ENCODING 1202
SWIDTH 624 0
DWIDTH 13 0
BBX 16 18 -1 -4
BITMAP
0F8F
0304
0308
0310
0120
01C0
0180
0180
02C0
04C0
08C0
1040
2060
F0F0
0018
0010
0010
0010
ENDCHAR
STARTCHAR 04B3
ENCODING 1203
SWIDTH 432 0
DWIDTH 9 0
BBX 10 13 -1 -4
BITMAP
38C0
0D00
0E00
0400
0400
0E00
1600
1280
E300
0100
0200
0200
0400
ENDCHAR
STARTCHAR 04B8
ENCODING 1208
SWIDTH 672 0
DWIDTH 14 0
BBX 14 14 2 0
BITMAP
FCFC
3030
3030
2220
6260
6460
6460
75C0
1EC0
08C0
0880
0980
0180
03C0
ENDCHAR
STARTCHAR 04B9
ENCODING 1209
SWIDTH 480 0
DWIDTH 10 0
BBX 8 9 1 0
BITMAP
E1
6B
4B
52
56
7E
14
05
0E
ENDCHAR
STARTCHAR 04BA
ENCODING 1210
SWIDTH 672 0
DWIDTH 14 0
BBX 12 14 0 0
BITMAP
1F00
0600
0C00
0C00
0C00
0800
1FF0
1810
1010
3010
3030
3030
6030
F070
ENDCHAR
STARTCHAR 04BB
ENCODING 1211
SWIDTH 480 0
DWIDTH 10 0
BBX 8 14 1 0
BITMAP
18
18
10
30
30
27
29
73
63
62
C2
C6
87
86
ENDCHAR
STARTCHAR 04D8
ENCODING 1240
SWIDTH 672 0
DWIDTH 14 0
BBX 13 14 1 0
BITMAP
17E0
1830
1018
2018
0018
0018
0018
FFF8
C018
C018
C030
6060
60C0
3F80
ENDCHAR
STARTCHAR 04D9
ENCODING 1241
SWIDTH 432 0
DWIDTH 9 0
BBX 9 9 0 0
BITMAP
1F00
2300
4180
0180
0F00
3300
4200
C400
F800
ENDCHAR
STARTCHAR 04E8
ENCODING 1256
SWIDTH 720 0
DWIDTH 15 0
BBX 14 14 1 0
BITMAP
03F0
0418
1808
100C
300C
600C
7FFC
E018
C018
C038
C030
6060
60C0
3F00
ENDCHAR
STARTCHAR 04E9
ENCODING 1257
SWIDTH 480 0
DWIDTH 10 0
BBX 9 9 1 0
BITMAP
1F00
2100
6180
C180
FF00
8300
8300
8600
7800
ENDCHAR
STARTCHAR 05B0
ENCODING 1456
SWIDTH 336 0
DWIDTH 7 0
BBX 1 4 1 -5
BITMAP
80
00
80
80
ENDCHAR
STARTCHAR 05B1
ENCODING 1457
SWIDTH 336 0
DWIDTH 7 0
BBX 7 4 -2 -5
BITMAP
D6
00
66
04
ENDCHAR
STARTCHAR 05B2
ENCODING 1458
SWIDTH 336 0
DWIDTH 7 0
BBX 6 5 -2 -6
BITMAP
04
F4
00
04
04
ENDCHAR
STARTCHAR 05B3
ENCODING 1459
SWIDTH 336 0
DWIDTH 7 0
BBX 7 3 -2 -5
BITMAP
F6
20
66
ENDCHAR
STARTCHAR 05B4
ENCODING 1460
SWIDTH 336 0
DWIDTH 7 0
BBX 1 1 1 -2
BITMAP
80
ENDCHAR
STARTCHAR 05B5
ENCODING 1461
SWIDTH 336 0
DWIDTH 7 0
BBX 4 1 -1 -2
BITMAP
D0
ENDCHAR
STARTCHAR 05B6
ENCODING 1462
SWIDTH 336 0
DWIDTH 7 0
BBX 4 4 -1 -5
BITMAP
D0
00
20
20
ENDCHAR
STARTCHAR 05B7
ENCODING 1463
SWIDTH 336 0
DWIDTH 7 0
BBX 4 1 -1 -3
BITMAP
F0
ENDCHAR
STARTCHAR 05B8
ENCODING 1464
SWIDTH 336 0
DWIDTH 7 0
BBX 4 3 -1 -5
BITMAP
F0
20
20
ENDCHAR
STARTCHAR 05B9
ENCODING 1465
SWIDTH 336 0
DWIDTH 7 0
BBX 1 2 5 12
BITMAP
80
80
ENDCHAR
STARTCHAR 05BA
ENCODING 1466
SWIDTH 336 0
DWIDTH 7 0
BBX 1 2 5 12
BITMAP
80
80
ENDCHAR
STARTCHAR 05BB
ENCODING 1467
SWIDTH 336 0
DWIDTH 7 0
BBX 7 4 -2 -5
BITMAP
C0
10
06
04
ENDCHAR
STARTCHAR 05BC
ENCODING 1468
SWIDTH 336 0
DWIDTH 7 0
BBX 1 2 3 4
BITMAP
80
80
ENDCHAR
STARTCHAR 05BD
ENCODING 1469
SWIDTH 336 0
DWIDTH 7 0
BBX 1 3 1 -5
BITMAP
80
80
80
ENDCHAR
STARTCHAR 05BE
ENCODING 1470
SWIDTH 384 0
DWIDTH 8 0
BBX 6 2 2 9
BITMAP
FC
FC
ENDCHAR
STARTCHAR 05BF
ENCODING 1471
SWIDTH 336 0
DWIDTH 7 0
BBX 4 1 4 12
BITMAP
F0
ENDCHAR
STARTCHAR 05C0
ENCODING 1472
SWIDTH 336 0
DWIDTH 7 0
BBX 5 13 1 -1
BITMAP
08
18
10
10
30
30
20
20
60
40
40
C0
C0
ENDCHAR
STARTCHAR 05C1
ENCODING 1473
SWIDTH 336 0
DWIDTH 7 0
BBX 2 2 9 12
BITMAP
C0
C0
ENDCHAR
STARTCHAR 05C2
ENCODING 1474
SWIDTH 336 0
DWIDTH 7 0
BBX 1 2 1 12
BITMAP
80
80
ENDCHAR
STARTCHAR 05C3
ENCODING 1475
SWIDTH 336 0
DWIDTH 7 0
BBX 5 11 1 0
BITMAP
18
18
00
00
00
00
00
00
00
C0
C0
ENDCHAR
STARTCHAR 05D0
ENCODING 1488
SWIDTH 480 0
DWIDTH 10 0
BBX 10 11 0 1
BITMAP
2180
31C0
38C0
1900
1E00
6E00
4600
4300
4300
6100
C100
ENDCHAR
STARTCHAR 05D1
ENCODING 1489
SWIDTH 432 0
DWIDTH 9 0
BBX 9 11 0 0
BITMAP
3F00
3F00
0180
0100
0100
0100
0100
0200
0200
FF00
FE00
ENDCHAR
STARTCHAR 05D2
ENCODING 1490
SWIDTH 336 0
DWIDTH 7 0
BBX 7 12 -1 0
BITMAP
08
0C
0E
06
02
04
04
04
04
0C
74
E4
ENDCHAR
STARTCHAR 05D3
ENCODING 1491
SWIDTH 432 0
DWIDTH 9 0
BBX 7 11 2 0
BITMAP
FE
FE
04
08
08
10
10
10
10
30
20
ENDCHAR
STARTCHAR 05D4
ENCODING 1492
SWIDTH 480 0
DWIDTH 10 0
BBX 10 11 0 0
BITMAP
3FC0
3FC0
0040
0080
0100
2100
4100
4100
4100
C100
8200
ENDCHAR
STARTCHAR 05D5
ENCODING 1493
SWIDTH 240 0
DWIDTH 5 0
BBX 3 11 2 1
BITMAP
C0
E0
60
20
20
40
40
40
40
80
80
ENDCHAR
STARTCHAR 05D6
ENCODING 1494
SWIDTH 240 0
DWIDTH 5 0
BBX 5 11 1 1
BITMAP
60
78
38
20
40
40
40
40
C0
80
80
ENDCHAR
STARTCHAR 05D7
ENCODING 1495
SWIDTH 480 0
DWIDTH 10 0
BBX 10 11 0 0
BITMAP
3FC0
3FC0
1080
2080
2100
2100
2100
4100
4100
4300
8200
ENDCHAR
STARTCHAR 05D8
ENCODING 1496
SWIDTH 480 0
DWIDTH 10 0
BBX 9 11 1 1
BITMAP
6300
7780
3580
4880
4080
8100
8100
8200
8200
FC00
FC00
ENDCHAR
STARTCHAR 05D9
ENCODING 1497
SWIDTH 240 0
DWIDTH 5 0
BBX 3 6 2 6
BITMAP
C0
E0
60
20
20
40
ENDCHAR
STARTCHAR 05DA
ENCODING 1498
SWIDTH 432 0
DWIDTH 9 0
BBX 8 15 2 -4
BITMAP
FF
FF
02
04
04
04
08
08
08
08
08
10
10
10
20
ENDCHAR
STARTCHAR 05DB
ENCODING 1499
SWIDTH 432 0
DWIDTH 9 0
BBX 8 11 0 0
BITMAP
3E
3F
03
01
01
01
02
02
06
FC
F8
ENDCHAR
STARTCHAR 05DC
ENCODING 1500
SWIDTH 432 0
DWIDTH 9 0
BBX 7 15 2 1
BITMAP
C0
40
80
80
FC
FE
06
02
04
04
08
10
20
20
40
ENDCHAR
STARTCHAR 05DD
ENCODING 1501
SWIDTH 480 0
DWIDTH 10 0
BBX 9 11 0 0
BITMAP
3F80
3F80
0880
1080
2080
4080
4080
4100
8100
FF00
FE00
ENDCHAR
STARTCHAR 05DE
ENCODING 1502
SWIDTH 480 0
DWIDTH 10 0
BBX 9 11 0 1
BITMAP
3100
3B80
1780
0880
1080
2080
4080
4100
8100
9E00
BE00
ENDCHAR
STARTCHAR 05DF
ENCODING 1503
SWIDTH 240 0
DWIDTH 5 0
BBX 5 14 1 -3
BITMAP
60
78
30
10
20
20
20
20
40
40
40
40
80
80
ENDCHAR
STARTCHAR 05E0
ENCODING 1504
SWIDTH 288 0
DWIDTH 6 0
BBX 7 11 -1 1
BITMAP
1C
1E
0E
04
04
08
08
08
08
78
F8
ENDCHAR
STARTCHAR 05E1
ENCODING 1505
SWIDTH 480 0
DWIDTH 10 0
BBX 8 11 1 0
BITMAP
7E
7F
23
41
81
81
81
82
C2
FC
78
ENDCHAR
STARTCHAR 05E2
ENCODING 1506
SWIDTH 432 0
DWIDTH 9 0
BBX 10 12 0 -1
BITMAP
2000
3180
39C0
1880
2080
1100
1100
1200
1200
1400
7C00
F000
ENDCHAR
STARTCHAR 05E3
ENCODING 1507
SWIDTH 432 0
DWIDTH 9 0
BBX 8 14 1 -4
BITMAP
7E
7E
23
42
82
E2
C2
04
04
04
04
08
08
08
ENDCHAR
STARTCHAR 05E4
ENCODING 1508
SWIDTH 432 0
DWIDTH 9 0
BBX 8 11 0 0
BITMAP
3E
3F
23
21
61
71
01
02
02
7C
F8
ENDCHAR
STARTCHAR 05E5
ENCODING 1509
SWIDTH 432 0
DWIDTH 9 0
BBX 8 15 2 -3
BITMAP
C6
E7
63
24
28
30
30
20
20
20
60
40
40
40
80
ENDCHAR
STARTCHAR 05E6
ENCODING 1510
SWIDTH 432 0
DWIDTH 9 0
BBX 10 12 0 0
BITMAP
0100
3180
39C0
08C0
1100
1200
1A00
0C00
0600
0300
7E00
FE00
ENDCHAR
STARTCHAR 05E7
ENCODING 1511
SWIDTH 432 0
DWIDTH 9 0
BBX 10 14 -1 -4
BITMAP
1FC0
1FC0
0040
0040
1040
2080
2080
2300
4400
4800
4800
4000
8000
8000
ENDCHAR
STARTCHAR 05E8
ENCODING 1512
SWIDTH 432 0
DWIDTH 9 0
BBX 7 11 2 0
BITMAP
FC
FE
06
02
02
04
04
04
08
08
08
ENDCHAR
STARTCHAR 05E9
ENCODING 1513
SWIDTH 624 0
DWIDTH 13 0
BBX 11 11 2 1
BITMAP
CE40
EE60
6660
8440
8880
8880
9100
A100
A200
FE00
FE00
ENDCHAR
STARTCHAR 05EA
ENCODING 1514
SWIDTH 480 0
DWIDTH 10 0
BBX 11 11 -1 0
BITMAP
0FC0
0FC0
0460
0840
1040
1040
1040
1080
3080
6080
E100
ENDCHAR
STARTCHAR 05F0
ENCODING 1520
SWIDTH 528 0
DWIDTH 11 0
BBX 9 12 2 0
BITMAP
0200
C300
E780
6180
2080
2100
4100
4100
4200
4200
8200
8400
ENDCHAR
STARTCHAR 05F1
ENCODING 1521
SWIDTH 528 0
DWIDTH 11 0
BBX 8 11 2 1
BITMAP
C6
E7
63
21
21
41
02
02
02
04
04
ENDCHAR
STARTCHAR 05F2
ENCODING 1522
SWIDTH 480 0
DWIDTH 10 0
BBX 8 6 2 6
BITMAP
C6
E7
63
21
21
42
ENDCHAR
STARTCHAR 05F3
ENCODING 1523
SWIDTH 192 0
DWIDTH 4 0
BBX 3 4 2 6
BITMAP
60
C0
C0
80
ENDCHAR
STARTCHAR 05F4
ENCODING 1524
SWIDTH 384 0
DWIDTH 8 0
BBX 6 5 2 6
BITMAP
6C
CC
C8
90
10
ENDCHAR
STARTCHAR 1E80
ENCODING 7808
SWIDTH 816 0
DWIDTH 17 0
BBX 17 18 3 0
BITMAP
030000
018000
008000
000000
FFE780
618200
618400
638800
638800
459000
49A000
492000
D14000
E38000
E38000
C30000
830000
820000
ENDCHAR
STARTCHAR 1E81
ENCODING 7809
SWIDTH 672 0
DWIDTH 14 0
BBX 14 14 0 0
BITMAP
0300
0180
0080
0000
0000
E08C
3184
3188
1288
1490
1490
18A0
10C0
1080
ENDCHAR
STARTCHAR 1E82
ENCODING 7810
SWIDTH 816 0
DWIDTH 17 0
BBX 17 18 3 0
BITMAP
006000
00C000
008000
000000
FFE780
618200
618400
638800
638800
459000
49A000
492000
D14000
E38000
E38000
C30000
830000
820000
ENDCHAR
STARTCHAR 1E83
ENCODING 7811
SWIDTH 672 0
DWIDTH 14 0
BBX 14 14 0 0
BITMAP
0060
00C0
0080
0000
0000
E08C
3184
3188
1288
1490
1490
18A0
10C0
1080
ENDCHAR
STARTCHAR 1E84
ENCODING 7812
SWIDTH 816 0
DWIDTH 17 0
BBX 17 17 3 1
BITMAP
036000
022000
000000
FFE780
618200
618400
638800
638800
459000
49A000
492000
D14000
E38000
E38000
C30000
830000
820000
ENDCHAR
STARTCHAR 1E85
ENCODING 7813
SWIDTH 672 0
DWIDTH 14 0
BBX 14 14 0 0
BITMAP
0320
0330
0020
0000
0000
E08C
3184
3188
1288
1490
1490
18A0
10C0
1080
ENDCHAR
STARTCHAR 1EA0
ENCODING 7840
SWIDTH 624 0
DWIDTH 13 0
BBX 11 17 0 -3
BITMAP
0020
0060
00C0
00C0
0140
0240
04C0
04C0
08C0
17C0
20C0
20C0
40C0
C1C0
0000
1800
1800
ENDCHAR
STARTCHAR 1EA1
ENCODING 7841
SWIDTH 480 0
DWIDTH 10 0
BBX 9 12 1 -3
BITMAP
1D80
2300
4300
C300
C200
8600
8600
9F00
E600
0000
2000
3000
ENDCHAR
STARTCHAR 1EA2
ENCODING 7842
SWIDTH 624 0
DWIDTH 13 0
BBX 13 19 0 0
BITMAP
0010
0028
0010
0000
0000
0020
0060
00C0
00C0
0140
0240
04C0
04C0
08C0
17C0
20C0
20C0
40C0
C1C0
ENDCHAR
STARTCHAR 1EA3
ENCODING 7843
SWIDTH 480 0
DWIDTH 10 0
BBX 9 14 1 0
BITMAP
0700
0200
0000
0000
0000
1D80
2300
4300
C300
C200
8600
8600
9F00
E600
ENDCHAR
STARTCHAR 1EA4
ENCODING 7844
SWIDTH 624 0
DWIDTH 13 0
BBX 14 19 0 0
BITMAP
000C
0010
0010
0068
0000
0020
0060
00C0
00C0
0140
0240
04C0
04C0
08C0
17C0
20C0
20C0
40C0
C1C0
ENDCHAR
STARTCHAR 1EA5
ENCODING 7845
SWIDTH 480 0
DWIDTH 10 0
BBX 10 19 1 0
BITMAP
00C0
0180
0100
0000
0000
0300
0500
0880
0000
0000
1D80
2300
4300
C300
C200
8600
8600
9F00
E600
ENDCHAR
STARTCHAR 1EA6
ENCODING 7846
SWIDTH 624 0
DWIDTH 13 0
BBX 13 19 0 0
BITMAP
0038
0008
0010
0068
0000
0020
0060
00C0
00C0
0140
0240
04C0
04C0
08C0
17C0
20C0
20C0
40C0
C1C0
ENDCHAR
STARTCHAR 1EA7
ENCODING 7847
SWIDTH 480 0
DWIDTH 10 0
BBX 9 19 1 0
BITMAP
0300
0100
0180
0080
0000
0300
0500
0880
0000
0000
1D80
2300
4300
C300
C200
8600
8600
9F00
E600
ENDCHAR
STARTCHAR 1EA8
ENCODING 7848
SWIDTH 624 0
DWIDTH 13 0
BBX 13 19 0 0
BITMAP
0018
0008
0010
0068
0000
0020
0060
00C0
00C0
0140
0240
04C0
04C0
08C0
17C0
20C0
20C0
40C0
C1C0
ENDCHAR
STARTCHAR 1EA9
ENCODING 7849
SWIDTH 480 0
DWIDTH 10 0
BBX 10 19 1 0
BITMAP
0080
0140
0080
0000
0000
0300
0500
0880
0000
0000
1D80
2300
4300
C300
C200
8600
8600
9F00
E600
ENDCHAR
STARTCHAR 1EAA
ENCODING 7850
SWIDTH 624 0
DWIDTH 13 0
BBX 14 19 0 0
BITMAP
0020
005C
0010
0068
0000
0020
0060
00C0
00C0
0140
0240
04C0
04C0
08C0
17C0
20C0
20C0
40C0
C1C0
ENDCHAR
STARTCHAR 1EAB
ENCODING 7851
SWIDTH 480 0
DWIDTH 10 0
BBX 11 18 1 0
BITMAP
07A0
01E0
0000
0000
0300
0500
0880
0000
0000
1D80
2300
4300
C300
C200
8600
8600
9F00
E600
ENDCHAR
STARTCHAR 1EAC
ENCODING 7852
SWIDTH 624 0
DWIDTH 13 0
BBX 13 20 0 -3
BITMAP
0010
0068
0000
0020
0060
00C0
00C0
0140
0240
04C0
04C0
08C0
17C0
20C0
20C0
40C0
C1C0
0000
1800
1800
ENDCHAR
STARTCHAR 1EAD
ENCODING 7853
SWIDTH 480 0
DWIDTH 10 0
BBX 9 17 1 -3
BITMAP
0300
0500
0880
0000
0000
1D80
2300
4300
C300
C200
8600
8600
9F00
E600
0000
2000
3000
ENDCHAR
STARTCHAR 1EAE
ENCODING 7854
SWIDTH 624 0
DWIDTH 13 0
BBX 14 19 0 0
BITMAP
000C
0010
0004
0078
0000
0020
0060
00C0
00C0
0140
0240
04C0
04C0
08C0
17C0
20C0
20C0
40C0
C1C0
ENDCHAR
STARTCHAR 1EAF
ENCODING 7855
SWIDTH 480 0
DWIDTH 10 0
BBX 10 19 1 0
BITMAP
01C0
0180
0100
0200
0000
1080
0F00
0600
0000
0000
1D80
2300
4300
C300
C200
8600
8600
9F00
E600
ENDCHAR
STARTCHAR 1EB0
ENCODING 7856
SWIDTH 624 0
DWIDTH 13 0
BBX 14 19 0 0
BITMAP
0070
0010
0004
0078
0000
0020
0060
00C0
00C0
0140
0240
04C0
04C0
08C0
17C0
20C0
20C0
40C0
C1C0
ENDCHAR
STARTCHAR 1EB1
ENCODING 7857
SWIDTH 480 0
DWIDTH 10 0
BBX 9 19 1 0
BITMAP
0600
0200
0100
0100
0000
1080
0F00
0600
0000
0000
1D80
2300
4300
C300
C200
8600
8600
9F00
E600
ENDCHAR
STARTCHAR 1EB2
ENCODING 7858
SWIDTH 624 0
DWIDTH 13 0
BBX 14 19 0 0
BITMAP
0018
0008
0004
0078
0000
0020
0060
00C0
00C0
0140
0240
04C0
04C0
08C0
17C0
20C0
20C0
40C0
C1C0
ENDCHAR
STARTCHAR 1EB3
ENCODING 7859
SWIDTH 480 0
DWIDTH 10 0
BBX 9 19 1 0
BITMAP
0100
0280
0100
0000
0000
1080
0F00
0600
0000
0000
1D80
2300
4300
C300
C200
8600
8600
9F00
E600
ENDCHAR
STARTCHAR 1EB4
ENCODING 7860
SWIDTH 624 0
DWIDTH 13 0
BBX 14 19 0 0
BITMAP
0020
005C
0004
0078
0000
0020
0060
00C0
00C0
0140
0240
04C0
04C0
08C0
17C0
20C0
20C0
40C0
C1C0
ENDCHAR
STARTCHAR 1EB5
ENCODING 7861
SWIDTH 480 0
DWIDTH 10 0
BBX 10 18 1 0
BITMAP
0F40
03C0
0000
0000
1080
0F00
0600
0000
0000
1D80
2300
4300
C300
C200
8600
8600
9F00
E600
ENDCHAR
STARTCHAR 1EB6
ENCODING 7862
SWIDTH 624 0
DWIDTH 13 0
BBX 14 20 0 -3
BITMAP
0004
0078
0000
0020
0060
00C0
00C0
0140
0240
04C0
04C0
08C0
17C0
20C0
20C0
40C0
C1C0
0000
1800
1800
ENDCHAR
STARTCHAR 1EB7
ENCODING 7863
SWIDTH 480 0
DWIDTH 10 0
BBX 9 17 1 -3
BITMAP
1080
0F00
0400
0000
0000
1D80
2300
4300
C300
C200
8600
8600
9F00
E600
0000
2000
3000
ENDCHAR
STARTCHAR 1EB8
ENCODING 7864
SWIDTH 624 0
DWIDTH 13 0
BBX 12 17 1 -3
BITMAP
3FF0
0C30
0810
1800
1800
1080
3F00
3100
3100
6000
6000
6040
40C0
FF80
0000
1800
1800
ENDCHAR
STARTCHAR 1EB9
ENCODING 7865
SWIDTH 432 0
DWIDTH 9 0
BBX 8 12 1 -3
BITMAP
1F
23
43
C6
D8
A0
80
C2
7C
00
20
60
ENDCHAR
STARTCHAR 1EBA
ENCODING 7866
SWIDTH 624 0
DWIDTH 13 0
BBX 12 19 1 0
BITMAP
0040
0040
0040
0000
0000
3FF0
0C30
0810
1800
1800
1080
3F00
3100
3100
6000
6000
6040
40C0
FF80
ENDCHAR
STARTCHAR 1EBB
ENCODING 7867
SWIDTH 432 0
DWIDTH 9 0
BBX 8 14 1 0
BITMAP
07
02
00
00
00
1F
23
43
C6
D8
A0
80
C2
7C
ENDCHAR
STARTCHAR 1EBC
ENCODING 7868
SWIDTH 624 0
DWIDTH 13 0
BBX 12 18 1 0
BITMAP
0310
03D0
04E0
0000
3FF0
0C30
0810
1800
1800
1080
3F00
3100
3100
6000
6000
6040
40C0
FF80
ENDCHAR
STARTCHAR 1EBD
ENCODING 7869
SWIDTH 432 0
DWIDTH 9 0
BBX 9 14 1 0
BITMAP
0C00
1780
0300
0000
0000
1F00
2300
4300
C600
D800
A000
8000
C200
7C00
ENDCHAR
STARTCHAR 1EBE
ENCODING 7870
SWIDTH 624 0
DWIDTH 13 0
BBX 12 19 1 0
BITMAP
0060
0040
00C0
0160
0000
3FF0
0C30
0810
1800
1800
1080
3F00
3100
3100
6000
6000
6040
40C0
FF80
ENDCHAR
STARTCHAR 1EBF
ENCODING 7871
SWIDTH 432 0
DWIDTH 9 0
BBX 9 19 1 0
BITMAP
0180
0180
0100
0200
0000
0700
0D00
1100
0000
0000
1F00
2300
4300
C600
D800
A000
8000
C200
7C00
ENDCHAR
STARTCHAR 1EC0
ENCODING 7872
SWIDTH 624 0
DWIDTH 13 0
BBX 12 19 1 0
BITMAP
00C0
0040
00C0
0160
0000
3FF0
0C30
0810
1800
1800
1080
3F00
3100
3100
6000
6000
6040
40C0
FF80
ENDCHAR
STARTCHAR 1EC1
ENCODING 7873
SWIDTH 432 0
DWIDTH 9 0
BBX 8 19 1 0
BITMAP
06
03
01
00
00
07
0D
11
00
00
1F
23
43
C6
D8
A0
80
C2
7C
ENDCHAR
STARTCHAR 1EC2
ENCODING 7874
SWIDTH 624 0
DWIDTH 13 0
BBX 12 19 1 0
BITMAP
0040
00C0
00C0
0160
0000
3FF0
0C30
0810
1800
1800
1080
3F00
3100
3100
6000
6000
6040
40C0
FF80
ENDCHAR
STARTCHAR 1EC3
ENCODING 7875
SWIDTH 432 0
DWIDTH 9 0
BBX 9 19 1 0
BITMAP
0080
0380
0100
0000
0000
0700
0D00
1100
0000
0000
1F00
2300
4300
C600
D800
A000
8000
C200
7C00
ENDCHAR
STARTCHAR 1EC4
ENCODING 7876
SWIDTH 624 0
DWIDTH 13 0
BBX 12 19 1 0
BITMAP
0100
02F0
00C0
0160
0000
3FF0
0C30
0810
1800
1800
1080
3F00
3100
3100
6000
6000
6040
40C0
FF80
ENDCHAR
STARTCHAR 1EC5
ENCODING 7877
SWIDTH 432 0
DWIDTH 9 0
BBX 10 18 1 0
BITMAP
0F40
09C0
0000
0000
0700
0D00
1100
0000
0000
1F00
2300
4300
C600
D800
A000
8000
C200
7C00
ENDCHAR
STARTCHAR 1EC6
ENCODING 7878
SWIDTH 624 0
DWIDTH 13 0
BBX 12 20 1 -3
BITMAP
00C0
0160
0000
3FF0
0C30
0810
1800
1800
1080
3F00
3100
3100
6000
6000
6040
40C0
FF80
0000
1800
1800
ENDCHAR
STARTCHAR 1EC7
ENCODING 7879
SWIDTH 432 0
DWIDTH 9 0
BBX 8 17 1 -3
BITMAP
07
0D
11
00
00
1F
23
43
C6
D8
A0
80
C2
7C
00
20
60
ENDCHAR
STARTCHAR 1EC8
ENCODING 7880
SWIDTH 336 0
DWIDTH 7 0
BBX 9 19 0 0
BITMAP
0100
0280
0100
0200
0000
1F00
0600
0400
0C00
0C00
0800
1800
1800
1800
3000
3000
3000
2000
F000
ENDCHAR
STARTCHAR 1EC9
ENCODING 7881
SWIDTH 288 0
DWIDTH 6 0
BBX 6 14 1 0
BITMAP
1C
08
00
00
00
F0
20
60
60
40
40
C0
E0
C0
ENDCHAR
STARTCHAR 1ECA
ENCODING 7882
SWIDTH 336 0
DWIDTH 7 0
BBX 8 17 0 -3
BITMAP
1F
06
04
0C
0C
08
18
18
18
30
30
30
20
70
80
40
60
ENDCHAR
STARTCHAR 1ECB
ENCODING 7883
SWIDTH 288 0
DWIDTH 6 0
BBX 5 16 1 -3
BITMAP
18
10
00
00
F0
20
60
60
40
40
C0
E0
C0
00
80
C0
ENDCHAR
STARTCHAR 1ECC
ENCODING 7884
SWIDTH 720 0
DWIDTH 15 0
BBX 14 17 1 -3
BITMAP
03F0
0418
1808
100C
300C
600C
600C
E018
C018
C038
C030
6060
60C0
3300
0C00
0800
1800
ENDCHAR
STARTCHAR 1ECD
ENCODING 7885
SWIDTH 480 0
DWIDTH 10 0
BBX 9 12 1 -3
BITMAP
1F00
2100
6180
C180
C100
8300
8300
8600
4800
3000
6000
6000
ENDCHAR
STARTCHAR 1ECE
ENCODING 7886
SWIDTH 720 0
DWIDTH 15 0
BBX 14 19 1 0
BITMAP
0020
0050
0020
0000
0000
03F0
0418
1808
100C
300C
600C
600C
E018
C018
C038
C030
6060
60C0
3F00
ENDCHAR
STARTCHAR 1ECF
ENCODING 7887
SWIDTH 480 0
DWIDTH 10 0
BBX 9 14 1 0
BITMAP
0700
0100
0200
0000
0000
1F00
2100
6180
C180
C100
8300
8300
8600
7800
ENDCHAR
STARTCHAR 1ED0
ENCODING 7888
SWIDTH 720 0
DWIDTH 15 0
BBX 14 19 1 0
BITMAP
0030
0020
0060
01B0
0000
03F0
0418
1808
100C
300C
600C
600C
E018
C018
C038
C030
6060
60C0
3F00
ENDCHAR
STARTCHAR 1ED1
ENCODING 7889
SWIDTH 480 0
DWIDTH 10 0
BBX 10 19 1 0
BITMAP
00C0
0180
0100
0000
0000
0300
0500
0880
0000
0000
1F00
2100
6180
C180
C100
8300
8300
8600
7800
ENDCHAR
STARTCHAR 1ED2
ENCODING 7890
SWIDTH 720 0
DWIDTH 15 0
BBX 14 19 1 0
BITMAP
0060
0020
0060
01B0
0000
03F0
0418
1808
100C
300C
600C
600C
E018
C018
C038
C030
6060
60C0
3F00
ENDCHAR
STARTCHAR 1ED3
ENCODING 7891
SWIDTH 480 0
DWIDTH 10 0
BBX 9 19 1 0
BITMAP
0300
0100
0180
0080
0000
0300
0500
0880
0000
0000
1F00
2100
6180
C180
C100
8300
8300
8600
7800
ENDCHAR
STARTCHAR 1ED4
ENCODING 7892
SWIDTH 720 0
DWIDTH 15 0
BBX 14 19 1 0
BITMAP
0020
0060
0060
01B0
0000
03F0
0418
1808
100C
300C
600C
600C
E018
C018
C038
C030
6060
60C0
3F00
ENDCHAR
STARTCHAR 1ED5
ENCODING 7893
SWIDTH 480 0
DWIDTH 10 0
BBX 10 19 1 0
BITMAP
0080
0140
0080
0000
0000
0300
0500
0880
0000
0000
1F00
2100
6180
C180
C100
8300
8300
8600
7800
ENDCHAR
STARTCHAR 1ED6
ENCODING 7894
SWIDTH 720 0
DWIDTH 15 0
BBX 14 19 1 0
BITMAP
0080
0178
0060
01B0
0000
03F0
0418
1808
100C
300C
600C
600C
E018
C018
C038
C030
6060
60C0
3F00
ENDCHAR
STARTCHAR 1ED7
ENCODING 7895
SWIDTH 480 0
DWIDTH 10 0
BBX 11 18 1 0
BITMAP
07A0
01E0
0000
0000
0300
0500
0880
0000
0000
1F00
2100
6180
C180
C100
8300
8300
8600
7800
ENDCHAR
STARTCHAR 1ED8
ENCODING 7896
SWIDTH 720 0
DWIDTH 15 0
BBX 14 20 1 -3
BITMAP
0060
01B0
0000
03F0
0418
1808
100C
300C
600C
600C
E018
C018
C038
C030
6060
60C0
3300
0C00
0800
1800
ENDCHAR
STARTCHAR 1ED9
ENCODING 7897
SWIDTH 480 0
DWIDTH 10 0
BBX 9 17 1 -3
BITMAP
0300
0500
0880
0000
0000
1F00
2100
6180
C180
C100
8300
8300
8600
4800
3000
6000
6000
ENDCHAR
STARTCHAR 1EDA
ENCODING 7898
SWIDTH 720 0
DWIDTH 15 0
BBX 16 18 1 0
BITMAP
0030
0020
0040
0000
03F3
0419
180E
100C
300C
600C
600C
E018
C018
C038
C030
6060
60C0
3F00
ENDCHAR
STARTCHAR 1EDB
ENCODING 7899
SWIDTH 528 0
DWIDTH 11 0
BBX 11 14 1 0
BITMAP
0300
0600
0400
0000
0060
1F60
21C0
6180
C180
C100
8300
8300
8600
7800
ENDCHAR
STARTCHAR 1EDC
ENCODING 7900
SWIDTH 720 0
DWIDTH 15 0
BBX 16 18 1 0
BITMAP
00C0
0060
0020
0000
03F3
0419
180E
100C
300C
600C
600C
E018
C018
C038
C030
6060
60C0
3F00
ENDCHAR
STARTCHAR 1EDD
ENCODING 7901
SWIDTH 528 0
DWIDTH 11 0
BBX 11 14 1 0
BITMAP
0600
0200
0100
0000
0060
1F60
21C0
6180
C180
C100
8300
8300
8600
7800
ENDCHAR
STARTCHAR 1EDE
ENCODING 7902
SWIDTH 720 0
DWIDTH 15 0
BBX 16 19 1 0
BITMAP
0020
0050
0020
0000
0000
03F3
0419
180E
100C
300C
600C
600C
E018
C018
C038
C030
6060
60C0
3F00
ENDCHAR
STARTCHAR 1EDF
ENCODING 7903
SWIDTH 528 0
DWIDTH 11 0
BBX 11 14 1 0
BITMAP
0700
0100
0200
0000
0060
1F60
21C0
6180
C180
C100
8300
8300
8600
7800
ENDCHAR
STARTCHAR 1EE0
ENCODING 7904
SWIDTH 720 0
DWIDTH 15 0
BBX 16 18 1 0
BITMAP
0080
01E8
0270
0000
03F3
0419
180E
100C
300C
600C
600C
E018
C018
C038
C030
6060
60C0
3F00
ENDCHAR
STARTCHAR 1EE1
ENCODING 7905
SWIDTH 528 0
DWIDTH 11 0
BBX 11 14 1 0
BITMAP
0C00
1780
0300
0000
0060
1F60
21C0
6180
C180
C100
8300
8300
8600
7800
ENDCHAR
STARTCHAR 1EE2
ENCODING 7906
SWIDTH 720 0
DWIDTH 15 0
BBX 16 17 1 -3
BITMAP
03F3
0419
180E
100C
300C
600C
600C
E018
C018
C038
C030
6060
60C0
3300
0C00
0800
1800
ENDCHAR
STARTCHAR 1EE3
ENCODING 7907
SWIDTH 528 0
DWIDTH 11 0
BBX 11 13 1 -3
BITMAP
0060
1F60
21C0
6180
C180
C100
8300
8300
8600
4800
3000
6000
6000
ENDCHAR
STARTCHAR 1EE4
ENCODING 7908
SWIDTH 720 0
DWIDTH 15 0
BBX 15 17 2 -3
BITMAP
7C3E
3008
3008
3010
2010
6010
6020
6020
C020
C020
C040
C040
6080
3F00
0000
1800
1800
ENDCHAR
STARTCHAR 1EE5
ENCODING 7909
SWIDTH 480 0
DWIDTH 10 0
BBX 9 12 1 -3
BITMAP
6180
A100
6300
6300
4200
CE00
CE00
D700
E600
0000
3000
3000
ENDCHAR
STARTCHAR 1EE6
ENCODING 7910
SWIDTH 720 0
DWIDTH 15 0
BBX 15 19 2 0
BITMAP
0040
00A0
0040
0080
0000
7C3E
3008
3008
3010
2010
6010
6020
6020
C020
C020
C040
C040
6080
3F00
ENDCHAR
STARTCHAR 1EE7
ENCODING 7911
SWIDTH 480 0
DWIDTH 10 0
BBX 9 14 1 0
BITMAP
0700
0200
0000
0000
0000
6180
A100
6300
6300
4200
CE00
CE00
D700
E600
ENDCHAR
STARTCHAR 1EE8
ENCODING 7912
SWIDTH 768 0
DWIDTH 16 0
BBX 17 18 2 0
BITMAP
00E000
008000
008180
000180
7C3E00
300800
300800
301000
201000
601000
602000
602000
C02000
C02000
C04000
C04000
608000
3F0000
ENDCHAR
STARTCHAR 1EE9
ENCODING 7913
SWIDTH 528 0
DWIDTH 11 0
BBX 11 14 1 0
BITMAP
0300
0600
0400
0000
0000
61E0
A120
63C0
6300
4300
CE00
CE00
D700
E600
ENDCHAR
STARTCHAR 1EEA
ENCODING 7914
SWIDTH 768 0
DWIDTH 16 0
BBX 17 18 2 0
BITMAP
00C000
004000
004180
000180
7C3E00
300800
300800
301000
201000
601000
602000
602000
C02000
C02000
C04000
C04000
608000
3F0000
ENDCHAR
STARTCHAR 1EEB
ENCODING 7915
SWIDTH 528 0
DWIDTH 11 0
BBX 11 14 1 0
BITMAP
0C00
0400
0400
0000
0000
61E0
A120
63C0
6300
4300
CE00
CE00
D700
E600
ENDCHAR
STARTCHAR 1EEC
ENCODING 7916
SWIDTH 768 0
DWIDTH 16 0
BBX 17 19 2 0
BITMAP
004000
00A000
004000
008180
000180
7C3E00
300800
300800
301000
201000
601000
602000
602000
C02000
C02000
C04000
C04000
608000
3F0000
ENDCHAR
STARTCHAR 1EED
ENCODING 7917
SWIDTH 528 0
DWIDTH 11 0
BBX 11 14 1 0
BITMAP
0700
0200
0000
0000
0000
61E0
A120
63C0
6300
4300
CE00
CE00
D700
E600
ENDCHAR
STARTCHAR 1EEE
ENCODING 7918
SWIDTH 768 0
DWIDTH 16 0
BBX 17 18 2 0
BITMAP
010000
03D000
006180
000180
7C3E00
300800
300800
301000
201000
601000
602000
602000
C02000
C02000
C04000
C04000
608000
3F0000
ENDCHAR
STARTCHAR 1EEF
ENCODING 7919
SWIDTH 528 0
DWIDTH 11 0
BBX 11 14 1 0
BITMAP
0C00
1780
0300
0000
0000
61E0
A120
63C0
6300
4300
CE00
CE00
D700
E600
ENDCHAR
STARTCHAR 1EF0
ENCODING 7920
SWIDTH 768 0
DWIDTH 16 0
BBX 17 19 2 -3
BITMAP
000180
000180
7C3E00
300800
300800
301000
201000
601000
602000
602000
C02000
C02000
C04000
C04000
608000
3F0000
000000
180000
180000
ENDCHAR
STARTCHAR 1EF1
ENCODING 7921
SWIDTH 528 0
DWIDTH 11 0
BBX 11 12 1 -3
BITMAP
61E0
A120
63C0
6300
4300
CE00
CE00
D700
E600
0000
3000
3000
ENDCHAR
STARTCHAR 1EF2
ENCODING 7922
SWIDTH 576 0
DWIDTH 12 0
BBX 12 18 2 0
BITMAP
0600
0200
0100
0000
F9F0
3040
3080
1100
1900
1A00
0C00
0C00
1800
1800
1800
3000
3000
7800
ENDCHAR
STARTCHAR 1EF3
ENCODING 7923
SWIDTH 432 0
DWIDTH 9 0
BBX 11 18 -2 -4
BITMAP
0300
0180
0080
0000
0000
3C60
0C20
0420
0440
0440
0480
0500
0600
0600
0400
0800
1000
E000
ENDCHAR
STARTCHAR 1EF4
ENCODING 7924
SWIDTH 576 0
DWIDTH 12 0
BBX 12 17 2 -3
BITMAP
F9F0
3040
3080
1100
1900
1A00
0C00
0C00
1800
1800
1800
3000
3000
7800
0000
2000
6000
ENDCHAR
STARTCHAR 1EF5
ENCODING 7925
SWIDTH 432 0
DWIDTH 9 0
BBX 11 13 -2 -4
BITMAP
3C60
0C20
0420
0440
0440
0480
0500
0600
0600
0400
0900
1180
E000
ENDCHAR
STARTCHAR 1EF6
ENCODING 7926
SWIDTH 576 0
DWIDTH 12 0
BBX 12 19 2 0
BITMAP
0100
0280
0100
0000
0000
F9F0
3040
3080
1100
1900
1A00
0C00
0C00
1800
1800
1800
3000
3000
7800
ENDCHAR
STARTCHAR 1EF7
ENCODING 7927
SWIDTH 432 0
DWIDTH 9 0
BBX 11 18 -2 -4
BITMAP
01C0
0040
0080
0000
0000
3C60
0C20
0420
0440
0440
0480
0500
0600
0600
0400
0800
1000
E000
ENDCHAR
STARTCHAR 1EF8
ENCODING 7928
SWIDTH 576 0
DWIDTH 12 0
BBX 12 18 2 0
BITMAP
0600
0F40
01C0
0000
F9F0
3040
3080
1100
1900
1A00
0C00
0C00
1800
1800
1800
3000
3000
7800
ENDCHAR
STARTCHAR 1EF9
ENCODING 7929
SWIDTH 432 0
DWIDTH 9 0
BBX 12 18 -2 -4
BITMAP
0390
05D0
0460
0000
0000
3C60
0C20
0420
0440
0440
0480
0500
0600
0600
0400
0800
1000
E000
ENDCHAR
STARTCHAR 200C
ENCODING 8204
SWIDTH 0 0
DWIDTH 0 0
BBX 1 15 -1 -3
BITMAP
80
80
80
80
80
80
80
80
80
80
80
80
80
80
80
ENDCHAR
STARTCHAR 200D
ENCODING 8205
SWIDTH 0 0
DWIDTH 0 0
BBX 4 16 -2 -3
BITMAP
90
60
60
D0
40
40
40
40
40
40
40
40
40
40
40
40
ENDCHAR
STARTCHAR 200E
ENCODING 8206
SWIDTH 0 0
DWIDTH 0 0
BBX 4 16 0 -3
BITMAP
20
F0
90
A0
80
80
80
80
80
80
80
80
80
80
80
80
ENDCHAR
STARTCHAR 200F
ENCODING 8207
SWIDTH 0 0
DWIDTH 0 0
BBX 4 16 -4 -3
BITMAP
40
F0
90
50
10
10
10
10
10
10
10
10
10
10
10
10
ENDCHAR
STARTCHAR 2013
ENCODING 8211
SWIDTH 480 0
DWIDTH 10 0
BBX 10 1 0 5
BITMAP
FFC0
ENDCHAR
STARTCHAR 2014
ENCODING 8212
SWIDTH 912 0
DWIDTH 19 0
BBX 18 1 0 5
BITMAP
FFFFC0
ENDCHAR
STARTCHAR 2015
ENCODING 8213
SWIDTH 1008 0
DWIDTH 21 0
BBX 19 1 1 5
BITMAP
FFFFE0
ENDCHAR
STARTCHAR 2017
ENCODING 8215
SWIDTH 480 0
DWIDTH 10 0
BBX 11 1 0 -4
BITMAP
FFE0
ENDCHAR
STARTCHAR 2018
ENCODING 8216
SWIDTH 336 0
DWIDTH 7 0
BBX 3 4 4 10
BITMAP
20
40
C0
C0
ENDCHAR
STARTCHAR 2019
ENCODING 8217
SWIDTH 336 0
DWIDTH 7 0
BBX 2 4 5 10
BITMAP
C0
C0
40
80
ENDCHAR
STARTCHAR 201A
ENCODING 8218
SWIDTH 336 0
DWIDTH 7 0
BBX 3 5 1 -3
BITMAP
40
60
40
40
80
ENDCHAR
STARTCHAR 201B
ENCODING 8219
SWIDTH 336 0
DWIDTH 7 0
BBX 2 4 5 10
BITMAP
C0
C0
80
80
ENDCHAR
STARTCHAR 201C
ENCODING 8220
SWIDTH 576 0
DWIDTH 12 0
BBX 7 4 4 10
BITMAP
02
C4
C4
C6
ENDCHAR
STARTCHAR 201D
ENCODING 8221
SWIDTH 576 0
DWIDTH 12 0
BBX 7 4 4 10
BITMAP
66
62
42
84
ENDCHAR
STARTCHAR 201E
ENCODING 8222
SWIDTH 576 0
DWIDTH 12 0
BBX 8 5 0 -3
BITMAP
23
63
21
42
84
ENDCHAR
STARTCHAR 2020
ENCODING 8224
SWIDTH 480 0
DWIDTH 10 0
BBX 9 17 2 -4
BITMAP
0600
0600
0400
0800
FF80
4900
1800
1800
1000
1000
2000
2000
2000
4000
4000
4000
8000
ENDCHAR
STARTCHAR 2021
ENCODING 8225
SWIDTH 480 0
DWIDTH 10 0
BBX 10 18 0 -4
BITMAP
0180
0100
0100
1AC0
1740
0200
0600
0400
0800
0800
0800
1800
1800
9200
FE00
2000
2000
2000
ENDCHAR
STARTCHAR 2022
ENCODING 8226
SWIDTH 336 0
DWIDTH 7 0
BBX 5 5 2 4
BITMAP
F0
F8
F8
F0
60
ENDCHAR
STARTCHAR 2026
ENCODING 8230
SWIDTH 912 0
DWIDTH 19 0
BBX 13 2 3 0
BITMAP
C618
C618
ENDCHAR
STARTCHAR 2030
ENCODING 8240
SWIDTH 1008 0
DWIDTH 21 0
BBX 20 15 1 -1
BITMAP
1C1000
642000
464000
C64000
C48000
CD0000
4A0000
3260C0
059120
091230
131630
131620
223660
412240
80C180
ENDCHAR
STARTCHAR 2032
ENCODING 8242
SWIDTH 240 0
DWIDTH 5 0
BBX 2 5 3 8
BITMAP
40
C0
C0
80
80
ENDCHAR
STARTCHAR 2033
ENCODING 8243
SWIDTH 432 0
DWIDTH 9 0
BBX 6 6 3 8
BITMAP
64
CC
CC
C8
88
80
ENDCHAR
STARTCHAR 2039
ENCODING 8249
SWIDTH 336 0
DWIDTH 7 0
BBX 5 9 1 0
BITMAP
08
10
20
60
C0
40
40
20
20
ENDCHAR
STARTCHAR 203A
ENCODING 8250
SWIDTH 336 0
DWIDTH 7 0
BBX 5 9 1 0
BITMAP
20
20
30
10
18
30
60
40
80
ENDCHAR
STARTCHAR 203C
ENCODING 8252
SWIDTH 576 0
DWIDTH 12 0
BBX 10 14 2 0
BITMAP
18C0
1080
3180
3180
2100
2100
2100
4200
4200
4200
0000
0000
8400
C600
ENDCHAR
STARTCHAR 203E
ENCODING 8254
SWIDTH 336 0
DWIDTH 7 0
BBX 7 1 2 12
BITMAP
FE
ENDCHAR
STARTCHAR 2044
ENCODING 8260
SWIDTH 144 0
DWIDTH 3 0
BBX 10 14 -3 -1
BITMAP
0040
0080
0100
0100
0200
0400
0400
0800
1000
1000
2000
4000
4000
8000
ENDCHAR
STARTCHAR 207F
ENCODING 8319
SWIDTH 336 0
DWIDTH 7 0
BBX 6 5 0 6
BITMAP
7C
64
48
48
8C
ENDCHAR
STARTCHAR 20A3
ENCODING 8355
SWIDTH 480 0
DWIDTH 10 0
BBX 11 14 0 0
BITMAP
1FE0
0620
0C20
0C20
0C00
0880
1F80
1900
1900
3000
3000
7C00
2000
F000
ENDCHAR
STARTCHAR 20A4
ENCODING 8356
SWIDTH 480 0
DWIDTH 10 0
BBX 11 14 0 0
BITMAP
01C0
0260
0600
0600
0C00
0C00
3F00
7F00
0800
0800
1800
3000
DC00
EF80
ENDCHAR
STARTCHAR 20A7
ENCODING 8359
SWIDTH 1008 0
DWIDTH 21 0
BBX 19 14 1 0
BITMAP
1F8000
0E6000
0C3400
0C3800
0C7800
187DE0
18D320
1F1320
183180
303180
3020C0
302840
706840
F07F80
ENDCHAR
STARTCHAR 20AA
ENCODING 8362
SWIDTH 768 0
DWIDTH 16 0
BBX 16 11 0 0
BITMAP
1FC1
1831
1033
3033
3222
2226
6666
6604
440C
4C0C
CFF8
ENDCHAR
STARTCHAR 20AB
ENCODING 8363
SWIDTH 528 0
DWIDTH 11 0
BBX 10 11 1 3
BITMAP
0080
03C0
0080
0F00
1100
2100
2300
2200
2200
3E00
FF00
ENDCHAR
STARTCHAR 20AC
ENCODING 8364
SWIDTH 480 0
DWIDTH 10 0
BBX 12 14 0 0
BITMAP
03F0
0610
0C10
1800
3000
3000
7F80
FF80
6000
6000
6000
6000
6180
3E00
ENDCHAR
STARTCHAR 2105
ENCODING 8453
SWIDTH 816 0
DWIDTH 17 0
BBX 16 15 1 -1
BITMAP
1E02
2204
4008
4010
4020
4040
6880
111E
0223
0463
0843
1042
2046
4068
8010
ENDCHAR
STARTCHAR 2113
ENCODING 8467
SWIDTH 432 0
DWIDTH 9 0
BBX 8 14 1 0
BITMAP
07
09
19
12
14
38
30
20
E0
60
40
40
4C
70
ENDCHAR
STARTCHAR 2116
ENCODING 8470
SWIDTH 960 0
DWIDTH 20 0
BBX 20 14 -1 0
BITMAP
070300
030580
038400
038800
0588F0
048910
04D310
08D210
08D230
085220
1061C0
106000
D06000
E047C0
ENDCHAR
STARTCHAR 2122
ENCODING 8482
SWIDTH 960 0
DWIDTH 20 0
BBX 20 8 2 6
BITMAP
FFF070
9930E0
185160
185960
184960
184E60
184E60
1864E0
ENDCHAR
STARTCHAR 2126
ENCODING 8486
SWIDTH 768 0
DWIDTH 16 0
BBX 15 14 1 0
BITMAP
0FC0
3030
7018
601C
E01C
E00C
E00C
601C
601C
7018
3830
8442
FCFE
FCFE
ENDCHAR
STARTCHAR 212E
ENCODING 8494
SWIDTH 624 0
DWIDTH 13 0
BBX 11 11 1 0
BITMAP
1F00
6080
40C0
C0C0
C0E0
FFE0
C000
C000
4040
4080
3F00
ENDCHAR
STARTCHAR 2153
ENCODING 8531
SWIDTH 768 0
DWIDTH 16 0
BBX 11 15 3 -1
BITMAP
6040
2080
4100
4100
4200
8400
8400
08E0
1020
1060
21C0
4060
4040
8240
8180
ENDCHAR
STARTCHAR 2154
ENCODING 8532
SWIDTH 768 0
DWIDTH 16 0
BBX 12 15 2 -1
BITMAP
7020
0840
0880
1080
2100
4200
F200
0470
0810
0830
10E0
2030
2020
4120
40C0
ENDCHAR
STARTCHAR 215B
ENCODING 8539
SWIDTH 768 0
DWIDTH 16 0
BBX 12 15 3 -1
BITMAP
6040
2080
4100
4100
4200
8400
8400
08E0
1110
11A0
20C0
4360
4220
8240
8180
ENDCHAR
STARTCHAR 215C
ENCODING 8540
SWIDTH 768 0
DWIDTH 16 0
BBX 14 15 1 -1
BITMAP
1810
2C20
0840
3840
0880
0900
D100
2238
0444
0468
0830
08D8
1088
2090
2060
ENDCHAR
STARTCHAR 215D
ENCODING 8541
SWIDTH 768 0
DWIDTH 16 0
BBX 14 15 1 -1
BITMAP
1C10
2020
3040
0840
0880
0900
D100
2238
0444
0468
0830
08D8
1088
2090
2060
ENDCHAR
STARTCHAR 215E
ENCODING 8542
SWIDTH 768 0
DWIDTH 16 0
BBX 13 15 2 -1
BITMAP
7C40
0840
1080
1100
2100
4200
4200
0470
0888
08D0
1060
21B0
2110
4120
80C0
ENDCHAR
STARTCHAR 2190
ENCODING 8592
SWIDTH 1008 0
DWIDTH 21 0
BBX 19 7 1 2
BITMAP
080000
100000
600000
FFFFE0
600000
300000
100000
ENDCHAR
STARTCHAR 2191
ENCODING 8593
SWIDTH 480 0
DWIDTH 10 0
BBX 7 17 2 -3
BITMAP
30
38
7C
96
10
10
10
10
10
10
10
10
10
10
10
10
10
ENDCHAR
STARTCHAR 2192
ENCODING 8594
SWIDTH 1008 0
DWIDTH 21 0
BBX 19 7 1 2
BITMAP
000200
000100
000180
FFFFE0
0000C0
000180
000300
ENDCHAR
STARTCHAR 2193
ENCODING 8595
SWIDTH 480 0
DWIDTH 10 0
BBX 6 18 2 -4
BITMAP
10
10
10
10
10
10
10
10
10
10
10
10
10
10
D4
78
38
30
ENDCHAR
STARTCHAR 2194
ENCODING 8596
SWIDTH 1008 0
DWIDTH 21 0
BBX 19 7 1 2
BITMAP
080200
100100
600180
FFFFE0
6000C0
300180
100300
ENDCHAR
STARTCHAR 2195
ENCODING 8597
SWIDTH 480 0
DWIDTH 10 0
BBX 7 19 2 -4
BITMAP
10
30
78
DC
92
10
10
10
10
10
10
10
10
10
10
D6
78
38
10
ENDCHAR
STARTCHAR 21A8
ENCODING 8616
SWIDTH 480 0
DWIDTH 10 0
BBX 7 21 2 -6
BITMAP
10
30
78
DC
92
10
10
10
10
10
10
10
10
10
10
D6
78
38
10
00
FE
ENDCHAR
STARTCHAR 2202
ENCODING 8706
SWIDTH 480 0
DWIDTH 10 0
BBX 9 14 1 0
BITMAP
1F00
2180
0080
0080
0080
1E80
6180
4080
C080
C100
8100
8200
C200
7C00
ENDCHAR
STARTCHAR 2206
ENCODING 8710
SWIDTH 624 0
DWIDTH 13 0
BBX 11 14 0 0
BITMAP
0400
0400
0600
0E00
0B00
1300
1300
2180
2180
40C0
40C0
80E0
8060
FFE0
ENDCHAR
STARTCHAR 220F
ENCODING 8719
SWIDTH 816 0
DWIDTH 17 0
BBX 15 18 2 -4
BITMAP
FFFE
700C
700C
700C
700C
700C
700C
700C
700C
700C
700C
700C
700C
700C
700C
700C
700C
701C
ENDCHAR
STARTCHAR 2211
ENCODING 8721
SWIDTH 720 0
DWIDTH 15 0
BBX 13 18 1 -4
BITMAP
FFF8
6008
7008
3800
1800
0C00
0E00
0700
0300
0200
0400
0800
0800
1000
2000
4008
4018
FFF8
ENDCHAR
STARTCHAR 2212
ENCODING 8722
SWIDTH 672 0
DWIDTH 14 0
BBX 10 1 2 7
BITMAP
FFC0
ENDCHAR
STARTCHAR 2215
ENCODING 8725
SWIDTH 144 0
DWIDTH 3 0
BBX 10 14 -3 -1
BITMAP
0040
0080
0100
0100
0200
0400
0400
0800
1000
1000
2000
4000
4000
8000
ENDCHAR
STARTCHAR 2219
ENCODING 8729
SWIDTH 240 0
DWIDTH 5 0
BBX 2 2 2 6
BITMAP
C0
C0
ENDCHAR
STARTCHAR 221A
ENCODING 8730
SWIDTH 528 0
DWIDTH 11 0
BBX 10 19 1 -1
BITMAP
0040
0040
0040
0040
0040
0040
0080
0080
2080
F080
1080
1880
0900
0D00
0500
0700
0300
0300
0200
ENDCHAR
STARTCHAR 221E
ENCODING 8734
SWIDTH 720 0
DWIDTH 15 0
BBX 13 9 1 1
BITMAP
00C0
71B0
8B08
8608
8608
8608
8E08
5910
20E0
ENDCHAR
STARTCHAR 221F
ENCODING 8735
SWIDTH 960 0
DWIDTH 20 0
BBX 13 13 4 0
BITMAP
8000
8000
8000
8000
8000
8000
8000
8000
8000
8000
8000
8000
FFF8
ENDCHAR
STARTCHAR 2229
ENCODING 8745
SWIDTH 720 0
DWIDTH 15 0
BBX 11 14 2 0
BITMAP
1F00
2080
4040
C060
8020
8020
8020
8020
8020
8020
8020
8020
8020
8020
ENDCHAR
STARTCHAR 222B
ENCODING 8747
SWIDTH 288 0
DWIDTH 6 0
BBX 6 21 0 -2
BITMAP
18
1C
20
20
20
20
20
30
30
30
30
30
30
30
30
30
20
20
20
E0
E0
ENDCHAR
STARTCHAR 2248
ENCODING 8776
SWIDTH 528 0
DWIDTH 11 0
BBX 11 8 0 3
BITMAP
2000
5C20
83C0
0000
0000
2000
5C20
83C0
ENDCHAR
STARTCHAR 2260
ENCODING 8800
SWIDTH 528 0
DWIDTH 11 0
BBX 11 17 0 -3
BITMAP
0080
0080
0100
0100
0100
0200
FFE0
0200
0400
0400
FFE0
0800
0800
1000
1000
2000
2000
ENDCHAR
STARTCHAR 2261
ENCODING 8801
SWIDTH 672 0
DWIDTH 14 0
BBX 11 8 2 3
BITMAP
FFE0
0000
0000
0000
FFE0
0000
0000
FFE0
ENDCHAR
STARTCHAR 2264
ENCODING 8804
SWIDTH 528 0
DWIDTH 11 0
BBX 11 14 1 -1
BITMAP
00E0
0300
0C00
7000
8000
7000
0C00
0380
0060
0000
0000
0000
0000
FFE0
ENDCHAR
STARTCHAR 2265
ENCODING 8805
SWIDTH 528 0
DWIDTH 11 0
BBX 11 14 1 -1
BITMAP
E000
3800
0600
01C0
0020
01C0
0600
3800
C000
0000
0000
0000
0000
FFE0
ENDCHAR
STARTCHAR 2302
ENCODING 8962
SWIDTH 624 0
DWIDTH 13 0
BBX 9 11 2 1
BITMAP
1800
2400
6200
C100
8080
8080
8080
8080
8080
8080
FF80
ENDCHAR
STARTCHAR 2310
ENCODING 8976
SWIDTH 672 0
DWIDTH 14 0
BBX 11 4 2 5
BITMAP
FFE0
8000
8000
8000
ENDCHAR
STARTCHAR 2320
ENCODING 8992
SWIDTH 624 0
DWIDTH 13 0
BBX 4 23 6 -5
BITMAP
20
F0
80
80
80
80
80
80
80
80
80
80
80
80
80
80
80
80
80
80
80
80
80
ENDCHAR
STARTCHAR 2321
ENCODING 8993
SWIDTH 624 0
DWIDTH 13 0
BBX 4 23 3 -5
BITMAP
10
10
10
10
10
10
10
10
10
10
10
10
10
10
10
10
10
10
10
10
10
90
E0
ENDCHAR
STARTCHAR 2500
ENCODING 9472
SWIDTH 720 0
DWIDTH 15 0
BBX 15 2 0 5
BITMAP
FFFE
FFFE
ENDCHAR
STARTCHAR 2502
ENCODING 9474
SWIDTH 624 0
DWIDTH 13 0
BBX 1 25 5 -6
BITMAP
80
80
80
80
80
80
80
80
80
80
80
80
80
80
80
80
80
80
80
80
80
80
80
80
80
ENDCHAR
STARTCHAR 250C
ENCODING 9484
SWIDTH 720 0
DWIDTH 15 0
BBX 9 13 6 -6
BITMAP
FF80
FF80
C000
C000
C000
C000
C000
C000
C000
C000
C000
C000
C000
ENDCHAR
STARTCHAR 2510
ENCODING 9488
SWIDTH 720 0
DWIDTH 15 0
BBX 8 13 0 -6
BITMAP
FF
FF
03
03
03
03
03
03
03
03
03
03
03
ENDCHAR
STARTCHAR 2514
ENCODING 9492
SWIDTH 720 0
DWIDTH 15 0
BBX 9 14 6 5
BITMAP
C000
C000
C000
C000
C000
C000
C000
C000
C000
C000
C000
C000
FF80
FF80
ENDCHAR
STARTCHAR 2518
ENCODING 9496
SWIDTH 720 0
DWIDTH 15 0
BBX 8 14 0 5
BITMAP
03
03
03
03
03
03
03
03
03
03
03
03
FF
FF
ENDCHAR
STARTCHAR 251C
ENCODING 9500
SWIDTH 720 0
DWIDTH 15 0
BBX 9 25 6 -6
BITMAP
C000
C000
C000
C000
C000
C000
C000
C000
C000
C000
C000
C000
FF80
FF80
C000
C000
C000
C000
C000
C000
C000
C000
C000
C000
C000
ENDCHAR
STARTCHAR 2524
ENCODING 9508
SWIDTH 720 0
DWIDTH 15 0
BBX 8 25 0 -6
BITMAP
03
03
03
03
03
03
03
03
03
03
03
03
FF
FF
03
03
03
03
03
03
03
03
03
03
03
ENDCHAR
STARTCHAR 252C
ENCODING 9516
SWIDTH 720 0
DWIDTH 15 0
BBX 15 13 0 -6
BITMAP
FFFE
FFFE
0300
0300
0300
0300
0300
0300
0300
0300
0300
0300
0300
ENDCHAR
STARTCHAR 2534
ENCODING 9524
SWIDTH 720 0
DWIDTH 15 0
BBX 15 14 0 5
BITMAP
0300
0300
0300
0300
0300
0300
0300
0300
0300
0300
0300
0300
FFFE
FFFE
ENDCHAR
STARTCHAR 253C
ENCODING 9532
SWIDTH 720 0
DWIDTH 15 0
BBX 15 25 0 -6
BITMAP
0300
0300
0300
0300
0300
0300
0300
0300
0300
0300
0300
0300
FFFE
FFFE
0300
0300
0300
0300
0300
0300
0300
0300
0300
0300
0300
ENDCHAR
STARTCHAR 2550
ENCODING 9552
SWIDTH 720 0
DWIDTH 15 0
BBX 15 5 0 4
BITMAP
FFFE
FFFE
0000
0000
FFFE
ENDCHAR
STARTCHAR 2551
ENCODING 9553
SWIDTH 720 0
DWIDTH 15 0
BBX 5 25 5 -6
BITMAP
98
98
98
98
98
98
98
98
98
98
98
98
98
98
98
98
98
98
98
98
98
98
98
98
98
ENDCHAR
STARTCHAR 2552
ENCODING 9554
SWIDTH 720 0
DWIDTH 15 0
BBX 9 15 6 -6
BITMAP
FF80
FF80
C000
C000
FF80
FF80
C000
C000
C000
C000
C000
C000
C000
C000
C000
ENDCHAR
STARTCHAR 2553
ENCODING 9555
SWIDTH 720 0
DWIDTH 15 0
BBX 10 13 5 -6
BITMAP
FFC0
FFC0
9800
9800
9800
9800
9800
9800
9800
9800
9800
9800
9800
ENDCHAR
STARTCHAR 2554
ENCODING 9556
SWIDTH 720 0
DWIDTH 15 0
BBX 10 15 5 -6
BITMAP
FFC0
FFC0
8000
8000
9FC0
9FC0
9800
9800
9800
9800
9800
9800
9800
9800
9800
ENDCHAR
STARTCHAR 2555
ENCODING 9557
SWIDTH 720 0
DWIDTH 15 0
BBX 8 15 0 -6
BITMAP
FF
FF
03
03
FF
03
03
03
03
03
03
03
03
03
03
ENDCHAR
STARTCHAR 2556
ENCODING 9558
SWIDTH 720 0
DWIDTH 15 0
BBX 10 13 0 -6
BITMAP
FFC0
FFC0
04C0
04C0
04C0
04C0
04C0
04C0
04C0
04C0
04C0
04C0
04C0
ENDCHAR
STARTCHAR 2557
ENCODING 9559
SWIDTH 720 0
DWIDTH 15 0
BBX 10 15 0 -6
BITMAP
FFC0
FFC0
00C0
00C0
FCC0
04C0
04C0
04C0
04C0
04C0
04C0
04C0
04C0
04C0
04C0
ENDCHAR
STARTCHAR 2558
ENCODING 9560
SWIDTH 720 0
DWIDTH 15 0
BBX 9 15 6 4
BITMAP
C000
C000
C000
C000
C000
C000
C000
C000
C000
C000
FF80
FF80
C000
C000
FF80
ENDCHAR
STARTCHAR 2559
ENCODING 9561
SWIDTH 720 0
DWIDTH 15 0
BBX 10 14 5 5
BITMAP
9800
9800
9800
9800
9800
9800
9800
9800
9800
9800
9800
9800
FFC0
FFC0
ENDCHAR
STARTCHAR 255A
ENCODING 9562
SWIDTH 720 0
DWIDTH 15 0
BBX 10 15 5 4
BITMAP
9800
9800
9800
9800
9800
9800
9800
9800
9800
9800
9FC0
9FC0
8000
8000
FFC0
ENDCHAR
STARTCHAR 255B
ENCODING 9563
SWIDTH 720 0
DWIDTH 15 0
BBX 8 15 0 4
BITMAP
03
03
03
03
03
03
03
03
03
03
FF
FF
03
03
FF
ENDCHAR
STARTCHAR 255C
ENCODING 9564
SWIDTH 720 0
DWIDTH 15 0
BBX 10 14 0 5
BITMAP
04C0
04C0
04C0
04C0
04C0
04C0
04C0
04C0
04C0
04C0
04C0
04C0
FFC0
FFC0
ENDCHAR
STARTCHAR 255D
ENCODING 9565
SWIDTH 720 0
DWIDTH 15 0
BBX 10 15 0 4
BITMAP
04C0
04C0
04C0
04C0
04C0
04C0
04C0
04C0
04C0
04C0
FCC0
FCC0
00C0
00C0
FFC0
ENDCHAR
STARTCHAR 255E
ENCODING 9566
SWIDTH 720 0
DWIDTH 15 0
BBX 9 25 6 -6
BITMAP
C000
C000
C000
C000
C000
C000
C000
C000
C000
C000
FF80
FF80
C000
C000
FF80
FF80
C000
C000
C000
C000
C000
C000
C000
C000
C000
ENDCHAR
STARTCHAR 255F
ENCODING 9567
SWIDTH 720 0
DWIDTH 15 0
BBX 10 25 5 -6
BITMAP
9800
9800
9800
9800
9800
9800
9800
9800
9800
9800
9800
9800
9FC0
9FC0
9800
9800
9800
9800
9800
9800
9800
9800
9800
9800
9800
ENDCHAR
STARTCHAR 2560
ENCODING 9568
SWIDTH 720 0
DWIDTH 15 0
BBX 10 25 5 -6
BITMAP
9800
9800
9800
9800
9800
9800
9800
9800
9800
9800
9FC0
9FC0
8000
8000
9FC0
9FC0
9800
9800
9800
9800
9800
9800
9800
9800
9800
ENDCHAR
STARTCHAR 2561
ENCODING 9569
SWIDTH 720 0
DWIDTH 15 0
BBX 8 25 0 -6
BITMAP
03
03
03
03
03
03
03
03
03
03
FF
FF
03
03
FF
03
03
03
03
03
03
03
03
03
03
ENDCHAR
STARTCHAR 2562
ENCODING 9570
SWIDTH 720 0
DWIDTH 15 0
BBX 10 25 0 -6
BITMAP
04C0
04C0
04C0
04C0
04C0
04C0
04C0
04C0
04C0
04C0
04C0
04C0
FCC0
FCC0
04C0
04C0
04C0
04C0
04C0
04C0
04C0
04C0
04C0
04C0
04C0
ENDCHAR
STARTCHAR 2563
ENCODING 9571
SWIDTH 720 0
DWIDTH 15 0
BBX 10 25 0 -6
BITMAP
04C0
04C0
04C0
04C0
04C0
04C0
04C0
04C0
04C0
04C0
FCC0
FCC0
00C0
00C0
FCC0
04C0
04C0
04C0
04C0
04C0
04C0
04C0
04C0
04C0
04C0
ENDCHAR
STARTCHAR 2564
ENCODING 9572
SWIDTH 720 0
DWIDTH 15 0
BBX 15 15 0 -6
BITMAP
FFFE
FFFE
0000
0000
FFFE
03FE
0300
0300
0300
0300
0300
0300
0300
0300
0300
ENDCHAR
STARTCHAR 2565
ENCODING 9573
SWIDTH 720 0
DWIDTH 15 0
BBX 15 13 0 -6
BITMAP
FFFE
FFFE
04C0
04C0
04C0
04C0
04C0
04C0
04C0
04C0
04C0
04C0
04C0
ENDCHAR
STARTCHAR 2566
ENCODING 9574
SWIDTH 720 0
DWIDTH 15 0
BBX 15 15 0 -6
BITMAP
FFFE
FFFE
0000
0000
FCFE
04FE
04C0
04C0
04C0
04C0
04C0
04C0
04C0
04C0
04C0
ENDCHAR
STARTCHAR 2567
ENCODING 9575
SWIDTH 720 0
DWIDTH 15 0
BBX 15 15 0 4
BITMAP
0300
0300
0300
0300
0300
0300
0300
0300
0300
0300
FFFE
FFFE
0000
0000
FFFE
ENDCHAR
STARTCHAR 2568
ENCODING 9576
SWIDTH 720 0
DWIDTH 15 0
BBX 15 14 0 5
BITMAP
04C0
04C0
04C0
04C0
04C0
04C0
04C0
04C0
04C0
04C0
04C0
04C0
FFFE
FFFE
ENDCHAR
STARTCHAR 2569
ENCODING 9577
SWIDTH 720 0
DWIDTH 15 0
BBX 15 15 0 4
BITMAP
04C0
04C0
04C0
04C0
04C0
04C0
04C0
04C0
04C0
04C0
FCFE
FCFE
0000
0000
FFFE
ENDCHAR
STARTCHAR 256A
ENCODING 9578
SWIDTH 720 0
DWIDTH 15 0
BBX 15 25 0 -6
BITMAP
0300
0300
0300
0300
0300
0300
0300
0300
0300
0300
FFFE
FFFE
0300
0300
FFFE
03FE
0300
0300
0300
0300
0300
0300
0300
0300
0300
ENDCHAR
STARTCHAR 256B
ENCODING 9579
SWIDTH 720 0
DWIDTH 15 0
BBX 15 25 0 -6
BITMAP
04C0
04C0
04C0
04C0
04C0
04C0
04C0
04C0
04C0
04C0
04C0
04C0
FFFE
FFFE
04C0
04C0
04C0
04C0
04C0
04C0
04C0
04C0
04C0
04C0
04C0
ENDCHAR
STARTCHAR 256C
ENCODING 9580
SWIDTH 720 0
DWIDTH 15 0
BBX 15 25 0 -6
BITMAP
04C0
04C0
04C0
04C0
04C0
04C0
04C0
04C0
04C0
04C0
FCFE
FCFE
0000
0000
FCFE
04FE
04C0
04C0
04C0
04C0
04C0
04C0
04C0
04C0
04C0
ENDCHAR
STARTCHAR 2580
ENCODING 9600
SWIDTH 720 0
DWIDTH 15 0
BBX 15 13 0 6
BITMAP
FFFE
FFFE
FFFE
FFFE
FFFE
FFFE
FFFE
FFFE
FFFE
FFFE
FFFE
FFFE
FFFE
ENDCHAR
STARTCHAR 2584
ENCODING 9604
SWIDTH 720 0
DWIDTH 15 0
BBX 15 12 0 -6
BITMAP
FFFE
FFFE
FFFE
FFFE
FFFE
FFFE
FFFE
FFFE
FFFE
FFFE
FFFE
FFFE
ENDCHAR
STARTCHAR 2588
ENCODING 9608
SWIDTH 720 0
DWIDTH 15 0
BBX 15 25 0 -6
BITMAP
FFFE
FFFE
FFFE
FFFE
FFFE
FFFE
FFFE
FFFE
FFFE
FFFE
FFFE
FFFE
FFFE
FFFE
FFFE
FFFE
FFFE
FFFE
FFFE
FFFE
FFFE
FFFE
FFFE
FFFE
FFFE
ENDCHAR
STARTCHAR 258C
ENCODING 9612
SWIDTH 720 0
DWIDTH 15 0
BBX 7 25 0 -6
BITMAP
FE
FE
FE
FE
FE
FE
FE
FE
FE
FE
FE
FE
FE
FE
FE
FE
FE
FE
FE
FE
FE
FE
FE
FE
FE
ENDCHAR
STARTCHAR 2590
ENCODING 9616
SWIDTH 720 0
DWIDTH 15 0
BBX 8 25 7 -6
BITMAP
FF
FF
FF
FF
FF
FF
FF
FF
FF
FF
FF
FF
FF
FF
FF
FF
FF
FF
FF
FF
FF
FF
FF
FF
FF
ENDCHAR
STARTCHAR 2591
ENCODING 9617
SWIDTH 720 0
DWIDTH 15 0
BBX 14 24 1 -5
BITMAP
8420
0000
0000
1084
0000
8420
0000
0000
1084
0000
8420
0000
0000
1084
0000
8420
8420
0000
1084
0000
8420
8420
0000
1084
ENDCHAR
STARTCHAR 2592
ENCODING 9618
SWIDTH 720 0
DWIDTH 15 0
BBX 15 24 0 -5
BITMAP
4A52
0000
0000
B5AC
0000
4A52
0000
0000
B5AC
0000
4A52
0000
0000
B5AC
0000
4A52
4A52
0000
B5AC
0000
4A52
4A52
0000
B5AC
ENDCHAR
STARTCHAR 2593
ENCODING 9619
SWIDTH 720 0
DWIDTH 15 0
BBX 15 25 0 -6
BITMAP
6B5A
FFFE
FFFE
94A4
FFFE
6B5A
FFFE
FFFE
94A4
FFFE
6B5A
FFFE
FFFE
94A4
FFFE
6B5A
6B5A
FFFE
94A4
FFFE
6B5A
6B5A
FFFE
94A4
FFFE
ENDCHAR
STARTCHAR 25A0
ENCODING 9632
SWIDTH 624 0
DWIDTH 13 0
BBX 10 10 1 0
BITMAP
FFC0
FFC0
FFC0
FFC0
FFC0
FFC0
FFC0
FFC0
FFC0
FFC0
ENDCHAR
STARTCHAR 25A1
ENCODING 9633
SWIDTH 624 0
DWIDTH 13 0
BBX 10 10 1 0
BITMAP
FFC0
8040
8040
8040
8040
8040
8040
8040
8040
FFC0
ENDCHAR
STARTCHAR 25AA
ENCODING 9642
SWIDTH 336 0
DWIDTH 7 0
BBX 5 4 1 5
BITMAP
F8
F8
F8
F8
ENDCHAR
STARTCHAR 25AB
ENCODING 9643
SWIDTH 336 0
DWIDTH 7 0
BBX 5 4 1 5
BITMAP
F8
88
88
F8
ENDCHAR
STARTCHAR 25AC
ENCODING 9644
SWIDTH 1008 0
DWIDTH 21 0
BBX 21 4 0 3
BITMAP
FFFFF8
FFFFF8
FFFFF8
FFFFF8
ENDCHAR
STARTCHAR 25B2
ENCODING 9650
SWIDTH 1008 0
DWIDTH 21 0
BBX 14 14 3 0
BITMAP
0100
0300
0380
0780
07C0
0FC0
0FE0
1FE0
1FF0
3FF0
3FF8
7FF8
7FFC
FFFC
ENDCHAR
STARTCHAR 25BA
ENCODING 9658
SWIDTH 1008 0
DWIDTH 21 0
BBX 14 14 3 0
BITMAP
C000
F000
FC00
FF00
FFC0
FFF0
FFFC
FFFC
FFF0
FFC0
FF00
FC00
F000
C000
ENDCHAR
STARTCHAR 25BC
ENCODING 9660
SWIDTH 1008 0
DWIDTH 21 0
BBX 14 14 3 0
BITMAP
FFFC
7FFC
7FF8
3FF8
3FF0
1FF0
1FE0
0FE0
0FC0
07C0
0780
0380
0300
0100
ENDCHAR
STARTCHAR 25C4
ENCODING 9668
SWIDTH 1008 0
DWIDTH 21 0
BBX 15 14 3 0
BITMAP
0006
001E
007E
01FE
07FE
1FFE
7FFE
FFFE
1FFE
07FE
01FE
007E
001E
0006
ENDCHAR
STARTCHAR 25CA
ENCODING 9674
SWIDTH 480 0
DWIDTH 10 0
BBX 9 14 1 0
BITMAP
1800
2400
2400
4200
4200
8100
8080
8100
C100
4200
2200
2400
1800
1800
ENDCHAR
STARTCHAR 25CB
ENCODING 9675
SWIDTH 624 0
DWIDTH 13 0
BBX 9 9 2 1
BITMAP
3E00
4100
8100
8080
8080
8080
8100
6200
1C00
ENDCHAR
STARTCHAR 25CF
ENCODING 9679
SWIDTH 624 0
DWIDTH 13 0
BBX 9 9 2 1
BITMAP
3E00
7F00
FF00
FF80
FF80
FF80
FF00
7E00
1800
ENDCHAR
STARTCHAR 25D8
ENCODING 9688
SWIDTH 624 0
DWIDTH 13 0
BBX 10 10 1 0
BITMAP
FFC0
FFC0
FFC0
F1C0
E1C0
E1C0
F1C0
FFC0
FFC0
FFC0
ENDCHAR
STARTCHAR 25D9
ENCODING 9689
SWIDTH 624 0
DWIDTH 13 0
BBX 12 12 0 0
BITMAP
FFF0
FFF0
F270
EFB0
DFF0
DFD0
DFD0
DFD0
DFB0
E770
F9F0
FFF0
ENDCHAR
STARTCHAR 25E6
ENCODING 9702
SWIDTH 336 0
DWIDTH 7 0
BBX 5 5 1 4
BITMAP
78
88
88
48
30
ENDCHAR
STARTCHAR 263A
ENCODING 9786
SWIDTH 1008 0
DWIDTH 21 0
BBX 13 13 4 -1
BITMAP
0700
18E0
2030
4010
4008
98C8
8008
8008
8008
4890
6710
3060
0FC0
ENDCHAR
STARTCHAR 263B
ENCODING 9787
SWIDTH 1056 0
DWIDTH 22 0
BBX 13 13 4 -1
BITMAP
0780
1FE0
3FF0
7FF8
7FF8
77B8
FFF8
7FF8
7FF8
7338
3CF0
1FE0
0FC0
ENDCHAR
STARTCHAR 263C
ENCODING 9788
SWIDTH 912 0
DWIDTH 19 0
BBX 17 18 1 -2
BITMAP
008000
008000
208300
13E600
0C1C00
080800
100400
100400
200200
E00380
100400
100400
080800
1C1400
33E200
408100
008000
008000
ENDCHAR
STARTCHAR 2640
ENCODING 9792
SWIDTH 768 0
DWIDTH 16 0
BBX 11 19 2 -4
BITMAP
1F80
2040
4040
8020
8020
8020
8020
4020
2040
1180
0E00
0400
0400
0400
7FE0
0400
0400
0400
0400
ENDCHAR
STARTCHAR 2642
ENCODING 9794
SWIDTH 768 0
DWIDTH 16 0
BBX 13 19 1 -3
BITMAP
0070
01B0
0630
0048
0048
0088
0080
0100
1F00
2080
4040
8040
8020
8020
8020
8040
4040
2080
1F00
ENDCHAR
STARTCHAR 2660
ENCODING 9824
SWIDTH 528 0
DWIDTH 11 0
BBX 9 12 1 1
BITMAP
0800
0800
1C00
3E00
7F00
FF80
FF80
FF80
FB80
0800
0C00
3F00
ENDCHAR
STARTCHAR 2663
ENCODING 9827
SWIDTH 672 0
DWIDTH 14 0
BBX 12 12 1 1
BITMAP
0F00
1F80
1F80
1F00
FFE0
FFF0
FFF0
FBF0
F5E0
0400
0E00
3F80
ENDCHAR
STARTCHAR 2665
ENCODING 9829
SWIDTH 576 0
DWIDTH 12 0
BBX 11 11 1 1
BITMAP
F3C0
FFE0
FFE0
FFC0
FFC0
7F80
3F80
1F00
1E00
0C00
0400
ENDCHAR
STARTCHAR 2666
ENCODING 9830
SWIDTH 528 0
DWIDTH 11 0
BBX 9 12 1 1
BITMAP
0800
1C00
3C00
3E00
7F00
FF80
FF00
7F00
3E00
3C00
1800
0800
ENDCHAR
STARTCHAR 266A
ENCODING 9834
SWIDTH 480 0
DWIDTH 10 0
BBX 10 14 0 0
BITMAP
0700
0780
05C0
0440
0440
0400
0400
0400
0400
0400
7C00
FC00
FC00
7800
ENDCHAR
STARTCHAR 266B
ENCODING 9835
SWIDTH 768 0
DWIDTH 16 0
BBX 13 16 1 -1
BITMAP
0078
03F8
0FF8
0F18
0818
0818
0818
0818
0818
0858
09F8
09F8
F9F0
F8F0
F800
F800
ENDCHAR
STARTCHAR E801
ENCODING 59393
SWIDTH 240 0
DWIDTH 5 0
BBX 4 14 1 0
BITMAP
80
80
00
60
70
30
10
10
20
20
20
20
40
40
ENDCHAR
STARTCHAR E802
ENCODING 59394
SWIDTH 432 0
DWIDTH 9 0
BBX 8 15 2 -4
BITMAP
FF
FF
02
04
04
04
48
48
08
48
08
10
10
10
20
ENDCHAR
STARTCHAR E803
ENCODING 59395
SWIDTH 432 0
DWIDTH 9 0
BBX 9 15 1 -4
BITMAP
7F80
7F80
0100
0200
0200
0200
0400
F400
2400
2400
0400
0800
0800
0800
1000
ENDCHAR
STARTCHAR E804
ENCODING 59396
SWIDTH 432 0
DWIDTH 9 0
BBX 9 15 0 1
BITMAP
3000
D000
E000
2000
3F00
3F80
0180
0080
0100
0100
0200
0400
0800
0800
1000
ENDCHAR
STARTCHAR E805
ENCODING 59397
SWIDTH 432 0
DWIDTH 9 0
BBX 9 15 0 1
BITMAP
3000
D000
E000
2000
3F00
3F80
0180
0080
0900
0900
0200
0400
0800
0800
1000
ENDCHAR
STARTCHAR F001
ENCODING 61441
SWIDTH 480 0
DWIDTH 10 0
BBX 14 18 -4 -4
BITMAP
007C
00C4
0080
0180
0100
07FC
0308
0318
0218
0210
0610
0630
0438
0430
0C00
0800
0800
F000
ENDCHAR
STARTCHAR F002
ENCODING 61442
SWIDTH 480 0
DWIDTH 10 0
BBX 15 18 -4 -4
BITMAP
003E
0046
0086
0184
018C
07FC
0308
0308
0318
0218
0610
0630
0438
0438
0C00
0800
0800
F000
ENDCHAR
STARTCHAR F004
ENCODING 61444
SWIDTH 336 0
DWIDTH 7 0
BBX 2 3 2 -5
BITMAP
C0
C0
80
ENDCHAR
STARTCHAR F005
ENCODING 61445
SWIDTH 336 0
DWIDTH 7 0
BBX 3 4 0 -4
BITMAP
40
60
20
C0
ENDCHAR
STARTCHAR F006
ENCODING 61446
SWIDTH 0 0
DWIDTH 0 0
BBX 3 2 -1 17
BITMAP
E0
80
ENDCHAR
STARTCHAR F007
ENCODING 61447
SWIDTH 0 0
DWIDTH 0 0
BBX 3 2 -2 17
BITMAP
60
80
ENDCHAR
STARTCHAR F008
ENCODING 61448
SWIDTH 0 0
DWIDTH 0 0
BBX 3 3 -2 11
BITMAP
60
C0
80
ENDCHAR
STARTCHAR F009
ENCODING 61449
SWIDTH 0 0
DWIDTH 0 0
BBX 3 4 -3 15
BITMAP
60
60
40
80
ENDCHAR
STARTCHAR F00F
ENCODING 61455
SWIDTH 0 0
DWIDTH 0 0
BBX 2 3 -5 11
BITMAP
C0
40
40
ENDCHAR
STARTCHAR F010
ENCODING 61456
SWIDTH 0 0
DWIDTH 0 0
BBX 2 2 -1 17
BITMAP
40
C0
ENDCHAR
STARTCHAR F011
ENCODING 61457
SWIDTH 0 0
DWIDTH 0 0
BBX 2 2 -2 17
BITMAP
80
40
ENDCHAR
STARTCHAR F012
ENCODING 61458
SWIDTH 0 0
DWIDTH 0 0
BBX 3 2 -2 11
BITMAP
E0
40
ENDCHAR
STARTCHAR F013
ENCODING 61459
SWIDTH 0 0
DWIDTH 0 0
BBX 3 3 -4 15
BITMAP
60
A0
40
ENDCHAR
STARTCHAR F014
ENCODING 61460
SWIDTH 0 0
DWIDTH 0 0
BBX 3 3 -5 11
BITMAP
E0
20
40
ENDCHAR
STARTCHAR F015
ENCODING 61461
SWIDTH 0 0
DWIDTH 0 0
BBX 6 2 -4 17
BITMAP
44
B8
ENDCHAR
STARTCHAR F016
ENCODING 61462
SWIDTH 0 0
DWIDTH 0 0
BBX 7 2 -6 16
BITMAP
72
9C
ENDCHAR
STARTCHAR F017
ENCODING 61463
SWIDTH 0 0
DWIDTH 0 0
BBX 7 2 -8 16
BITMAP
72
9C
ENDCHAR
STARTCHAR F018
ENCODING 61464
SWIDTH 0 0
DWIDTH 0 0
BBX 6 2 -8 16
BITMAP
F4
1C
ENDCHAR
STARTCHAR F019
ENCODING 61465
SWIDTH 0 0
DWIDTH 0 0
BBX 7 3 -7 11
BITMAP
72
BA
8C
ENDCHAR
STARTCHAR F01A
ENCODING 61466
SWIDTH 0 0
DWIDTH 0 0
BBX 6 3 -7 11
BITMAP
60
BC
18
ENDCHAR
STARTCHAR F01B
ENCODING 61467
SWIDTH 0 0
DWIDTH 0 0
BBX 7 3 -8 11
BITMAP
62
BC
0C
ENDCHAR
STARTCHAR F01C
ENCODING 61468
SWIDTH 0 0
DWIDTH 0 0
BBX 7 2 -4 16
BITMAP
72
9C
ENDCHAR
STARTCHAR F01D
ENCODING 61469
SWIDTH 0 0
DWIDTH 0 0
BBX 7 3 -5 11
BITMAP
62
BA
8C
ENDCHAR
STARTCHAR F01E
ENCODING 61470
SWIDTH 0 0
DWIDTH 0 0
BBX 2 2 -8 -3
BITMAP
80
C0
ENDCHAR
STARTCHAR F01F
ENCODING 61471
SWIDTH 0 0
DWIDTH 0 0
BBX 2 2 -10 -3
BITMAP
80
C0
ENDCHAR
STARTCHAR F020
ENCODING 61472
SWIDTH 0 0
DWIDTH 0 0
BBX 2 2 -10 -3
BITMAP
80
C0
ENDCHAR
STARTCHAR F021
ENCODING 61473
SWIDTH 0 0
DWIDTH 0 0
BBX 2 2 -10 -3
BITMAP
40
C0
ENDCHAR
STARTCHAR F022
ENCODING 61474
SWIDTH 0 0
DWIDTH 0 0
BBX 2 2 -10 -3
BITMAP
80
C0
ENDCHAR
STARTCHAR F023
ENCODING 61475
SWIDTH 0 0
DWIDTH 0 0
BBX 2 2 -8 -3
BITMAP
C0
C0
ENDCHAR
STARTCHAR F024
ENCODING 61476
SWIDTH 0 0
DWIDTH 0 0
BBX 2 2 -7 -3
BITMAP
C0
C0
ENDCHAR
STARTCHAR F025
ENCODING 61477
SWIDTH 0 0
DWIDTH 0 0
BBX 2 2 -8 -3
BITMAP
C0
C0
ENDCHAR
STARTCHAR F026
ENCODING 61478
SWIDTH 0 0
DWIDTH 0 0
BBX 2 2 -9 -3
BITMAP
40
C0
ENDCHAR
STARTCHAR F027
ENCODING 61479
SWIDTH 0 0
DWIDTH 0 0
BBX 2 2 -8 -3
BITMAP
40
C0
ENDCHAR
STARTCHAR F028
ENCODING 61480
SWIDTH 0 0
DWIDTH 0 0
BBX 2 2 -9 -3
BITMAP
40
C0
ENDCHAR
STARTCHAR F029
ENCODING 61481
SWIDTH 0 0
DWIDTH 0 0
BBX 2 2 -6 -3
BITMAP
80
C0
ENDCHAR
STARTCHAR F02A
ENCODING 61482
SWIDTH 0 0
DWIDTH 0 0
BBX 2 2 -6 -3
BITMAP
40
C0
ENDCHAR
STARTCHAR F02B
ENCODING 61483
SWIDTH 0 0
DWIDTH 0 0
BBX 2 2 -9 -3
BITMAP
40
C0
ENDCHAR
STARTCHAR F02C
ENCODING 61484
SWIDTH 0 0
DWIDTH 0 0
BBX 2 2 -4 -3
BITMAP
80
C0
ENDCHAR
STARTCHAR F02D
ENCODING 61485
SWIDTH 0 0
DWIDTH 0 0
BBX 6 2 -6 17
BITMAP
40
BC
ENDCHAR
STARTCHAR F02E
ENCODING 61486
SWIDTH 0 0
DWIDTH 0 0
BBX 6 2 -6 16
BITMAP
F4
3C
ENDCHAR
STARTCHAR F02F
ENCODING 61487
SWIDTH 0 0
DWIDTH 0 0
BBX 5 2 -6 17
BITMAP
40
B8
ENDCHAR
STARTCHAR F030
ENCODING 61488
SWIDTH 0 0
DWIDTH 0 0
BBX 6 2 -7 16
BITMAP
F4
3C
ENDCHAR
STARTCHAR F031
ENCODING 61489
SWIDTH 288 0
DWIDTH 6 0
BBX 4 9 1 0
BITMAP
F0
20
60
60
40
40
C0
E0
C0
ENDCHAR
STARTCHAR FB01
ENCODING 64257
SWIDTH 480 0
DWIDTH 10 0
BBX 14 18 -4 -4
BITMAP
007C
00C4
0080
0180
0100
07FC
0308
0318
0218
0210
0610
0630
0438
0430
0C00
0800
0800
F000
ENDCHAR
STARTCHAR FB02
ENCODING 64258
SWIDTH 480 0
DWIDTH 10 0
BBX 15 18 -4 -4
BITMAP
003E
0046
0086
0184
018C
07FC
0308
0308
0318
0218
0610
0630
0438
0438
0C00
0800
0800
F000
ENDCHAR
STARTCHAR FB1D
ENCODING 64285
SWIDTH 240 0
DWIDTH 5 0
BBX 3 8 2 4
BITMAP
C0
E0
60
20
20
40
00
80
ENDCHAR
STARTCHAR FB1E
ENCODING 64286
SWIDTH 0 0
DWIDTH 0 0
BBX 5 3 0 12
BITMAP
88
F8
20
ENDCHAR
STARTCHAR FB1F
ENCODING 64287
SWIDTH 480 0
DWIDTH 10 0
BBX 9 8 1 4
BITMAP
6300
7380
3180
1080
1080
2100
0000
FF80
ENDCHAR
STARTCHAR FB20
ENCODING 64288
SWIDTH 432 0
DWIDTH 9 0
BBX 10 12 0 0
BITMAP
2000
3180
39C0
1880
2080
1100
1100
1200
1200
1400
7C00
F800
ENDCHAR
STARTCHAR FB2A
ENCODING 64298
SWIDTH 624 0
DWIDTH 13 0
BBX 11 14 2 0
BITMAP
0060
0020
0000
CE40
EE60
6660
8440
8880
8880
9100
A100
A200
FE00
FE00
ENDCHAR
STARTCHAR FB2B
ENCODING 64299
SWIDTH 624 0
DWIDTH 13 0
BBX 11 14 2 0
BITMAP
4000
4000
0000
CE40
EE60
6660
8440
8880
8880
9100
A100
A200
FE00
FE00
ENDCHAR
STARTCHAR FB2C
ENCODING 64300
SWIDTH 624 0
DWIDTH 13 0
BBX 11 14 2 0
BITMAP
0060
0020
0000
CE40
EE60
6660
8440
8880
8E80
9300
A100
A200
FE00
FE00
ENDCHAR
STARTCHAR FB2D
ENCODING 64301
SWIDTH 624 0
DWIDTH 13 0
BBX 11 14 2 0
BITMAP
4000
4000
0000
CE40
EE60
6660
8440
8880
8E80
9300
A100
A200
FE00
FE00
ENDCHAR
STARTCHAR FB2E
ENCODING 64302
SWIDTH 480 0
DWIDTH 10 0
BBX 10 14 0 -2
BITMAP
2180
31C0
38C0
1900
1E00
6E00
4600
4300
4300
6100
C100
0000
0000
7800
ENDCHAR
STARTCHAR FB2F
ENCODING 64303
SWIDTH 480 0
DWIDTH 10 0
BBX 10 16 0 -4
BITMAP
2180
31C0
38C0
1900
1E00
6E00
4600
4300
4300
6100
C100
0000
0000
7800
2000
3000
ENDCHAR
STARTCHAR FB30
ENCODING 64304
SWIDTH 480 0
DWIDTH 10 0
BBX 10 11 0 1
BITMAP
2180
31C0
38C0
1900
1E00
6E00
4600
4300
4B00
6900
C100
ENDCHAR
STARTCHAR FB31
ENCODING 64305
SWIDTH 432 0
DWIDTH 9 0
BBX 9 11 0 0
BITMAP
3F00
3F00
0180
0100
0100
1900
0900
0200
0200
FF00
FE00
ENDCHAR
STARTCHAR FB32
ENCODING 64306
SWIDTH 336 0
DWIDTH 7 0
BBX 7 12 -1 0
BITMAP
08
0C
0E
06
02
04
14
14
04
0C
74
E4
ENDCHAR
STARTCHAR FB33
ENCODING 64307
SWIDTH 432 0
DWIDTH 9 0
BBX 7 11 2 0
BITMAP
FE
FE
04
08
08
50
50
10
10
30
20
ENDCHAR
STARTCHAR FB34
ENCODING 64308
SWIDTH 480 0
DWIDTH 10 0
BBX 10 11 0 0
BITMAP
3FC0
3FC0
0040
0080
0100
2D00
4500
4100
4100
C100
8200
ENDCHAR
STARTCHAR FB35
ENCODING 64309
SWIDTH 240 0
DWIDTH 5 0
BBX 4 11 1 1
BITMAP
60
70
30
10
10
E0
A0
20
20
40
40
ENDCHAR
STARTCHAR FB36
ENCODING 64310
SWIDTH 288 0
DWIDTH 6 0
BBX 6 11 0 1
BITMAP
38
3C
1C
10
10
E0
20
20
20
20
40
ENDCHAR
STARTCHAR FB38
ENCODING 64312
SWIDTH 480 0
DWIDTH 10 0
BBX 9 11 1 1
BITMAP
6300
7780
3580
4880
4080
8900
8900
8200
8200
FC00
FC00
ENDCHAR
STARTCHAR FB39
ENCODING 64313
SWIDTH 240 0
DWIDTH 5 0
BBX 4 6 1 6
BITMAP
60
70
30
90
D0
20
ENDCHAR
STARTCHAR FB3A
ENCODING 64314
SWIDTH 432 0
DWIDTH 9 0
BBX 8 15 2 -4
BITMAP
FF
FF
02
04
04
24
28
08
08
08
08
10
10
10
20
ENDCHAR
STARTCHAR FB3B
ENCODING 64315
SWIDTH 432 0
DWIDTH 9 0
BBX 8 11 0 0
BITMAP
3E
3F
03
01
01
19
0A
02
06
FC
F8
ENDCHAR
STARTCHAR FB3C
ENCODING 64316
SWIDTH 432 0
DWIDTH 9 0
BBX 7 15 2 1
BITMAP
C0
40
80
80
FC
FE
06
02
24
24
08
10
20
20
40
ENDCHAR
STARTCHAR FB3E
ENCODING 64318
SWIDTH 480 0
DWIDTH 10 0
BBX 9 11 0 1
BITMAP
3100
3B80
1780
0880
1080
2680
4480
4100
8100
9E00
BE00
ENDCHAR
STARTCHAR FB40
ENCODING 64320
SWIDTH 288 0
DWIDTH 6 0
BBX 7 11 -1 1
BITMAP
1C
1E
0E
04
04
38
08
08
08
78
F8
ENDCHAR
STARTCHAR FB41
ENCODING 64321
SWIDTH 480 0
DWIDTH 10 0
BBX 8 11 1 0
BITMAP
7E
7F
23
41
81
99
81
82
C2
FC
78
ENDCHAR
STARTCHAR FB43
ENCODING 64323
SWIDTH 432 0
DWIDTH 9 0
BBX 8 14 1 -4
BITMAP
7E
7E
23
42
82
FA
CA
04
04
04
04
08
08
08
ENDCHAR
STARTCHAR FB44
ENCODING 64324
SWIDTH 432 0
DWIDTH 9 0
BBX 8 11 0 0
BITMAP
3E
3F
23
21
61
75
05
02
02
7C
F8
ENDCHAR
STARTCHAR FB46
ENCODING 64326
SWIDTH 432 0
DWIDTH 9 0
BBX 10 12 0 0
BITMAP
0100
3180
39C0
08C0
1100
1200
7A00
0C00
0600
0300
7E00
FE00
ENDCHAR
STARTCHAR FB47
ENCODING 64327
SWIDTH 432 0
DWIDTH 9 0
BBX 10 14 -1 -4
BITMAP
1FC0
1FC0
0040
0040
1440
2480
2080
2300
4400
4800
4800
4000
8000
8000
ENDCHAR
STARTCHAR FB48
ENCODING 64328
SWIDTH 432 0
DWIDTH 9 0
BBX 7 11 2 0
BITMAP
FC
FE
06
02
22
64
04
04
08
08
10
ENDCHAR
STARTCHAR FB49
ENCODING 64329
SWIDTH 624 0
DWIDTH 13 0
BBX 11 11 2 1
BITMAP
CE40
EE60
6660
8440
8880
8E80
9300
A100
A200
FE00
FE00
ENDCHAR
STARTCHAR FB4A
ENCODING 64330
SWIDTH 480 0
DWIDTH 10 0
BBX 11 11 -1 0
BITMAP
0FC0
0FC0
0460
0840
1040
1240
1240
1080
3080
6080
E100
ENDCHAR
STARTCHAR FB4B
ENCODING 64331
SWIDTH 240 0
DWIDTH 5 0
BBX 4 14 2 0
BITMAP
30
20
00
C0
E0
60
20
20
40
40
40
40
80
80
ENDCHAR
STARTCHAR FB4C
ENCODING 64332
SWIDTH 432 0
DWIDTH 9 0
BBX 9 13 0 0
BITMAP
0780
0000
3F00
3F00
0180
0100
0100
0100
0100
0200
0200
FF00
FE00
ENDCHAR
STARTCHAR FB4D
ENCODING 64333
SWIDTH 432 0
DWIDTH 9 0
BBX 8 13 0 0
BITMAP
0F
00
3E
3F
03
01
01
01
02
02
06
FC
F8
ENDCHAR
STARTCHAR FB4E
ENCODING 64334
SWIDTH 432 0
DWIDTH 9 0
BBX 9 13 0 0
BITMAP
0780
0000
3E00
3F00
2300
2100
6100
7100
0100
0200
0200
7C00
F800
ENDCHAR
STARTCHAR FB4F
ENCODING 64335
SWIDTH 528 0
DWIDTH 11 0
BBX 10 15 1 1
BITMAP
6000
2000
4000
4000
6180
71C0
38C0
1900
1D00
2600
4700
4300
6100
6100
E100
ENDCHAR
STARTCHAR FFFC
ENCODING 65532
SWIDTH 1008 0
DWIDTH 21 0
BBX 21 15 0 0
BITMAP
E38E38
800008
800008
000000
1F7C40
114440
B1C448
A1FC48
B1C448
114440
1F7DC0
000000
800008
800008
E38E38
ENDCHAR
ENDFONT
